<svg width="24" height="24" xmlns="http://www.w3.org/2000/svg">
 <!-- Created with Method Draw - http://github.com/duopixel/Method-Draw/ -->
 <g>
  <title>background</title>
  <rect fill="#fff" id="canvas_background" height="26" width="26" y="-1" x="-1"/>
  <g display="none" overflow="visible" y="0" x="0" height="100%" width="100%" id="canvasGrid">
   <rect fill="url(#gridpattern)" stroke-width="0" y="0" x="0" height="100%" width="100%"/>
  </g>
 </g>
 <g>
  <title>Layer 1</title>
  <rect stroke="#000000" id="svg_28" height="9.488575" width="4.031414" y="12.172069" x="8.533969" stroke-width="0.5" fill="none"/>
  <rect stroke="#000000" id="svg_31" height="14.454093" width="4.178904" y="7.20655" x="12.614545" stroke-width="0.5" fill="none"/>
  <rect stroke="#000000" id="svg_32" height="19.026306" width="4.277231" y="2.634338" x="16.891774" stroke-width="0.5" fill="none"/>
  <path stroke="#000000" id="svg_33" d="m4.62366,7.951479l6.319759,0.002413l-0.205078,0.303073l-5.907182,-0.007238l-0.207499,-0.298248l0,0zm0.04343,-4.031563l6.235311,-0.007238l0.180956,0.310907l-6.599638,0.002413l0.183371,-0.306082zm-0.615349,2.020162l7.461181,-0.007238l-0.009644,0.310907l-7.446711,-0.004825l-0.004825,-0.298844zm7.467357,0.028836c0,2.058279 -1.674868,3.73271 -3.733898,3.73271c-2.05814,0 -3.732696,-1.674733 -3.732696,-3.73271c0,-2.057986 1.674859,-3.732417 3.732696,-3.732417c2.05903,-0.000302 3.733898,1.67443 3.733898,3.732417zm-3.733604,-4.031563c-2.222432,0 -4.030957,1.80839 -4.030957,4.03126c0,2.223173 1.808525,4.031563 4.030957,4.031563c2.223642,0 4.031865,-1.80839 4.031865,-4.031563c0,-2.22287 -1.808223,-4.03126 -4.031865,-4.03126zm1.1312,4.031563c0,2.199442 -0.595937,3.73271 -1.1312,3.73271c-0.534657,0 -1.130585,-1.533267 -1.130585,-3.73271c0,-2.200048 0.595634,-3.732417 1.130585,-3.732417c0.534961,-0.000302 1.1312,1.532369 1.1312,3.732417zm-1.1312,-4.031563c-0.928434,0 -1.429451,2.077198 -1.429451,4.03126c0,1.954659 0.501017,4.031563 1.429451,4.031563c0.928444,0 1.430369,-2.077206 1.430369,-4.031563c-0.000303,-1.954063 -0.501925,-4.03126 -1.430369,-4.03126zm2.649264,4.031563c0,2.058279 -1.188866,3.73271 -2.649264,3.73271c-1.460095,0 -2.648356,-1.674733 -2.648356,-3.73271c0,-2.057986 1.188261,-3.732417 2.648356,-3.732417c1.460398,-0.000302 2.649264,1.67443 2.649264,3.732417zm-2.649264,-4.031563c-1.624699,0 -2.947223,1.80839 -2.947223,4.03126c0,2.223173 1.322523,4.031563 2.947223,4.031563c1.625304,0 2.947534,-1.80839 2.947534,-4.031563c0,-2.22287 -1.32223,-4.03126 -2.947534,-4.03126z" stroke-width="0.5" fill="none"/>
  <rect stroke="#000000" id="svg_34" height="5.260509" width="4.031414" y="16.400135" x="4.404231" stroke-width="0.5" fill="none"/>
 </g>
</svg>