<svg width="24" height="24" xmlns="http://www.w3.org/2000/svg">
 <!-- Created with Method Draw - http://github.com/duopixel/Method-Draw/ -->
 <g>
  <title>background</title>
  <rect fill="#fff" id="canvas_background" height="26" width="26" y="-1" x="-1"/>
  <g display="none" overflow="visible" y="0" x="0" height="100%" width="100%" id="canvasGrid">
   <rect fill="url(#gridpattern)" stroke-width="0" y="0" x="0" height="100%" width="100%"/>
  </g>
 </g>
 <g>
  <title>Layer 1</title>
  <path stroke="null" id="svg_30" d="m2.093512,10.618471c0,0 -0.324839,-0.603768 0.129933,-0.866275c0.454772,-0.262499 1.949015,-2.638185 3.118419,-2.677563c0,0 0.064967,-2.362553 0.909538,-1.968797c0.844578,0.393764 0.454772,0.708766 0.454772,0.708766c0,0 1.429277,-2.047543 1.819082,0.236255c0,0 0.389799,0.590642 1.884042,-1.102522c1.494243,-1.693164 6.62297,-2.095589 9.095399,1.023776c1.59169,2.008174 3.800571,5.000746 2.078942,7.717686c0,0 0.996607,5.968116 -7.330703,5.071883c0,0 -3.226452,-0.740533 -4.883108,-0.661779c-1.656663,0.078746 -3.020973,0.748143 -2.208881,-0.157509c0.812085,-0.905644 2.988486,-0.905644 5.912006,-0.236255c2.92352,0.669397 7.601149,0.551265 7.601149,-3.465083c0,0 -0.714638,0.31501 -1.039471,0.078754c0,0 0.162413,0.866267 -0.779605,0.78752c-0.942024,-0.078754 -1.819082,-0.433133 -2.793587,0.078746c0,0 -0.292353,0.236263 -0.389806,0c0,0 -0.487252,0 -0.324833,-0.236255c0,0 -0.276109,-0.137816 0,-0.393756c0.276109,-0.25594 2.208881,-0.216571 2.143915,-0.236255c-0.064967,-0.019685 0.03248,-0.25594 -0.129933,-0.236255c-0.16242,0.019685 -4.969988,0.374072 -6.236845,-0.078754c0,0 -0.064967,0.53158 -0.324833,0.31501c0,0 -2.403788,0.295317 -2.92352,0.630011c-0.519739,0.334702 -0.341083,0.078754 -0.519739,0.157509c-0.178663,0.078746 -0.373562,0.452818 -0.584705,0.236255c0,0 -0.714638,0.216563 -0.519739,-0.157509c0,0 -0.227379,0.098447 -0.324833,-0.157501c0,0 -0.308596,-0.118124 0.129933,-0.551265c0.438529,-0.433133 2.208881,-0.413441 2.338814,-0.630011c0.12994,-0.216571 0.08121,-0.374072 -0.324833,-0.31501c-0.406042,0.059062 -1.234377,-0.118124 -1.884049,-0.630011c-0.649672,-0.511888 -0.439433,-0.766426 -1.819076,-0.945029c-1.115266,-0.144375 -1.342652,-0.341253 -1.624176,-0.472511c-0.281531,-0.131249 -0.649672,-0.866267 -0.649672,-0.866267z" stroke-opacity="null" stroke-width="null" fill="#619E73"/>
  <ellipse ry="0.365296" rx="0.410958" id="svg_31" cy="8.778686" cx="6.155259" stroke-opacity="null" stroke-width="null" stroke="null" fill="#000000"/>
 </g>
</svg>