<svg width="24" height="24" xmlns="http://www.w3.org/2000/svg">
 <!-- Created with Method Draw - http://github.com/duopixel/Method-Draw/ -->

 <g>
  <title>background</title>
  <rect x="-1" y="-1" width="3.095889" height="3.095889" id="canvas_background" fill="#fff"/>
  <g id="canvasGrid" display="none">
   <rect id="svg_1" width="100%" height="100%" x="0" y="0" stroke-width="0" fill="url(#gridpattern)"/>
  </g>
 </g>
 <g>
  <title>Layer 1</title>
  <rect fill="none" stroke-width="0.3" x="0.858462" y="2.568648" width="7.123278" height="7.488575" id="svg_32" stroke="#619E73"/>
  <rect fill="none" stroke-width="0.3" x="1.041111" y="4.988737" width="6.712319" height="2.283102" id="svg_33" stroke="#619E73"/>
  <rect fill="none" stroke-width="0.3" x="3.506861" y="2.842621" width="2.054791" height="7.031954" id="svg_34" stroke="#619E73"/>
  <rect fill="none" stroke-width="0.3" x="0.858462" y="12.385987" width="7.123278" height="7.488575" id="svg_35" stroke="#619E73"/>
  <rect fill="none" stroke-width="0.3" x="1.041111" y="14.806075" width="6.712319" height="2.283102" id="svg_36" stroke="#619E73"/>
  <rect fill="none" stroke-width="0.3" x="3.506861" y="12.659959" width="2.054791" height="7.031954" id="svg_37" stroke="#619E73"/>
  <path fill="#619E73" stroke-width="0.3" d="m6.907718,11.023913l3.862833,-2.141218l3.862833,2.141218l-1.931417,0l0,2.151521l-3.862833,0l0,-2.151521l-1.931417,0l0.000001,0z" id="svg_38" transform="rotate(89.56781005859375 10.770550727844238,11.029065132141113) "/>
  <rect fill="none" stroke-width="0.3" x="13.826482" y="4.486454" width="9.269394" height="13.42464" id="svg_39" stroke="#619E73"/>
  <rect fill="none" stroke-width="0.3" x="13.963468" y="7.271838" width="8.767111" height="2.283102" id="svg_40" stroke="#619E73"/>
  <rect fill="none" stroke-width="0.3" x="16.01826" y="4.714764" width="1.552509" height="12.968019" id="svg_41" stroke="#619E73"/>
  <rect fill="none" stroke-width="0.3" x="19.214602" y="4.714764" width="1.552509" height="12.968019" id="svg_42" stroke="#619E73"/>
  <rect fill="none" stroke-width="0.3" x="13.963468" y="12.385987" width="8.767111" height="2.283102" id="svg_43" stroke="#619E73"/>
  <rect id="svg_2" height="0.681957" width="0.743953" y="3.596629" x="4.188498" stroke-width="0.5" stroke="#000000" fill="#619E73"/>
  <rect id="svg_3" height="0.681957" width="0.743953" y="13.454001" x="4.126502" stroke-width="0.5" stroke="#000000" fill="#619E73"/>
  <rect id="svg_4" height="0.681957" width="0.743953" y="8.060345" x="16.401721" stroke-width="0.5" stroke="#000000" fill="#619E73"/>
  <rect id="svg_5" height="0.681957" width="0.743953" y="10.726175" x="16.463716" stroke-width="0.5" stroke="#000000" fill="#619E73"/>
  <rect id="svg_6" height="0.681957" width="0.743953" y="13.206017" x="16.401721" stroke-width="0.5" stroke="#000000" fill="#619E73"/>
 </g>
</svg>