<svg width="23.999999999999996" height="23.999999999999996" xmlns="http://www.w3.org/2000/svg">
 <!-- Created with Method Draw - http://github.com/duopixel/Method-Draw/ -->
 <g>
  <title>background</title>
  <rect fill="#fff" id="canvas_background" height="26" width="26" y="-1" x="-1"/>
  <g display="none" overflow="visible" y="0" x="0" height="100%" width="100%" id="canvasGrid">
   <rect fill="url(#gridpattern)" stroke-width="0" y="0" x="0" height="100%" width="100%"/>
  </g>
 </g>
 <g>
  <title>Layer 1</title>
  <path stroke="#396849" id="svg_1" d="m12.097354,2.022575c-5.785066,0 -10.474717,4.556282 -10.474717,10.177508c0,1.920564 0.55442,3.715425 1.508348,5.247737l-1.508348,4.284887l4.199595,-1.396248c1.750018,1.275691 3.918315,2.041847 6.275122,2.041847c5.78508,0 10.474722,-4.557026 10.474722,-10.178224s-4.689641,-10.177508 -10.474722,-10.177508zm0.7348,15.932564l-1.47331,0l0,-1.831074l1.47331,0l0,1.831074zm0,-3.786418l0,0.605678l-1.47331,0l0,-0.745452c0,-2.249666 1.976075,-2.606115 1.976075,-4.203517c0,-0.729197 -0.502766,-1.288283 -1.161925,-1.288283c-0.682428,0 -1.281656,0.651544 -1.281656,0.651544l-0.838122,-1.350403c0,0 0.826133,-1.117434 2.251356,-1.117434c1.354288,0 2.611253,1.086374 2.611253,2.91673c0.000718,2.561759 -2.083671,2.856087 -2.083671,4.531137l0.000001,0z" fill="#CBFFFF"/>
 </g>
</svg>