<svg width="24.000000000000004" height="24.000000000000004" xmlns="http://www.w3.org/2000/svg">
 <!-- Created with Method Draw - http://github.com/duopixel/Method-Draw/ -->
 <g>
  <title>background</title>
  <rect fill="#fff" id="canvas_background" height="26" width="26" y="-1" x="-1"/>
  <g display="none" overflow="visible" y="0" x="0" height="100%" width="100%" id="canvasGrid">
   <rect fill="url(#gridpattern)" stroke-width="0" y="0" x="0" height="100%" width="100%"/>
  </g>
 </g>
 <g>
  <title>Layer 1</title>
  <rect stroke-width="0.1" rx="1" stroke="#46673D" id="svg_1" height="22.236519" width="22.499673" y="0.923544" x="0.859811" fill="#fff"/>
  <path stroke="#46673D" id="svg_3" d="m12.032314,3.612562c-4.698826,0 -8.50865,2.880647 -8.50865,6.434353c0,2.032652 1.250669,3.843727 3.197884,5.022455c-0.277061,1.04503 -0.829983,2.202481 -1.898637,3.2262c0,0 2.494468,-0.187864 4.256349,-2.220792c0.101431,0.028307 0.206422,0.049613 0.308813,0.075751c-0.096226,-0.326701 -0.152876,-0.666327 -0.152876,-1.019697c0,-2.397615 2.346109,-4.275008 5.342532,-4.275008c2.152215,0 3.963173,0.97225 4.815659,2.406782c0.725715,-0.946925 1.147573,-2.043709 1.147573,-3.216507c0,-3.552889 -3.809823,-6.433536 -8.508646,-6.433536l-0.000001,0zm7.266037,11.518817c0,-1.971206 -2.113117,-3.570419 -4.721334,-3.570419c-2.606794,0 -4.721103,1.599213 -4.721103,3.570419c0,1.972263 2.114308,3.57068 4.721103,3.57068c0.577331,0 1.127186,-0.082217 1.638405,-0.225603c0.977397,1.128588 2.36149,1.232365 2.36149,1.232365c-0.59273,-0.568215 -0.89894,-1.210284 -1.053003,-1.790615c1.079794,-0.653372 1.774443,-1.658252 1.774443,-2.786827z" fill-opacity="null" stroke-opacity="null" fill="#fff"/>
 </g>
</svg>