<svg width="24" height="24" xmlns="http://www.w3.org/2000/svg">
 <!-- Created with Method Draw - http://github.com/duopixel/Method-Draw/ -->
 <g>
  <title>background</title>
  <rect fill="#fff" id="canvas_background" height="26" width="26" y="-1" x="-1"/>
  <g display="none" overflow="visible" y="0" x="0" height="100%" width="100%" id="canvasGrid">
   <rect fill="url(#gridpattern)" stroke-width="0" y="0" x="0" height="100%" width="100%"/>
  </g>
 </g>
 <g>
  <title>Layer 1</title>
  <path stroke="#000000" id="svg_35" d="m12.361883,2.272692c2.613179,0 4.733139,2.098993 4.733139,4.683838c0,2.584846 -2.11996,4.681819 -4.733139,4.681819c-2.61318,0 -4.73314,2.098995 -4.73314,4.683839c0,2.584845 2.11996,4.681819 4.73314,4.681819c5.226357,0 9.468318,-4.19597 9.468318,-9.365659c0,-5.16969 -4.241961,-9.365657 -9.468318,-9.365657l0,0.000001zm0,3.220139c-0.817039,0 -1.479745,0.655518 -1.479745,1.463699c0,0.808182 0.662704,1.463699 1.479745,1.463699c0.81704,0 1.479743,-0.655518 1.479743,-1.463699c0,-0.808181 -0.662703,-1.463699 -1.479743,-1.463699zm0,9.365659c0.816617,0 1.479743,0.655935 1.479743,1.463699c0,0.807763 -0.663125,1.4637 -1.479743,1.4637c-0.816618,0 -1.479745,-0.655937 -1.479745,-1.4637c0,-0.807763 0.663127,-1.463699 1.479745,-1.463699zm9.25595,-3.214173c0,5.165849 -4.23365,9.353597 -9.456128,9.353597c-5.222475,0 -9.456128,-4.187748 -9.456128,-9.353597c0,-5.165851 4.233653,-9.3536 9.456128,-9.3536c5.222478,0 9.456128,4.187749 9.456128,9.3536z" stroke-opacity="null" stroke-width="0.5" fill="#000000"/>
 </g>
</svg>