<svg width="24" height="24" xmlns="http://www.w3.org/2000/svg">
 <!-- Created with Method Draw - http://github.com/duopixel/Method-Draw/ -->
 <g>
  <title>background</title>
  <rect fill="#fff" id="canvas_background" height="26" width="26" y="-1" x="-1"/>
  <g display="none" overflow="visible" y="0" x="0" height="100%" width="100%" id="canvasGrid">
   <rect fill="url(#gridpattern)" stroke-width="0" y="0" x="0" height="100%" width="100%"/>
  </g>
 </g>
 <g>
  <title>Layer 1</title>
  <text stroke="#000" transform="matrix(0.42648178492610606,0,0,0.3641235411898419,6.340733070114803,5.041170884895751) " xml:space="preserve" text-anchor="start" font-family="Helvetica, Arial, sans-serif" font-size="8" id="svg_4" y="13.784081" x="4.331979" fill-opacity="null" stroke-opacity="null" stroke-width="0" fill="#000000">3701</text>
  <text stroke="#000" transform="matrix(0.35693414704129106,0,0,0.3402965857213623,7.205636042681309,6.557493989149531) " xml:space="preserve" text-anchor="start" font-family="Helvetica, Arial, sans-serif" font-size="8" id="svg_5" y="23.443073" x="4.977506" fill-opacity="null" stroke-opacity="null" stroke-width="0" fill="#000000">济南</text>
  <path stroke="#fff" id="svg_6" d="m12.086054,2.910959c0.980417,0.001188 1.917028,0.163873 2.804041,0.435656l-0.702007,1.163571l4.983114,0l-1.246097,-2.068171l-1.245146,-2.067552l-0.655455,1.089467c-1.228426,-0.430409 -2.552717,-0.67129 -3.937557,-0.67129c-6.374317,0 -11.540901,4.951696 -11.540901,11.060486c0,2.535349 0.899787,4.864779 2.397229,6.731127l1.92152,-1.291252c9.038911,1.491734 -0.772596,-3.390371 -0.776547,-5.439264c0.008821,-4.938877 2.511579,-6.935206 7.997805,-8.942778l0.000001,0zm9.14489,2.213373l-1.921517,1.29187c-6.705882,1.007692 0.034449,-0.500723 0.10896,5.021446c0.074511,5.52217 -2.261579,9.434594 -7.331439,9.359399c-5.06986,-0.075195 -1.786804,-0.143431 -2.619652,-0.381408l0.660612,-1.094748l-4.983092,0l1.245176,2.067027l1.246074,2.069877l0.694704,-1.155373c1.178214,0.393081 2.439195,0.612379 3.756178,0.612949c6.375237,-0.001138 11.540934,-4.952839 11.542432,-11.061634c-0.001498,-2.535343 -0.901923,-4.864205 -2.398436,-6.729405l0,0z" stroke-width="0.2" fill="#729C62"/>
 </g>
</svg>