<svg width="24" height="24" xmlns="http://www.w3.org/2000/svg">
 <!-- Created with Method Draw - http://github.com/duopixel/Method-Draw/ -->
 <g>
  <title>background</title>
  <rect fill="#fff" id="canvas_background" height="26" width="26" y="-1" x="-1"/>
  <g display="none" overflow="visible" y="0" x="0" height="100%" width="100%" id="canvasGrid">
   <rect fill="url(#gridpattern)" stroke-width="0" y="0" x="0" height="100%" width="100%"/>
  </g>
 </g>
 <g>
  <title>Layer 1</title>
  <path stroke="#000" id="svg_1" d="m11.925886,0.053926c-6.648151,0 -12.037402,5.36194 -12.037402,11.9764c0,6.61446 5.389251,11.9764 12.037402,11.9764c6.648151,0 12.037402,-5.36194 12.037402,-11.9764c0,-6.61446 -5.389251,-11.9764 -12.037402,-11.9764zm2.61553,17.966249c-0.06543,0.052738 -0.151565,0.107123 -0.086963,0.170573c0.064601,0.064274 -0.07454,0.107947 -0.07454,0.140084s0.086135,0.202711 0.043068,0.276873c-0.043068,0.07581 -0.075368,0.183758 -0.107669,0.248032c-0.032301,0.06345 -0.108497,0.127724 -0.086135,0.224135c0.020706,0.095587 -0.086135,0.06345 -0.086135,0.159861c0,0.095587 0.096074,0.053562 0.07454,0.171398c-0.020706,0.11866 -0.07454,0.150797 -0.07454,0.234848c0,0.085699 0.053006,0.203535 0.053006,0.235672s-0.053006,0.140084 -0.128375,0.224135c-0.076197,0.085699 -0.128375,0.140084 -0.119264,0.191998c0.011595,0.053562 0.086135,0.11866 0.075368,0.151621c-0.010767,0.030489 -0.106841,0.138436 -0.096074,0.213423c0.011595,0.074162 0.106841,0.043673 0.128375,0.095587c0.021534,0.053562 -0.128375,0.097235 -0.064601,0.150797c0.064601,0.052738 0.151565,0.042025 0.129203,0.171398c-0.015736,0.092291 0.053006,0.134316 0.104356,0.163157c-0.737947,0.18211 -1.505711,0.290057 -2.299977,0.290057c-5.267502,0 -9.551903,-4.262689 -9.551903,-9.503497c0,-1.708207 0.461321,-3.308466 1.257243,-4.694479c0.06543,-0.034609 0.113467,-0.056858 0.141626,-0.05109c0.053835,0.010712 0.06543,0.085699 0.151565,0.107123c0.086135,0.021425 0.161504,-0.064274 0.215338,-0.096411c0.053006,-0.032137 0.096074,-0.160685 0.042239,-0.149973c-0.053835,0.010712 -0.193804,0 -0.193804,0s0.151565,-0.085699 0.151565,-0.13926s0.020706,-0.13926 0.106841,-0.171398c0.085307,-0.032961 0.085307,-0.011536 0.031472,0.117012c-0.053835,0.128548 0.108497,0.074986 0.172271,0.021425s0.107669,-0.010712 0.225277,-0.085699c0.118436,-0.074986 0.118436,-0.117836 0.183037,-0.117836c0.064601,0 0.183037,0.117836 0.247639,0.074986c0.063773,-0.042849 0.247639,0.053562 0.355308,0.053562c0.106841,0 0.451382,0.13926 0.516812,0.13926c0.064601,0 0.258406,0.074162 0.269173,0.213423c0.010767,0.13926 0.07454,0.128548 0.139142,0.128548s0.215338,0.053562 0.215338,0.107123c0,0.053562 -0.043068,0.267809 0.064601,0.32137c0.106841,0.052738 0.204571,0.13926 0.247639,0.117836c0.043068,-0.021425 0,-0.191998 -0.053006,-0.214247c-0.053835,-0.021425 -0.022362,-0.096411 -0.043068,-0.13926c-0.021534,-0.042025 0.064601,-0.042025 0.096902,0.032137c0.032301,0.074986 0.118436,0.214247 0.172271,0.214247c0.053006,0 0.172271,0.128548 0.139142,0.203535c-0.032301,0.074986 0.032301,0.18211 0.129203,0.18211c0.096074,0 0.215338,0.149973 0.258406,0.160685c0.043068,0.010712 0.096902,0.064274 0.096902,0.096411c0,0.032961 0.053835,0.214247 0.053835,0.289233c0,0.074162 -0.033129,0.374108 -0.043896,0.491944s0.086135,0.32137 0.193804,0.428494c0.106841,0.107123 0.203743,0.310658 0.268344,0.353507c0.06543,0.042849 0.107669,0.160685 0.204571,0.149973c0.096902,-0.010712 0.161504,0.064274 0.247639,0.214247c0.086135,0.149973 0.172271,0.395533 0.236872,0.416957c0.064601,0.021425 0.172271,0.096411 0.117608,0.149973c-0.053006,0.052738 -0.139142,0.171398 -0.042239,0.171398c0.096902,0 0.129203,-0.053562 0.204571,0.043673c0.07454,0.095587 0.172271,0.149149 0.160675,0.214247c-0.010767,0.06345 0.086135,0.084875 0.129203,0.095587c0.043068,0.010712 0.13997,0.203535 0.236872,0.117836c0.096902,-0.085699 -0.128375,-0.213423 -0.193804,-0.268633c-0.064601,-0.052738 0,-0.170573 -0.150737,-0.288409c-0.150737,-0.117836 -0.129203,-0.203535 -0.236872,-0.289233c-0.107669,-0.085699 -0.192976,-0.160685 -0.086135,-0.235672c0.107669,-0.074986 0.118436,0.074986 0.161504,0.171398c0.043068,0.095587 0.268344,0.289233 0.365247,0.374108c0.096902,0.085699 0.270001,0.385644 0.323007,0.385644s0.204571,0.171398 0.204571,0.171398s0.085307,0.138436 0.053006,0.181286c-0.032301,0.042849 0.043896,0.203535 0.119264,0.246384c0.07454,0.042849 0.376842,0.181286 0.419909,0.203535c0.043068,0.022249 0.128375,0.18211 0.247639,0.18211c0.117608,0 0.204571,0.011536 0.236872,0.043673c0.032301,0.031313 0.128375,0.159861 0.193804,0.085699c0.064601,-0.07581 0.07454,-0.107947 0.172271,-0.107947c0.096902,0 0.139142,0.074986 0.192976,0.128548c0.053835,0.053562 0.204571,0.193646 0.27994,0.182934c0.075368,-0.010712 0.172271,0.085699 0.226105,0.052738s0.13997,0.020601 0.182209,0.042849c0.044724,0.021425 0.193804,0.097235 0.183866,0.224135c-0.010767,0.129372 0.085307,0.160685 0.150737,0.192822c0.064601,0.032137 0.150737,0.107123 0.205399,0.160685c0.053006,0.051914 0.170614,0.06345 0.203743,0.095587c0.032301,0.032137 0.053835,0.096411 0.150737,0.042849c0.096074,-0.052738 0.076197,-0.149149 0.076197,-0.149149s0.106841,-0.021425 0.160675,0.021425c0.053006,0.041201 0.086135,0.181286 0.119264,0.202711c0.031472,0.021425 0.095246,0.18211 0.052178,0.298298c-0.042239,0.119484 -0.031472,0.235672 -0.075368,0.235672c-0.043068,0 -0.096074,0.140084 -0.161504,0.172222c-0.062945,0.032137 -0.236044,0.18211 -0.225277,0.235672c0.010767,0.051914 0.108497,0.212599 0.086135,0.288409c-0.020706,0.074986 -0.160675,0.160685 -0.127546,0.278521c0.031472,0.11866 0.258406,0.150797 0.267516,0.257096c0.011595,0.107947 0.173099,0.343619 0.194633,0.449918c0.020706,0.107123 0.203743,0.224135 0.203743,0.373284c0,0.151621 0.258406,0.247208 0.31224,0.257096c0.052178,0.010712 0.150737,0.107947 0.225277,0.140084s0.13997,0.095587 0.192976,0.18211s0.043896,0.215071 0.043896,0.246384c0,0.032137 -0.032301,0.362572 -0.064601,0.555394c-0.033129,0.193646 0.041411,0.343619 -0.022362,0.398005zm-6.950453,-9.955064c0.032301,0.010712 0.096902,0.074986 0.129203,0.074986c0.033129,0 0.193804,0.128548 0.236872,0.171398c0.043896,0.042849 0.043896,0.160685 -0.010767,0.171398s-0.086135,-0.117836 -0.096902,-0.171398c-0.010767,-0.053562 -0.118436,-0.053562 -0.172271,-0.085699c-0.053835,-0.032137 -0.173927,-0.19035 -0.086135,-0.160685zm13.867777,4.303066c-0.119264,0.149973 -0.107669,0.224135 -0.161504,0.235672c-0.053006,0.010712 0.053835,0.053562 0.07454,0.159861c0.018221,0.092291 -0.053835,0.184582 0.052178,0.269457c-0.402517,3.806178 -3.07271,6.949839 -6.639041,8.064747c-0.005798,-0.009064 -0.015736,-0.020601 -0.017393,-0.028017c-0.022362,-0.064274 -0.022362,-0.191998 0.053006,-0.234848c0.075368,-0.043673 0.258406,-0.191998 0.300645,-0.224135c0.043068,-0.032961 0.107669,-0.18211 0.075368,-0.203535c-0.031472,-0.021425 -0.192148,0 -0.215338,-0.032137c-0.021534,-0.032137 -0.021534,-0.07581 0.086135,-0.149973c0.107669,-0.074986 0.161504,-0.182934 0.204571,-0.214247c0.043068,-0.032137 0.128375,-0.096411 0.161504,-0.172222c0.031472,-0.074162 -0.033957,-0.032137 -0.09773,-0.032137s-0.096902,-0.117012 -0.096902,-0.170573s0.161504,0.021425 0.280768,0.042849c0.118436,0.019777 0.063773,-0.053562 0.053006,-0.117012c-0.010767,-0.064274 0.021534,-0.172222 0.086963,-0.140084c0.062945,0.032137 0.396719,-0.010712 0.439787,-0.021425c0.043068,-0.010712 0.160675,-0.202711 0.203743,-0.257096c0.043896,-0.053562 0.053006,-0.106299 0,-0.138436c-0.053835,-0.032961 -0.118436,-0.151621 -0.139142,-0.18211c-0.021534,-0.033785 -0.032301,-0.225783 -0.010767,-0.280169c0.020706,-0.051914 0,0.310658 0.149908,0.354331c0.151565,0.042849 0.236872,0.064274 0.376842,-0.064274c0.13997,-0.127724 0.246811,-0.214247 0.258406,-0.299122c0.010767,-0.085699 0.043068,-0.172222 0.096902,-0.202711c0.053835,-0.032137 0.086135,0.084875 0.150737,-0.053562c0.064601,-0.140084 0.129203,-0.129372 0.193804,-0.246384c0.063773,-0.11866 -0.107669,-0.267809 0.019877,-0.354331c0.130031,-0.084875 0.356136,-0.191998 0.356136,-0.191998s0.064601,-0.032137 0.193804,-0.064274c0.128375,-0.031313 0.268344,-0.011536 0.311412,-0.074162c0.043068,-0.065098 0.086135,-0.203535 0.150737,-0.278521c0.06543,-0.07581 0.13997,-0.192822 0.107669,-0.246384c-0.032301,-0.053562 0.086135,-0.290057 0.075368,-0.353507c-0.010767,-0.064274 -0.107669,-0.215071 0.053835,-0.342795s0.332946,-0.322194 0.344541,-0.374108c0.009939,-0.053562 0.13997,-0.278521 0.127546,-0.386468c-0.009939,-0.106299 -0.127546,-0.234848 -0.202915,-0.267809c-0.076197,-0.030489 -0.236872,-0.041201 -0.301473,-0.1269s-0.247639,-0.171398 -0.31224,-0.149973c-0.063773,0.021425 -0.172271,0.042025 -0.258406,-0.01236c-0.086135,-0.051914 -0.225277,-0.117836 -0.279111,-0.159861c-0.054663,-0.042025 -0.193804,-0.074162 -0.258406,-0.074162s-0.053835,-0.043673 -0.150737,0.084875c-0.096902,0.129372 0,0.172222 -0.172271,0.149973c-0.173099,-0.019777 0.020706,-0.031313 0.119264,-0.159861c0.095246,-0.127724 -0.011595,-0.203535 -0.119264,-0.170573c-0.107669,0.032137 -0.032301,0.096411 -0.204571,0.128548c-0.171442,0.031313 -0.171442,-0.07581 -0.063773,-0.096411c0.107669,-0.021425 0.300645,-0.117836 0.300645,-0.159861c0,-0.043673 -0.021534,-0.161509 -0.107669,-0.161509s-0.064601,-0.106299 -0.192976,-0.244736c-0.129203,-0.140084 -0.290706,-0.225783 -0.420738,-0.205183c-0.127546,0.021425 -0.225277,0.053562 -0.289878,-0.062626c-0.064601,-0.11866 -0.13997,-0.140084 -0.183866,-0.203535c-0.042239,-0.064274 -0.150737,0 -0.183037,-0.032137s-0.032301,-0.032137 -0.032301,-0.032137s-0.13997,0.032137 -0.063773,-0.064274c0.07454,-0.096411 0.106841,-0.278521 0.07454,-0.267809c-0.031472,0.010712 -0.086135,0.161509 -0.139142,0.150797c-0.053006,-0.010712 -0.011595,-0.032961 -0.119264,-0.096411c-0.107669,-0.064274 -0.279111,-0.010712 -0.279111,0.042849c0,0.053562 -0.053835,0.096411 -0.053835,0.096411s-0.032301,-0.031313 -0.064601,-0.096411c-0.032301,-0.064274 -0.183037,-0.074986 -0.258406,-0.010712c-0.07454,0.064274 -0.117608,-0.161509 -0.171442,-0.161509s-0.160675,0.053562 -0.215338,0.151621c-0.053006,0.095587 -0.031472,0.234848 -0.076197,0.224135c-0.041411,-0.010712 -0.052178,-0.191998 -0.041411,-0.257096c0.009939,-0.065098 0.128375,-0.171398 0.041411,-0.192822c-0.085307,-0.021425 -0.21451,0.107123 -0.267516,0.117836c-0.053835,0.010712 -0.161504,0.085699 -0.226105,0.172222c-0.063773,0.084875 -0.096074,0.138436 -0.161504,0.170573c-0.063773,0.032137 -0.159847,0 -0.138313,-0.032137c0.020706,-0.032137 -0.183866,-0.149149 -0.216166,-0.107123c-0.033129,0.042849 -0.128375,0.074986 -0.225277,0.11866c-0.096902,0.042849 -0.183866,-0.053562 -0.204571,-0.096411s-0.06543,-0.052738 -0.075368,-0.192822c-0.010767,-0.138436 0.022362,-0.289233 0.053835,-0.374108c0.031472,-0.085699 -0.161504,-0.257096 -0.236872,-0.247208c-0.075368,0.01236 -0.150737,0.086523 -0.225277,0.074986c-0.076197,-0.009888 -0.043068,-0.031313 -0.161504,-0.031313c-0.118436,0 -0.021534,-0.020601 0,-0.117836c0.020706,-0.095587 -0.043068,-0.224959 0.076197,-0.310658c0.117608,-0.085699 0.075368,-0.289233 0,-0.299122c-0.076197,-0.011536 -0.216166,0.032137 -0.31224,0.021425c-0.096074,-0.011536 -0.172271,0.074986 -0.13997,0.170573c0.032301,0.096411 -0.053835,0.160685 -0.086135,0.150797c-0.032301,-0.010712 -0.07454,-0.064274 -0.193804,0.021425c-0.117608,0.084875 -0.160675,0.052738 -0.279111,-0.042849c-0.118436,-0.097235 -0.247639,-0.192822 -0.269173,-0.342795c-0.021534,-0.149973 -0.033129,-0.299946 0.010767,-0.385644c0.042239,-0.085699 0.042239,-0.234848 -0.021534,-0.257096c-0.064601,-0.020601 0.07454,-0.127724 0.149908,-0.149149c0.076197,-0.021425 0.193804,-0.117836 0.215338,-0.160685c0.021534,-0.042849 0.129203,-0.032961 0.246811,-0.032961c0.118436,0 0.13997,0 0.258406,0.064274c0.118436,0.064274 0.13997,-0.032137 0.13997,-0.064274c0,-0.032137 0.043068,-0.096411 0.172271,-0.085699c0.129203,0.010712 0.311412,-0.042849 0.344541,-0.010712s0.096074,0.160685 0.160675,0.117836c0.06543,-0.042025 0.086135,-0.117836 0.108497,0.011536c0.020706,0.127724 0.07454,0.32137 0.172271,0.353507c0.096074,0.032137 0.043068,0.159861 0.139142,0.170573c0.095246,0.010712 0.140798,-0.202711 0.108497,-0.277697c-0.033129,-0.074162 -0.09773,-0.299122 -0.151565,-0.352683c-0.053006,-0.053562 -0.053006,-0.192822 0.053006,-0.235672c0.107669,-0.042849 0.366075,-0.257096 0.440615,-0.320546c0.076197,-0.065098 0.27994,-0.11866 0.216166,-0.204359c-0.064601,-0.085699 -0.086135,-0.138436 -0.086135,-0.203535s0.064601,-0.042849 0.096902,0s0.160675,-0.064274 0.128375,-0.117836c-0.031472,-0.052738 -0.021534,-0.127724 0.053835,-0.117836c0.075368,0.010712 0.096074,-0.053562 0.064601,-0.096411c-0.032301,-0.042849 0.075368,-0.096411 0.150737,-0.074986c0.076197,0.021425 0.269173,-0.010712 0.301473,-0.053562c0.031472,-0.042849 -0.064601,-0.085699 -0.064601,-0.171398c0,-0.085699 0.128375,-0.160685 0.204571,-0.171398c0.075368,-0.010712 0.171442,0 0.183037,-0.032137c0.009939,-0.032137 0.118436,-0.117836 0.128375,-0.042849c0.011595,0.074986 0,0.203535 0.086135,0.203535c0.086135,0 0.192148,-0.096411 0.225277,-0.106299c0.031472,-0.010712 0.236872,-0.053562 0.27994,-0.064274c0.043068,-0.010712 0.300645,-0.032137 0.269173,-0.107123c-0.032301,-0.074162 -0.064601,-0.149149 -0.09773,-0.181286c-0.032301,-0.032137 -0.063773,0.010712 -0.107669,0.064274c-0.042239,0.053562 -0.118436,0.053562 -0.139142,0.010712c-0.021534,-0.042025 0.009939,-0.170573 -0.064601,-0.128548c-0.076197,0.042849 -0.086135,0.085699 -0.130031,0.064274c-0.043068,-0.021425 -0.085307,-0.096411 -0.085307,-0.096411s0.106841,-0.052738 0.031472,-0.149973c-0.07454,-0.096411 -0.183037,-0.074986 -0.289878,-0.020601c-0.107669,0.052738 -0.09773,0.042025 -0.226105,0.074162s-0.193804,0.064274 -0.193804,0.064274s0.173099,-0.106299 0.247639,-0.171398c0.075368,-0.064274 0.173099,-0.096411 0.236872,-0.160685c0.064601,-0.064274 0.236044,0.032137 0.236044,0.032137s0.086963,-0.085699 0.086963,-0.032137s-0.022362,0.192822 0.042239,0.192822c0.06543,0 0.247639,-0.085699 0.173927,-0.107947c-0.077025,-0.021425 0.106841,0 0.181381,-0.053562c0.076197,-0.053562 0.160675,-0.053562 0.204571,-0.074162c0.043068,-0.021425 0.076197,-0.117836 0.150737,-0.117836c0.076197,0 0.107669,0.096411 0,0.160685s-0.118436,0.224959 -0.172271,0.267809c-0.053006,0.042849 -0.021534,0.096411 0.064601,0.085699c0.086135,-0.010712 0.160675,0.010712 0.236872,-0.010712s0.118436,0.021425 0.139142,0.053562c0.021534,0.032137 0.086135,-0.032137 0.086135,-0.032137s0.13997,-0.032137 0.183037,0.021425c0.043896,0.052738 0.076197,-0.032137 0.043896,-0.085699c-0.032301,-0.052738 -0.076197,-0.106299 -0.107669,-0.171398c-0.032301,-0.064274 -0.075368,-0.085699 -0.160675,-0.064274c-0.086135,0.021425 -0.107669,-0.021425 -0.161504,-0.052738c-0.053835,-0.032961 -0.09773,0.042849 -0.053835,-0.032961c0.043896,-0.074162 0.064601,-0.096411 0.096902,-0.160685c0.032301,-0.064274 0.173099,-0.18211 0.032301,-0.213423c-0.13997,-0.032961 -0.183866,-0.053562 -0.204571,-0.117836c-0.021534,-0.064274 -0.183037,-0.18211 -0.225277,-0.18211c-0.043896,0 -0.192976,0 -0.204571,-0.053562c-0.010767,-0.053562 -0.118436,-0.171398 -0.172271,-0.224959c-0.053006,-0.053562 -0.258406,-0.289233 -0.290706,-0.310658c-0.032301,-0.021425 -0.075368,-0.010712 -0.172271,0.117836c-0.096074,0.129372 -0.182209,0.150797 -0.258406,0.11866c-0.075368,-0.032137 -0.086135,-0.021425 -0.159847,-0.107123c-0.077025,-0.085699 0.07454,-0.096411 0.042239,-0.149973c-0.033129,-0.052738 -0.204571,-0.074986 -0.31224,-0.085699c-0.107669,-0.010712 -0.183037,-0.128548 -0.344541,-0.13926c-0.160675,-0.010712 -0.35448,0.021425 -0.408314,0.021425c-0.053006,0 -0.053006,0.074986 -0.07454,0.192822c-0.022362,0.117836 0.07454,0.149973 -0.022362,0.171398c-0.096074,0.021425 -0.13997,0.032137 -0.043068,0.074986c0.096902,0.042849 0.226105,0.214247 0.226105,0.214247s0,0.096411 -0.076197,0.149973c-0.07454,0.053562 -0.150737,0.107123 -0.192976,0.043673c-0.043896,-0.065098 -0.161504,-0.053562 -0.128375,0.010712c0.031472,0.064274 0.096074,0.096411 0.096074,0.160685c0,0.06345 0.096902,0.224135 0.032301,0.277697c-0.064601,0.053562 -0.139142,0.011536 -0.192976,0.021425s-0.108497,-0.085699 -0.064601,-0.107123c0.042239,-0.021425 -0.011595,-0.18211 -0.011595,-0.18211s-0.128375,0.18211 -0.118436,0.085699c0.011595,-0.096411 -0.053006,-0.107123 -0.053006,-0.18211c0,-0.074986 -0.06543,-0.107123 -0.160675,-0.085699c-0.09773,0.021425 -0.215338,-0.032961 -0.399204,-0.065098c-0.182209,-0.032137 -0.257578,-0.052738 -0.408314,-0.128548c-0.150737,-0.074986 -0.204571,-0.021425 -0.27994,-0.010712c-0.075368,0.010712 -0.043068,-0.149973 -0.13997,-0.170573c-0.096074,-0.022249 -0.149908,0.020601 -0.171442,-0.11866c-0.021534,-0.138436 0.032301,-0.171398 0.268344,-0.32137c0.236872,-0.149973 0.204571,-0.214247 0.387609,-0.235672c0.182209,-0.021425 0.269173,0.021425 0.269173,-0.032137s0.043068,-0.267809 0.043068,-0.160685s0.216995,0.113716 0.119264,0.188702c-0.096074,0.074986 -0.043068,0.085699 0.033129,0.085699c0.075368,0 0.21451,-0.074986 0.21451,-0.074986s0.172271,-0.074986 0.215338,-0.010712c0.043896,0.064274 0.043896,0.128548 0.119264,0.128548s0.236044,-0.085699 0.096074,-0.160685c-0.139142,-0.074986 -0.225277,-0.064274 -0.311412,-0.149973s-0.064601,-0.053562 -0.161504,-0.032137c-0.096074,0.021425 -0.096074,-0.032137 -0.129203,-0.032137s-0.086135,0.021425 -0.107669,-0.021425c-0.020706,-0.042849 0.011595,-0.053562 0.120092,-0.053562c0.106841,0 0.236044,0.032137 0.236044,0.032137s0.128375,-0.042849 0.160675,-0.053562c0.032301,-0.010712 0.204571,-0.032137 0.172271,-0.127724c-0.033129,-0.096411 -0.13997,-0.096411 -0.172271,-0.128548s0.064601,-0.074162 0.118436,-0.096411c0.053835,-0.021425 0.204571,0 0.204571,0s0.096902,0.010712 0.096902,-0.032137s-0.02319,-0.096411 0.042239,-0.064274s0,0.128548 0.096902,0.107123c0.096074,-0.021425 0.118436,0 0.171442,0.032137c0.053835,0.032137 -0.010767,0.160685 -0.063773,0.18211c-0.053835,0.020601 -0.13997,0.06345 -0.021534,0.074162c0.119264,0.011536 0.203743,0.011536 0.203743,0.011536s0.076197,-0.074986 0.108497,-0.13926c0.031472,-0.064274 0.086135,-0.021425 0.128375,0c0.043068,0.020601 0.204571,0.053562 0.053835,0.096411c-0.151565,0.042849 -0.183037,0.096411 -0.215338,0.149973c-0.031472,0.053562 -0.043896,0.085699 -0.183037,0.053562c-0.140798,-0.032137 -0.215338,-0.021425 -0.247639,0.032137c-0.032301,0.052738 -0.010767,0.224959 0.043896,0.203535c0.052178,-0.021425 0.106841,-0.021425 0.171442,-0.042849c0.064601,-0.021425 0.323007,0.021425 0.38678,0.010712c0.064601,-0.010712 0.173099,0.107123 0.205399,0.085699c0.032301,-0.021425 0.096902,0.042849 0.160675,0.085699c0.064601,0.042849 0.043068,-0.096411 0.160675,-0.010712c0.119264,0.085699 0.053835,0.085699 0.119264,0.085699c0.062945,0 0.203743,0.010712 0.203743,0.010712s0.011595,-0.106299 0.119264,-0.085699c0.107669,0.021425 0.202915,0.13926 0.192148,0.052738c-0.009939,-0.084875 0.010767,-0.149149 -0.07454,-0.213423c-0.086135,-0.064274 -0.225277,-0.107123 -0.247639,-0.13926c-0.021534,-0.032137 -0.043068,-0.074986 -0.010767,-0.096411c0.032301,-0.020601 0.183037,0.010712 0.268344,0.065098c0.086135,0.053562 0.161504,0.107123 0.226105,0.064274c0.063773,-0.042849 0.140798,-0.064274 0.172271,-0.096411c0.031472,-0.032961 0.107669,-0.128548 0.107669,-0.128548s-0.323835,-0.042025 -0.365247,-0.096411c-0.043896,-0.053562 -0.194633,-0.128548 -0.2377,-0.128548s-0.160675,0.074986 -0.203743,-0.032137s-0.043068,-0.235672 -0.086963,-0.246384c-0.041411,-0.010712 -0.49445,-0.074986 -0.558223,-0.107123c-0.064601,-0.032137 -0.323007,-0.107123 -0.419909,-0.160685s-0.236872,-0.128548 -0.322179,-0.128548c-0.086135,0 -0.441443,0.042849 -0.506045,0.032137c-0.064601,-0.010712 -0.258406,0.021425 -0.333774,0.032137c-0.075368,0.010712 0.096902,0.149973 -0.063773,0.18211c-0.161504,0.032137 -0.13997,0.053562 -0.107669,-0.107123c0.031472,-0.160685 -0.108497,-0.203535 -0.247639,-0.13926c-0.13997,0.064274 -0.366075,0.107123 -0.31224,0.18211c0.053835,0.074986 -0.009939,0.129372 0.096902,0.203535c0.107669,0.074986 0.151565,0.096411 0.289878,0.085699c0.140798,-0.010712 0.280768,0.020601 0.280768,0.020601s0,0.129372 -0.053006,0.149973c-0.053835,0.021425 -0.13997,0.021425 -0.162332,0.085699c-0.020706,0.064274 -0.128375,0.096411 -0.128375,0.064274s0.053835,-0.13926 -0.021534,-0.192822c-0.07454,-0.053562 -0.096902,-0.064274 -0.183037,-0.010712c-0.086135,0.053562 -0.096074,0.074986 -0.13997,-0.010712c-0.043068,-0.085699 -0.172271,-0.160685 -0.172271,-0.160685s-0.086135,-0.106299 -0.150737,-0.159861c-0.063773,-0.053562 -0.182209,-0.042849 -0.193804,0.010712c-0.010767,0.052738 0.021534,0.106299 0.064601,0.203535c0.043068,0.096411 0.086135,0.277697 0.010767,0.289233c-0.075368,0.010712 -0.086135,0.021425 -0.161504,0.042849c-0.075368,0.021425 -0.107669,-0.032137 -0.107669,-0.117836s-0.033129,-0.160685 -0.010767,-0.192822c0.021534,-0.032137 -0.086135,0.022249 -0.193804,0c-0.107669,-0.020601 -0.192976,0.042849 -0.086135,0.07581c0.107669,0.032137 0.130031,0.159861 0.032301,0.191998c-0.096902,0.032137 -0.462977,0 -0.581413,0s-0.289878,0.032137 -0.323007,-0.032137c-0.032301,-0.064274 0.09773,-0.106299 0.172271,-0.106299c0.075368,0 0.300645,0.009888 0.38678,-0.107123c0.086135,-0.117836 -0.107669,-0.13926 -0.192976,-0.13926c-0.086135,0 -0.151565,-0.032137 -0.247639,-0.127724c-0.09773,-0.096411 0.064601,-0.160685 0.043068,-0.203535c-0.021534,-0.042849 -0.129203,-0.011536 -0.225277,-0.011536c-0.096902,0 -0.247639,-0.074162 -0.247639,0.011536c0,0.085699 0.118436,0.331259 0.043068,0.277697c-0.075368,-0.052738 -0.064601,-0.128548 -0.118436,-0.192822c-0.053835,-0.064274 -0.139142,-0.053562 -0.247639,-0.042849c-0.106841,0.010712 -0.289878,0.042849 -0.343713,0.032137c-0.053006,-0.010712 -0.010767,-0.010712 -0.129203,-0.064274c-0.117608,-0.053562 -0.172271,-0.042849 -0.258406,-0.096411c-0.085307,-0.05521 -0.009939,-0.07581 -0.160675,-0.086523c-0.149908,-0.010712 -0.139142,0.074162 -0.289878,0.053562c-0.150737,-0.021425 -0.193804,0.010712 -0.344541,0c-0.150737,-0.010712 -0.225277,-0.021425 -0.247639,0.053562c-0.020706,0.074986 -0.064601,0.203535 -0.129203,0.203535c-0.063773,0 -0.13997,0.074986 0.064601,0.085699c0.204571,0.010712 0.086963,0.106299 0.269173,0.096411c0.183037,-0.010712 0.344541,-0.010712 0.387609,-0.096411c0.043068,-0.085699 0.075368,-0.085699 0.096902,-0.053562c0.020706,0.032137 0.182209,0.224135 0.182209,0.224135s0.108497,0.085699 0.151565,0.107123c0.042239,0.021425 -0.043068,0.117836 -0.129203,0.064274c-0.086135,-0.053562 -0.247639,-0.042025 -0.31224,-0.095587c-0.064601,-0.053562 -0.355308,-0.053562 -0.430676,-0.042849c-0.07454,0.010712 -0.204571,-0.032137 -0.247639,-0.032137c-0.042239,0 -0.183037,0.107123 -0.183037,0.107123s-0.053835,-0.086523 -0.085307,-0.129372c-0.032301,-0.042849 -0.086135,0.042849 -0.129203,0.053562c-0.043068,0.010712 -0.172271,-0.085699 -0.301473,-0.042849c-0.129203,0.042849 -0.086135,0.085699 -0.269173,0.074986s-0.225277,-0.042849 -0.289878,-0.032137c-0.06543,0.010712 -0.06543,0.010712 -0.06543,0.010712s0.010767,0.042849 -0.063773,0.085699c-0.075368,0.042849 -0.130031,0.096411 -0.183866,0.032137c-0.053006,-0.064274 -0.085307,-0.064274 -0.117608,-0.074986c-0.033129,-0.010712 -0.09773,-0.064274 -0.236872,-0.032961c-0.13997,0.032961 -0.355308,-0.042025 -0.397547,-0.042025c-0.033129,0 -0.259234,-0.01236 -0.406658,-0.027193c1.746724,-1.888669 4.243818,-3.081859 7.02168,-3.081859c1.76246,0 3.409797,0.485352 4.828544,1.316794c-0.096902,0.05933 -0.264203,0.049442 -0.321351,0.018953c-0.064601,-0.035433 -0.130859,-0.064274 -0.393406,-0.050266c-0.262547,0.014832 -0.550769,0.100531 -0.492793,0.18623c0.059632,0.085699 -0.117608,0.135964 -0.16316,0.093115c-0.045552,-0.042849 -0.255921,0.049442 -0.24267,0.135964c0.013252,0.085699 -0.032301,0.185406 -0.144939,0.163981c-0.110982,-0.022249 -0.189663,0.049442 -0.196289,0.120308c-0.005798,0.07169 -0.255921,0.121132 -0.27497,0.121132c-0.019877,0 -0.341228,-0.006592 -0.22362,0.078283c0.080338,0.056858 0.124234,0.022249 0.22362,0.042849c0.098559,0.021425 0.17724,0.178814 0.229418,0.200238c0.05135,0.021425 0.124234,0 0.156534,-0.042849c0.033129,-0.042849 0.078681,-0.192822 0.078681,-0.192822s0,0.142557 0.080338,0.171398c0.078681,0.028841 0.274142,-0.021425 0.327148,-0.014008c0.053006,0.006592 0.361934,0.050266 0.445584,0.092291c0.086135,0.042849 0.294848,0.07169 0.35448,0.163981c0.058804,0.093115 0.066258,0.414485 0.098559,0.449918c0.033129,0.035433 0.144111,-0.11454 0.169786,-0.149973c0.025675,-0.036257 0.163988,-0.014832 0.210369,0.034609c0.046381,0.050266 0.150737,0.171398 0.144939,0.221663c-0.008282,0.05109 -0.027331,0.128548 -0.066258,0.100531c-0.039755,-0.028017 -0.105184,-0.020601 -0.079509,-0.078283c0.026503,-0.056858 0.039755,-0.178814 -0.012423,-0.178814c-0.053006,0 -0.098559,0 -0.098559,0s-0.099387,-0.028841 -0.164817,0.078283s-0.012423,0.214247 0.033129,0.214247s0.152393,0 0.152393,0.028017c0,0.028841 -0.112638,0.11454 -0.106013,0.164805c0.007454,0.050266 0.091105,0.220839 0.119264,0.257096c0.025675,0.035433 0.16316,0.070866 0.202087,0.079107c0.040583,0.006592 -0.091933,0.014008 -0.057976,0.06345c0.033129,0.050266 0.084479,0.171398 0.156534,0.200238c0.072055,0.028841 0.275798,0.156565 0.300645,0.214247c0.026503,0.056858 0.183866,-0.042849 0.216995,-0.050266c0.033129,-0.006592 0.026503,0.149973 0.118436,0.157389c0.091105,0.006592 0.124234,-0.014832 0.202915,-0.079107s0.059632,-0.149973 0.06543,-0.214247c0.007454,-0.064274 0,-0.113716 0.086135,-0.093115c0.086135,0.021425 0.130859,-0.014832 0.124234,-0.085699c-0.006626,-0.07169 -0.078681,-0.157389 0.057976,-0.178814c0.138313,-0.021425 0.210369,-0.113716 0.295676,-0.113716c0.085307,0 0.322179,0.035433 0.347026,0c0.026503,-0.035433 0.138313,-0.200238 0.210369,-0.206831c0.055491,-0.005768 0.185522,-0.017305 0.318866,-0.034609c1.31025,1.55329 2.121081,3.530129 2.213842,5.689903c-0.09773,0.13102 -0.009939,0.251328 0.017393,0.336203c0.000828,0.024721 0.004141,0.047794 0.004141,0.072514c0,0.112068 -0.013252,0.221663 -0.017393,0.332907c-0.000828,0.001648 -0.000828,0.003296 -0.002485,0.004944zm-8.047021,-3.564738c-0.053006,0.010712 -0.13997,-0.042849 -0.13997,-0.117836s-0.075368,0.13926 -0.033129,0.203535c0.043896,0.064274 -0.086135,0.13926 -0.128375,0.13926s-0.075368,-0.095587 -0.064601,-0.191998c0.011595,-0.096411 -0.063773,-0.18211 -0.183037,-0.171398c-0.118436,0.011536 -0.172271,0.107123 -0.21451,0.13926c-0.043896,0.032137 -0.043896,0.213423 -0.033129,0.257096s0.010767,0.193646 -0.096074,0.18211c-0.09773,-0.010712 -0.076197,-0.191998 -0.06543,-0.257096c0.011595,-0.064274 -0.032301,-0.224959 0.011595,-0.309834c0.043896,-0.085699 0.171442,-0.117836 0.258406,-0.128548s0.268344,0.053562 0.300645,0.042849c0.033129,-0.011536 0.183866,-0.011536 0.258406,0c0.075368,0.009064 0.182209,0.201886 0.129203,0.212599zm0.192976,0.032137c0.033129,0.021425 0.257578,-0.032137 0.301473,0.021425c0.042239,0.053562 -0.044724,0.064274 -0.151565,0.107123c-0.106841,0.042849 -0.13997,0.032137 -0.183037,0.085699s-0.183037,0.074162 -0.247639,0.138436c-0.064601,0.065098 -0.179725,0.103003 -0.203743,0.053562c-0.033129,-0.064274 0.010767,-0.032137 0.020706,-0.064274c0.010767,-0.032137 0.202915,-0.106299 0.202915,-0.106299s0.22859,-0.257096 0.26089,-0.235672zm-0.860524,-0.374932c-0.031472,0.010712 -0.150737,-0.021425 -0.248467,-0.021425c-0.096074,0 -0.075368,-0.064274 -0.118436,-0.052738c-0.042239,0.010712 -0.139142,0.032137 -0.204571,0.064274c-0.064601,0.032137 -0.172271,0.024721 -0.172271,-0.032961c0,-0.085699 0.043068,-0.064274 0.183037,-0.117836c0.13997,-0.053562 0.291535,-0.203535 0.355308,-0.13926c0.064601,0.064274 0.183037,0.13926 0.258406,0.149973c0.076197,0.011536 -0.021534,0.13926 -0.053006,0.149973zm-1.100709,-3.321651c-0.06543,0.021425 -0.287394,0.11454 -0.26586,0.163981c0.008282,0.018953 0.064601,0.056858 0.157362,0.042849c0.093589,-0.014832 0.22859,-0.028841 0.294019,-0.035433c0.064601,-0.007416 0.078681,-0.11454 0.007454,-0.121132c-0.072055,-0.007416 -0.129203,-0.07169 -0.192976,-0.050266zm-0.795923,0.085699c-0.050522,0.021425 -0.201258,-0.035433 -0.27994,0.014832c-0.050522,0.031313 -0.021534,0.13514 0.057976,0.141733c0.078681,0.007416 0.21451,-0.049442 0.22859,-0.006592c0.014908,0.042849 0.064601,0.235672 0.193804,0.171398c0.129203,-0.064274 0.121749,-0.121132 0.157362,-0.128548c0.035614,-0.007416 -0.006626,-0.163981 -0.064601,-0.200238c-0.057147,-0.035433 -0.243498,-0.014008 -0.293191,0.007416zm-0.259234,-0.606483c0.01408,0.036257 -0.006626,0.064274 0.093589,0.078283c0.100215,0.014832 0.143283,0.028841 0.201258,0.028841c0.057147,0 0.034785,-0.093115 -0.014908,-0.156565c-0.050522,-0.064274 -0.035614,-0.056858 -0.164817,-0.093115c-0.129203,-0.035433 -0.258406,-0.035433 -0.344541,-0.028841c-0.086135,0.007416 -0.179725,-0.014008 -0.201258,0.085699c-0.010767,0.05109 0.057976,0.092291 0.144111,0.092291s0.272486,-0.042025 0.286565,-0.006592zm0.187179,0.392237c0.035614,0.078283 0.035614,0.042025 0.136657,0.050266c0.099387,0.007416 0.178068,-0.099707 0.185522,-0.13514c0.007454,-0.036257 -0.050522,-0.107123 -0.18635,-0.093115c-0.136657,0.014008 -0.552425,-0.021425 -0.609573,0.028017c-0.054663,0.047794 0,0.191998 -0.021534,0.206831c-0.021534,0.014008 0.007454,0.078283 0.063773,0.064274c0.057147,-0.014008 0.086135,-0.149973 0.130031,-0.149973c0.043068,0.000824 0.26586,-0.049442 0.301473,0.028841zm-1.349176,-0.292529c0.043068,0.035433 0.151565,0.006592 0.143283,-0.028841c-0.006626,-0.035433 0.043896,-0.178814 -0.042239,-0.185406c-0.086135,-0.006592 -0.207056,0.079107 -0.337087,0.121956c-0.083651,0.027193 -0.064601,0.107123 -0.007454,0.107123s0.201258,-0.050266 0.243498,-0.014832zm0.611229,0.128548c-0.072055,0.035433 -0.094417,0.056858 -0.158191,0.042849c-0.064601,-0.014008 -0.064601,-0.128548 -0.179725,-0.107123c-0.114295,0.021425 -0.135829,0.085699 -0.171442,0.11454s-0.115123,0.050266 -0.143283,0.035433c-0.02816,-0.014008 -0.193804,-0.106299 -0.193804,-0.106299s-0.344541,-0.014832 -0.358621,-0.057682c-0.01408,-0.042849 -0.071227,-0.113716 -0.229418,-0.099707s-0.430676,0.107123 -0.473744,0.107123c-0.043068,0 0.05135,0.085699 -0.007454,0.085699c-0.057147,0 -0.128375,-0.006592 -0.149908,0.056858c-0.014908,0.043673 0.064601,0.042849 0.156534,0.042849c0.092761,0 0.244326,0 0.287394,-0.021425c0.043068,-0.021425 0.258406,-0.07169 0.250952,-0.007416c-0.007454,0.065098 0.086135,0.163981 0.135829,0.149973c0.050522,-0.014008 0.151565,-0.107123 0.201258,-0.070866c0.050522,0.035433 0.057976,0.120308 0.107669,0.142557c0.050522,0.020601 0.187179,0.020601 0.25178,0c0.063773,-0.022249 0.243498,-0.022249 0.322179,-0.007416c0.078681,0.014832 0.308927,0.056858 0.330461,0.014832c0.021534,-0.043673 0.086135,-0.050266 0.092761,-0.093115s0.042239,-0.17799 0.042239,-0.17799s-0.042239,-0.079107 -0.113467,-0.043673zm3.631761,7.380805c-0.098559,0.017305 -0.075368,0.207655 0.043068,0.173046c0.118436,-0.034609 0.054663,-0.191174 -0.043068,-0.173046zm0.935893,-0.255448c-0.086135,-0.021425 -0.183037,0 -0.247639,0.010712c-0.064601,0.010712 -0.247639,0.171398 -0.247639,0.171398s0.118436,0.021425 0.192976,0.021425c0.076197,0 0.119264,0.042025 0.183037,0.074162c0.064601,0.032961 0.183037,-0.042849 0.225277,-0.042849c0.043896,0 0.09773,0.128548 0.108497,-0.010712c0.011595,-0.13926 -0.128375,-0.202711 -0.21451,-0.224135zm-2.997341,-6.939951c-0.035614,-0.085699 -0.21451,-0.11454 -0.25178,-0.028841c-0.031472,0.074986 0.287394,0.11454 0.25178,0.028841zm2.05151,6.415046c0.118436,-0.021425 0.053006,-0.11866 -0.043896,-0.107123c-0.09773,0.010712 -0.075368,0.128548 0.043896,0.107123zm1.430342,0.661693c-0.098559,0.018129 -0.076197,0.208479 0.042239,0.17387c0.119264,-0.034609 0.054663,-0.191174 -0.042239,-0.17387zm-1.302796,-0.318898c-0.07454,0.010712 -0.236044,-0.074162 -0.322179,-0.149973c-0.086135,-0.074986 -0.247639,-0.074986 -0.31224,-0.074986c-0.063773,0 -0.323007,0.074986 -0.323007,0.074986c-0.010767,0.107123 0.096902,0.074986 0.226105,0.074986s0.355308,-0.021425 0.396719,0.032137c0.043896,0.052738 0.236872,0.138436 0.291535,0.18211c0.053006,0.042849 0.225277,0.053562 0.236044,0.010712s-0.117608,-0.160685 -0.192976,-0.149973zm-1.282918,-6.836123c-0.107669,-0.007416 -0.244326,-0.007416 -0.330461,0c-0.086135,0.006592 -0.150737,-0.056858 -0.215338,-0.093115c-0.063773,-0.035433 -0.207884,-0.149973 -0.293191,-0.163981c-0.086135,-0.014008 -0.071227,-0.014008 -0.250952,-0.056858c-0.091105,-0.022249 -0.243498,-0.050266 -0.243498,-0.070866c0,-0.021425 -0.043068,0.099707 0.035614,0.135964c0.078681,0.035433 0.207884,0.099707 0.300645,0.13514c0.094417,0.035433 0.272486,0.042849 0.330461,0.11454c0.057147,0.070866 0.250952,0.128548 0.250952,0.128548l0.229418,0.021425c0,0 0.158191,-0.035433 0.323007,-0.021425c0.164817,0.014008 0.408314,0.035433 0.545799,0.028841c0.135,-0.006592 0.156534,-0.050266 0.172271,-0.078283c0.013252,-0.028841 -0.25178,-0.085699 -0.31721,-0.078283c-0.062945,0.004944 -0.430676,0.004944 -0.537517,-0.001648zm0.40086,1.641461c-0.02816,0.032137 0.130031,0.078283 0.158191,0.035433c0.02816,-0.042025 -0.084479,-0.113716 -0.158191,-0.035433zm0.482026,0.149149c0.071227,-0.028841 0.035614,-0.11454 -0.06543,-0.085699c-0.114295,0.032961 -0.007454,0.11454 0.06543,0.085699z" stroke-width="0" fill="#46673D"/>
 </g>
</svg>