<svg width="24" height="24" xmlns="http://www.w3.org/2000/svg">
 <!-- Created with Method Draw - http://github.com/duopixel/Method-Draw/ -->
 <g>
  <title>background</title>
  <rect fill="#fff" id="canvas_background" height="26" width="26" y="-1" x="-1"/>
  <g display="none" overflow="visible" y="0" x="0" height="100%" width="100%" id="canvasGrid">
   <rect fill="url(#gridpattern)" stroke-width="0" y="0" x="0" height="100%" width="100%"/>
  </g>
 </g>
 <g>
  <title>Layer 1</title>
  <path stroke="null" id="svg_20" d="m2.817183,4.104222c0,-0.171488 0.17709,-0.310393 0.395718,-0.310393c0.218629,0 0.395718,0.138905 0.395718,0.310393c0,0.171488 -0.177089,0.310393 -0.395718,0.310393c-0.218629,0 -0.395718,-0.138905 -0.395718,-0.310393zm1.330472,0.878611l0,-0.156758c0,-0.164932 -0.170363,-0.298657 -0.380755,-0.298657l-1.109223,0c-0.21027,0 -0.380755,0.133725 -0.380755,0.298657l0,0.156758c-0.000368,0.003558 -0.000613,0.007213 -0.000613,0.010915l0,0.902895c0,0.070156 0.072461,0.126993 0.161902,0.126993c0.089319,0 0.161963,-0.056837 0.161963,-0.126993l0,-0.889527l0.108568,0l0,1.016616l0.000797,0l0,1.436447c0,0.093381 0.096676,0.169259 0.215849,0.169259c0.119235,0 0.215849,-0.075782 0.215849,-0.169259l0,-1.436447l0.142408,0l0,1.436447c0,0.093381 0.096736,0.169259 0.215849,0.169259c0.119234,0 0.215849,-0.075782 0.215849,-0.169259l0,-1.436447l0.000674,0l0,-1.016616l0.108568,0l0,0.889479c0,0.070156 0.072644,0.127041 0.161963,0.127041c0.089443,0 0.161902,-0.056885 0.161902,-0.127041l0,-0.902895c-0.000061,-0.003751 -0.000429,-0.007309 -0.000797,-0.010867l0,0z" fill-opacity="null" stroke-opacity="null" fill="#529D94"/>
  <path stroke="null" id="svg_21" d="m17.882683,13.752696c0,-0.264992 0,-0.529984 0,-0.794978c0.963072,-0.005149 1.926143,-0.010297 2.889216,-0.015445c0,-0.250062 0,-0.500124 0,-0.750187c-0.760622,-0.010003 -1.521244,-0.020005 -2.281866,-0.030008c0.87014,-1.56039 1.74028,-3.12078 2.610422,-4.68117c0.375075,-0.065195 0.71263,0.344135 0.738559,0.840209c0.038893,2.074836 0.017318,4.151073 0.023366,6.226555c-1.326565,0 -2.653131,0 -3.979697,0c0.000001,-0.264991 0,-0.529984 0.000001,-0.794978l0,0zm-0.005419,-3.308546c-0.001941,-0.517629 -0.003882,-1.035259 -0.005823,-1.552888c-0.413385,0.708459 -0.779595,1.471451 -1.239356,2.127592c-0.407277,0.360136 -0.780681,-0.226397 -1.088958,-0.515784c-0.430966,-0.456398 -0.873306,-0.897759 -1.276923,-1.397039c-0.246763,-0.494662 0.164639,-1.197963 0.584397,-1.011127c0.376002,0.247632 0.676491,0.670069 1.016631,0.996268c0.202277,0.296705 0.444647,0.485736 0.585508,-0.004091c0.299508,-0.488457 0.539509,-1.056623 0.908475,-1.459766c0.371645,-0.276966 0.821782,-0.110529 1.227391,-0.161216c0.61906,0.00249 1.238484,-0.007354 1.857272,0.016117c-0.842217,1.513592 -1.693291,3.018787 -2.552937,4.514824c-0.014519,-0.517197 -0.011758,-1.035328 -0.015677,-1.552888l-0.000001,0zm1.399437,-3.521114c-0.504696,-0.110724 -0.891658,-0.744831 -0.888125,-1.422621c-0.177388,-0.010002 -0.354777,-0.020005 -0.532165,-0.030007c0.151722,-0.255064 0.303443,-0.510128 0.455165,-0.765191c0.756402,0 1.512805,0 2.269206,0c-0.002132,0.634038 0.059827,1.371269 -0.347714,1.826029c-0.242619,0.33115 -0.619249,0.456065 -0.956368,0.391792l0,0zm-1.260317,-3.049844c-0.098483,-0.232772 -0.448699,-0.655862 -0.025951,-0.538074c0.863391,-0.016499 1.7269,-0.008202 2.59035,-0.010247c0,0.350087 0,0.700175 0,1.050263c-0.769011,0 -1.538022,0 -2.307033,0c-0.085788,-0.167314 -0.171576,-0.334628 -0.257365,-0.501941l0,0z" fill-opacity="null" stroke-opacity="null" stroke-width="null" fill="#529D94"/>
  <rect stroke="#529D94" id="svg_22" height="8.282129" width="12.703301" y="3.016618" x="1.241963" stroke-width="0.2" fill="none"/>
  <text stroke="null" transform="matrix(1.0018306791990594,0,0,0.9035348573609666,-5.191189413732214,3.591492275507665) " xml:space="preserve" text-anchor="start" font-family="Helvetica, Arial, sans-serif" font-size="6" id="svg_23" y="18.153211" x="8.438111" fill-opacity="null" stroke-opacity="null" stroke-width="0" fill="#000000">IDcard</text>
  <rect stroke="#529D94" id="svg_24" height="0.199948" width="2.338018" y="4.61479" x="5.853829" stroke-width="0.2" fill="none"/>
  <rect stroke="#529D94" id="svg_25" height="0.199948" width="1.059481" y="6.212961" x="5.899491" stroke-width="0.2" fill="none"/>
  <rect stroke="#529D94" id="svg_26" height="0.24561" width="1.607425" y="6.121637" x="8.045607" stroke-width="0.2" fill="none"/>
  <rect stroke="#529D94" id="svg_27" height="0.119686" width="7.680477" y="8.193728" x="5.21456" stroke-width="0.2" fill="none"/>
  <rect stroke="#529D94" id="svg_28" height="0.028362" width="6.401939" y="9.517928" x="5.305885" stroke-width="0.2" fill="none"/>
 </g>
</svg>