<svg width="24" height="24" xmlns="http://www.w3.org/2000/svg">
 <!-- Created with Method Draw - http://github.com/duopixel/Method-Draw/ -->
 <g>
  <title>background</title>
  <rect fill="#fff" id="canvas_background" height="26" width="26" y="-1" x="-1"/>
  <g display="none" overflow="visible" y="0" x="0" height="100%" width="100%" id="canvasGrid">
   <rect fill="url(#gridpattern)" stroke-width="0" y="0" x="0" height="100%" width="100%"/>
  </g>
 </g>
 <g>
  <title>Layer 1</title>
  <rect stroke="null" transform="rotate(90 12.543803215026854,21.788467407226566) " id="svg_4" height="21.933415" width="0.906339" y="10.821761" x="12.090633" fill="#46673D"/>
  <path stroke="null" id="svg_5" d="m9.501565,13.227672c0.547743,-0.0029 1.095486,-0.005801 1.643229,-0.0087c0.003606,-0.458715 0.007212,-0.917431 0.010818,-1.376146c0.545126,0 1.090253,0 1.635379,0c0,-0.46153 0,-0.92306 0,-1.384589c0.559086,0 1.118172,0 1.677258,0c0,-0.450273 0,-0.900546 0,-1.350818c0.552183,0 1.104367,0 1.656551,0c0,-0.450273 0,-0.900546 0,-1.350818c0.821373,0 1.642746,0 2.46412,0c0,0.225136 0,0.450273 0,0.675409c-0.545282,0 -1.090562,0 -1.635845,0c0,0.455901 0,0.911802 0,1.367704c-0.552183,0 -1.104366,0 -1.656551,0c0,0.455901 0,0.911803 0,1.367704c-0.552184,0 -1.104367,0 -1.656551,0c0,0.455901 0,0.911803 0,1.367703c-0.559086,0 -1.118172,0 -1.677258,0c0,0.46153 0,0.92306 0,1.384589c-0.828276,0 -1.656551,0 -2.484826,0c0.036925,-0.223729 -0.062948,-0.476008 0.023675,-0.692036l0,0z" stroke-opacity="null" stroke-width="0.2" fill="#ff0000"/>
  <path stroke="null" transform="rotate(90 5.869959354400634,9.962026596069338) " id="svg_6" d="m2.003849,13.265183c0.467939,-0.004008 0.935879,-0.008019 1.403818,-0.012027c0.003081,-0.634107 0.006161,-1.268214 0.009242,-1.902319c0.465704,0 0.931408,0 1.397112,0c0,-0.637997 0,-1.275994 0,-1.913991c0.47763,0 0.955259,0 1.432889,0c0,-0.622435 0,-1.244871 0,-1.867308c0.471733,0 0.943466,0 1.415199,0c0,-0.622435 0,-1.244871 0,-1.867308c0.701703,0 1.403406,0 2.105109,0c0,0.311218 0,0.622436 0,0.933654c-0.465837,0 -0.931673,0 -1.39751,0c0,0.630217 0,1.260432 0,1.89065c-0.471732,0 -0.943466,0 -1.415199,0c0,0.630217 0,1.260432 0,1.890649c-0.471733,0 -0.943466,0 -1.415199,0c0,0.630217 0,1.260433 0,1.890648c-0.47763,0 -0.95526,0 -1.432889,0c0,0.637998 0,1.275995 0,1.913991c-0.7076,0 -1.415199,0 -2.122799,0c0.031545,-0.309273 -0.053777,-0.658011 0.020226,-0.956638l0,-0.000001z" stroke-opacity="null" stroke-width="0.2" fill="#ff0000"/>
  <path stroke="null" transform="rotate(90 20.94540405273438,12.227874755859377) " id="svg_7" d="m16.989384,14.57054c0.478821,-0.002843 0.957644,-0.005687 1.436465,-0.00853c0.003153,-0.449721 0.006305,-0.899443 0.009457,-1.349163c0.476534,0 0.953069,0 1.429604,0c0,-0.45248 0,-0.90496 0,-1.357441c0.488737,0 0.977474,0 1.466212,0c0,-0.441444 0,-0.882888 0,-1.324332c0.482704,0 0.965406,0 1.448111,0c0,-0.441443 0,-0.882888 0,-1.324332c0.718022,0 1.436043,0 2.154065,0c0,0.220722 0,0.441444 0,0.662166c-0.47667,0 -0.95334,0 -1.43001,0c0,0.446962 0,0.893923 0,1.340887c-0.482704,0 -0.965407,0 -1.448111,0c0,0.446962 0,0.893923 0,1.340886c-0.482704,0 -0.965407,0 -1.448111,0c0,0.446962 0,0.893924 0,1.340885c-0.488738,0 -0.977475,0 -1.466212,0c0,0.45248 0,0.90496 0,1.357441c-0.724056,0 -1.448111,0 -2.172166,0c0.032279,-0.219343 -0.055028,-0.466675 0.020696,-0.678467l0,-0.000001z" stroke-opacity="null" stroke-width="0.2" fill="#ff0000"/>
  <rect stroke="null" id="svg_3" height="20.785383" width="0.966762" y="1.093716" x="1.456251" fill="#46673D"/>
 </g>
</svg>