<svg width="24" height="24" xmlns="http://www.w3.org/2000/svg">
 <!-- Created with Method Draw - http://github.com/duopixel/Method-Draw/ -->
 <g>
  <title>background</title>
  <rect fill="#fff" id="canvas_background" height="26" width="26" y="-1" x="-1"/>
  <g display="none" overflow="visible" y="0" x="0" height="100%" width="100%" id="canvasGrid">
   <rect fill="url(#gridpattern)" stroke-width="0" y="0" x="0" height="100%" width="100%"/>
  </g>
 </g>
 <g>
  <title>Layer 1</title>
  <rect stroke="null" id="svg_3" height="20.785383" width="0.966762" y="1.093716" x="1.456251" fill="#46673D"/>
  <rect stroke="null" transform="rotate(90 12.543803215026854,21.788467407226566) " id="svg_4" height="21.933415" width="0.906339" y="10.821761" x="12.090633" fill="#46673D"/>
  <path stroke="null" stroke-dasharray="2,2" id="svg_5" d="m3.495764,19.214521c1.095486,-0.008956 2.190972,-0.017914 3.286458,-0.026869c0.007213,-1.416621 0.014424,-2.833243 0.021637,-4.249862c1.090253,0 2.180506,0 3.270759,0c0,-1.425313 0,-2.850625 0,-4.275937c1.118172,0 2.236344,0 3.354516,0c0,-1.390548 0,-2.781097 0,-4.171645c1.104367,0 2.208733,0 3.313101,0c0,-1.390548 0,-2.781097 0,-4.171645c1.642746,0 3.285493,0 4.928239,0c0,0.695274 0,1.390548 0,2.085822c-1.090565,0 -2.181125,0 -3.27169,0c0,1.40793 0,2.81586 0,4.223791c-1.104366,0 -2.208733,0 -3.313101,0c0,1.407931 0,2.815861 0,4.223791c-1.104368,0 -2.208733,0 -3.313101,0c0,1.40793 0,2.815861 0,4.223789c-1.118172,0 -2.236344,0 -3.354515,0c0,1.425313 0,2.850625 0,4.275936c-1.656552,0 -3.313102,0 -4.969653,0c0.07385,-0.690928 -0.125896,-1.470026 0.04735,-2.13717l0,-0.000001z" fill-opacity="null" stroke-opacity="null" stroke-width="0.2" fill="#46673D"/>
 </g>
</svg>