<svg width="24" height="24" xmlns="http://www.w3.org/2000/svg">
 <!-- Created with Method Draw - http://github.com/duopixel/Method-Draw/ -->
 <g>
  <title>background</title>
  <rect fill="#fff" id="canvas_background" height="26" width="26" y="-1" x="-1"/>
  <g display="none" overflow="visible" y="0" x="0" height="100%" width="100%" id="canvasGrid">
   <rect fill="url(#gridpattern)" stroke-width="0" y="0" x="0" height="100%" width="100%"/>
  </g>
 </g>
 <g>
  <title>Layer 1</title>
  <rect stroke="#619E73" id="svg_32" height="7.488575" width="7.123278" y="2.568648" x="0.858462" stroke-width="0.3" fill="none"/>
  <rect stroke="#619E73" id="svg_33" height="2.283102" width="6.712319" y="4.988737" x="1.041111" stroke-width="0.3" fill="none"/>
  <rect stroke="#619E73" id="svg_34" height="7.031954" width="2.054791" y="2.842621" x="3.506861" stroke-width="0.3" fill="none"/>
  <rect stroke="#619E73" id="svg_35" height="7.488575" width="7.123278" y="12.385987" x="0.858462" stroke-width="0.3" fill="none"/>
  <rect stroke="#619E73" id="svg_36" height="2.283102" width="6.712319" y="14.806075" x="1.041111" stroke-width="0.3" fill="none"/>
  <rect stroke="#619E73" id="svg_37" height="7.031954" width="2.054791" y="12.659959" x="3.506861" stroke-width="0.3" fill="none"/>
  <path transform="rotate(89.56781005859375 10.770550727844238,11.029065132141113) " id="svg_38" d="m6.907718,11.023913l3.862833,-2.141218l3.862833,2.141218l-1.931417,0l0,2.151521l-3.862833,0l0,-2.151521l-1.931417,0z" stroke-width="0.3" fill="#619E73"/>
  <rect stroke="#619E73" id="svg_39" height="13.42464" width="9.269394" y="4.486454" x="13.826482" stroke-width="0.3" fill="none"/>
  <rect stroke="#619E73" id="svg_40" height="2.283102" width="8.767111" y="7.271838" x="13.963468" stroke-width="0.3" fill="none"/>
  <rect stroke="#619E73" id="svg_41" height="12.968019" width="1.552509" y="4.714764" x="16.01826" stroke-width="0.3" fill="none"/>
  <rect stroke="#619E73" id="svg_42" height="12.968019" width="1.552509" y="4.714764" x="19.214602" stroke-width="0.3" fill="none"/>
  <rect stroke="#619E73" id="svg_43" height="2.283102" width="8.767111" y="12.385987" x="13.963468" stroke-width="0.3" fill="none"/>
 </g>
</svg>