<svg width="24" height="24" xmlns="http://www.w3.org/2000/svg">
 <!-- Created with Method Draw - http://github.com/duopixel/Method-Draw/ -->
 <g>
  <title>background</title>
  <rect fill="#fff" id="canvas_background" height="26" width="26" y="-1" x="-1"/>
  <g display="none" overflow="visible" y="0" x="0" height="100%" width="100%" id="canvasGrid">
   <rect fill="url(#gridpattern)" stroke-width="0" y="0" x="0" height="100%" width="100%"/>
  </g>
 </g>
 <g>
  <title>Layer 1</title>
  <path stroke="#529D94" id="svg_1" d="m18.723513,11.471058c-0.729358,-0.964296 -1.621676,-1.744995 -2.516735,-2.291124c-1.044392,0.559785 -2.316406,0.900653 -3.703148,0.900653c-1.389465,0 -2.663308,-0.341532 -3.705859,-0.900653c-0.895056,0.546129 -1.788286,1.326827 -2.519434,2.291124c-1.697251,2.238819 -1.883907,4.535277 -0.417958,5.130718c0.656514,0.268227 1.344859,0.068306 2.055998,-0.433176c-0.124743,0.508471 -0.197591,1.059588 -0.197591,1.636041c0,2.561033 1.359439,4.635576 3.0348,4.635576c1.009796,0 1.509676,-0.755388 1.750045,-1.911944c0.239482,1.156556 0.739358,1.911944 1.745494,1.911944c1.678114,0 3.037566,-2.074543 3.037566,-4.635576c0,-0.576454 -0.072872,-1.12757 -0.200326,-1.636041c0.712943,0.501482 1.400383,0.701403 2.058719,0.433176c1.465047,-0.595441 1.275634,-2.891899 -0.421569,-5.130718l-0.000001,0zm-6.221675,-2.264136c2.818992,0 5.105342,-1.673358 5.105342,-3.737571s-2.28635,-3.737576 -5.105342,-3.737576c-2.819951,0 -5.108107,1.673691 -5.108107,3.737576s2.288156,3.737571 5.108107,3.737571z" stroke-width="1.5" fill="none"/>
 </g>
</svg>