<svg width="24" height="24" xmlns="http://www.w3.org/2000/svg">
 <!-- Created with Method Draw - http://github.com/duopixel/Method-Draw/ -->
 <g>
  <title>background</title>
  <rect fill="#fff" id="canvas_background" height="26" width="26" y="-1" x="-1"/>
  <g display="none" overflow="visible" y="0" x="0" height="100%" width="100%" id="canvasGrid">
   <rect fill="url(#gridpattern)" stroke-width="0" y="0" x="0" height="100%" width="100%"/>
  </g>
 </g>
 <g>
  <title>Layer 1</title>
  <rect stroke="#7DD8B5" id="svg_1" height="4.616164" width="0.444931" y="2.904107" x="3.852193" stroke-width="1.5" fill="#fff"/>
  <rect stroke="#46673D" id="svg_2" height="4.67178" width="0.389315" y="9.800544" x="4.019042" stroke-width="1.5" fill="#000"/>
  <rect stroke="#805064" id="svg_3" height="3.392603" width="0.278082" y="16.919447" x="4.074659" stroke-width="1.5" fill="#000"/>
  <rect stroke="#7B572D" id="svg_4" height="9.121094" width="0.556165" y="2.904107" x="10.859865" stroke-width="1.5" fill="#000"/>
  <rect stroke="#426373" id="svg_5" height="5.561643" width="0.611782" y="14.583557" x="10.971097" stroke-width="1.5" fill="#000"/>
  <path stroke="#666666" id="svg_6" d="m9.20208,8.336055l-0.459374,-0.557867l0,0.620742l-0.824412,0c-0.144349,0.022675 -0.393572,-0.321607 -0.670673,-0.778444c-0.279037,-0.433342 -0.597936,-0.965024 -1.024925,-0.979249l-0.287274,0l0,0.98955l0.287274,0c0.209118,-0.012781 0.466974,0.332946 0.7415,0.779073c0.102328,0.155848 0.205539,0.327785 0.314903,0.483021c-0.109365,0.15544 -0.212453,0.327583 -0.314903,0.483434c-0.274526,0.444885 -0.532382,0.791436 -0.74123,0.778858l-0.287544,0l0,0.990994l0.287396,0c0.426081,-0.012568 0.745104,-0.545691 1.025048,-0.978416c0.277126,-0.456845 0.526227,-0.801328 0.670698,-0.779065l0.824142,0l0,0.620736l0.459374,-0.55724l0.459642,-0.55765l-0.459642,-0.558479l0,0z" stroke-width="1.5" fill="#000"/>
  <path stroke="#CE7975" id="svg_7" d="m6.909932,15.405352c0.048113,0.108382 0.095962,0.248941 0.145057,0.40773c0.007081,-0.024304 0.013764,-0.047864 0.020847,-0.072682c0.071058,-0.24895 0.151582,-0.530823 0.241815,-0.803574c0.014322,-0.044312 0.029362,-0.081546 0.04395,-0.123338c-0.067716,-0.189683 -0.142405,-0.371771 -0.232507,-0.528285c-0.139328,-0.245149 -0.32136,-0.415589 -0.523709,-0.41205l-0.876897,0l0,1.196382l0.877056,0c0.121955,0.005571 0.199272,0.099773 0.304386,0.335817l0,0zm1.900123,0.979088l0,0.748865c-0.128214,-0.000763 -0.340695,-0.000763 -0.400904,-0.000763c-0.177997,-0.009871 -0.294809,-0.145365 -0.416341,-0.381142c-0.05257,-0.103069 -0.102911,-0.23224 -0.152563,-0.376084c-0.037265,0.12485 -0.074823,0.253762 -0.113043,0.387724c-0.046443,0.162094 -0.094292,0.328737 -0.144209,0.492589c-0.012387,0.040269 -0.026285,0.081794 -0.039362,0.122579c0.202324,0.507258 0.482968,0.944621 0.862442,0.949944l0.40398,0l0,0.748866l0.488805,-0.672377l0.489629,-0.673906l-0.489629,-0.673144l-0.488805,-0.67315l0,0zm-0.817245,-0.933508c0.121531,-0.236285 0.238344,-0.371266 0.416341,-0.381147c0.060209,0 0.272689,0 0.400904,-0.000504l0,0.748879l0.488805,-0.672647l0.489629,-0.67315l-0.489629,-0.673666l-0.488805,-0.672635l0,0.74811l-0.40398,0c-0.457903,0.006594 -0.773587,0.64074 -0.979117,1.268801c-0.209406,0.634668 -0.36128,1.304021 -0.517025,1.653759c-0.105273,0.235271 -0.182431,0.330488 -0.304386,0.335811l-0.877056,0l0,1.196372l0.877056,0c0.202323,0.003547 0.384353,-0.166635 0.523682,-0.412291c0.140736,-0.24388 0.246432,-0.548041 0.341253,-0.854226c0.186487,-0.61668 0.341252,-1.256392 0.522329,-1.611465l0,0z" fill-opacity="null" fill="none"/>
  <rect stroke="#729C62" id="svg_8" height="18.019723" width="0.278083" y="2.570408" x="19.758494" stroke-width="1.5" fill="#529D94"/>
  <path id="svg_9" d="m14.4534,11.32114c0.080409,0.214739 0.160375,0.493228 0.242424,0.80784c0.011834,-0.048153 0.023003,-0.094834 0.034841,-0.144005c0.118754,-0.493247 0.253328,-1.051724 0.404129,-1.592128c0.023936,-0.087796 0.049071,-0.161568 0.073451,-0.244372c-0.113168,-0.375821 -0.237992,-0.736594 -0.388573,-1.046695c-0.23285,-0.485716 -0.537068,-0.823409 -0.875239,-0.816399l-1.465499,0l0,2.370402l1.465765,0c0.203815,0.011037 0.33303,0.19768 0.5087,0.665357l0,0zm3.175548,1.939875l0,1.483733c-0.214276,-0.001511 -0.56938,-0.001511 -0.670004,-0.001511c-0.297474,-0.019558 -0.492695,-0.288013 -0.695802,-0.755161c-0.087857,-0.204212 -0.171988,-0.46014 -0.254969,-0.745138c-0.062278,0.247367 -0.125046,0.50278 -0.188921,0.768201c-0.077618,0.321157 -0.157584,0.65133 -0.241008,0.975971c-0.020702,0.079785 -0.043928,0.16206 -0.065782,0.242868c0.338131,1.005035 0.807152,1.871585 1.441341,1.882133l0.675145,0l0,1.483735l0.816907,-1.332187l0.818284,-1.335217l-0.818284,-1.333707l-0.816907,-1.333719l0,-0.000001zm-1.365806,-1.849568c0.203107,-0.468154 0.398328,-0.735593 0.695802,-0.75517c0.100624,0 0.455728,0 0.670004,-0.000999l0,1.483761l0.816907,-1.332722l0.818284,-1.333719l-0.818284,-1.334741l-0.816907,-1.332698l0,1.482236l-0.675145,0c-0.765262,0.013065 -1.292844,1.269504 -1.636333,2.513887c-0.349966,1.257474 -0.603782,2.583669 -0.864069,3.276607c-0.175936,0.466145 -0.304885,0.654798 -0.5087,0.665345l-1.465765,0l0,2.370382l1.465765,0c0.338129,0.007027 0.642344,-0.330156 0.875194,-0.816876c0.235202,-0.483201 0.411845,-1.085838 0.570314,-1.692485c0.311664,-1.221834 0.570312,-2.489301 0.872933,-3.19281l0,-0.000001z" fill="#645A73"/>
 </g>
</svg>