<svg width="24" height="24" xmlns="http://www.w3.org/2000/svg">
 <!-- Created with Method Draw - http://github.com/duopixel/Method-Draw/ -->
 <g>
  <title>background</title>
  <rect fill="#fff" id="canvas_background" height="26" width="26" y="-1" x="-1"/>
  <g display="none" overflow="visible" y="0" x="0" height="100%" width="100%" id="canvasGrid">
   <rect fill="url(#gridpattern)" stroke-width="0" y="0" x="0" height="100%" width="100%"/>
  </g>
 </g>
 <g>
  <title>Layer 1</title>
  <path stroke="null" id="svg_20" d="m4.711774,3.813347c0,-0.767613 0.842256,-1.38938 1.882074,-1.38938c1.03982,0 1.882073,0.621767 1.882073,1.38938c0,0.767613 -0.842252,1.38938 -1.882073,1.38938c-1.03982,0 -1.882074,-0.621767 -1.882074,-1.38938zm6.327855,3.932833l0,-0.701677c0,-0.738267 -0.810263,-1.336845 -1.810909,-1.336845l-5.275573,0c-1.000067,0 -1.810908,0.598578 -1.810908,1.336845l0,0.701677c-0.001749,0.015927 -0.002916,0.032286 -0.002916,0.048859l0,4.04153c0,0.314033 0.344632,0.568444 0.770024,0.568444c0.424811,0 0.770314,-0.254412 0.770314,-0.568444l0,-3.981693l0.516361,0l0,4.550567l0.00379,0l0,6.429814c0,0.417991 0.459799,0.757637 1.0266,0.757637c0.567093,0 1.0266,-0.339215 1.0266,-0.757637l0,-6.429814l0.677305,0l0,6.429814c0,0.417991 0.460084,0.757637 1.026599,0.757637c0.567091,0 1.026598,-0.339215 1.026598,-0.757637l0,-6.429814l0.003207,0l0,-4.550567l0.516362,0l0,3.981477c0,0.314033 0.345502,0.56866 0.770314,0.56866c0.425398,0 0.770024,-0.254626 0.770024,-0.56866l0,-4.041529c-0.000289,-0.016788 -0.002041,-0.032717 -0.003791,-0.048644l0,0.000001z" fill-opacity="null" stroke-opacity="null" fill="#529D94"/>
  <path stroke="null" id="svg_29" d="m17.176678,5.575318c0.851989,0 1.543484,-0.615186 1.543484,-1.374106c0,-0.759347 -0.691495,-1.374958 -1.543484,-1.374958c-0.852709,0 -1.544441,0.615611 -1.544441,1.374958c0,0.75892 0.691494,1.374106 1.544441,1.374106zm4.328837,5.92614l-1.385142,-4.57354c-0.012916,-0.041523 -0.031097,-0.08113 -0.053099,-0.117756c-0.157388,-0.428437 -0.609214,-0.738691 -1.142845,-0.738691l-3.505788,0c-0.556353,0 -1.023491,0.336872 -1.161023,0.794056c-0.009329,0.020016 -0.016982,0.041098 -0.023918,0.062817l-1.360506,4.573327c-0.090654,0.299819 0.109308,0.607945 0.446563,0.68865c0.336779,0.080278 0.682887,-0.09774 0.77354,-0.397559l1.068455,-3.592523l0.44513,0l-1.939104,6.500014l1.827166,0l0,4.487511c0,0.345177 0.313814,0.624767 0.702018,0.624767c0.387247,0 0.701779,-0.279379 0.701779,-0.624767l0,-4.487511l0.558267,0l0,4.487511c0,0.345177 0.314293,0.624767 0.702498,0.624767c0.387246,0 0.701779,-0.279379 0.701779,-0.624767l0,-4.487511l1.826206,0l-1.946279,-6.500014l0.456851,0l1.088067,3.592523c0.090652,0.299819 0.436761,0.477838 0.773537,0.397559c0.336061,-0.080705 0.536022,-0.389042 0.445848,-0.688863l-0.000001,0z" stroke-opacity="null" stroke-width="null" fill="#FFA9A2"/>
 </g>
</svg>