<svg width="24" height="24" xmlns="http://www.w3.org/2000/svg" class="leaflet-zoom-animated">

 <g>
  <title>background</title>
  <rect fill="none" id="canvas_background" height="26" width="26" y="-1" x="-1"/>
 </g>
 <g>
  <title>Layer 1</title>
  <g id="svg_1">
   <path id="svg_2" d="m-589,-676l1,-7l-2,0l0,-2l5,-1l0,-5l18,-2l0,-4l4,-7l-1,-3l2,-2l1,-6l-5,1l-5,7l-13,6l-3,-1l-5,4l-5,-2l-3,1l-4,6l-8,1l-7,7l-5,-1l-12,6l0,-3l-3,0l0,4l-4,2l-7,10l-5,4l-4,-2l2,-10l-2,-1l3,-1l1,-4l0,-4l-2,-3l2,-5l10,-6l0,-7l2,-2l-1,-1l3,-4l1,-5l0,-13l-2,-9l-1,-2l-2,1l-3,-3l-1,-6l-6,3l-1,-1l2,-3l-3,-4l0,-4l-1,-2l-6,-3l3,-6l-3,-2l-1,1l1,-3l-3,-1l0,-2l2,0l1,-2l-1,-3l2,0l3,-3l1,-6l2,-1l-1,-3l14,-15l3,-9l4,-2l2,1l2,-3l6,1l13,-6l0,-4l3,-7l4,-4l2,1l2,-3l-1,-3l3,-2l1,-3l-2,-3l2,-3l2,0l0,-3l8,-9l2,-7l-1,-4l4,-5l-1,-1l2,-6l5,0l2,-2l-1,-5l3,-8l-2,0l2,-1l-2,-2l5,-1l-1,-1l3,-2l3,1l1,-2l6,0l8,-3l2,3l7,1l6,-7l-3,-3l1,-1l-5,1l2,-4l-3,-5l2,0l1,-2l4,4l0,-2l2,-1l-1,-3l2,-1l-2,0l-1,-3l2,1l-1,-2l2,-6l1,1l4,-2l-2,-1l2,0l4,3l0,5l8,10l2,-5l5,-3l12,-15l7,-6l0,-4l4,-2l2,-7l6,-2l0,-4l2,2l2,-3l-1,-4l5,-5l1,-3l6,2l10,-2l14,2l6,-2l24,1l11,-4l8,4l4,-2l9,-15l6,-18l3,-3l16,0l3,-3l0,-3l6,-5l-1,-3l4,-1l-1,-3l4,-9l10,-10l-1,2l16,14l4,-2l8,1l9,4l5,6l4,0l11,4l9,0l4,3l3,-4l6,2l4,9l2,1l6,-4l1,-8l3,-2l19,-3l17,3l8,8l4,16l14,12l3,15l4,2l6,-4l4,-6l3,-1l3,2l3,11l-6,23l-4,2l-11,-1l-16,2l-5,4l-2,4l-4,11l0,5l5,19l3,-1l1,2l-4,2l1,3l3,5l5,2l2,9l3,1l0,-3l5,0l1,-4l3,-1l2,1l-4,0l-2,7l1,1l9,-8l1,1l-3,2l2,1l-2,9l2,1l0,-5l4,0l3,3l5,0l-1,7l5,8l3,-2l18,-1l0,-2l-2,-1l1,-1l1,4l2,1l9,0l13,-5l3,5l6,-2l5,-8l3,-1l3,-5l4,-1l3,-3l-4,-1l5,-1l0,-2l-2,-1l1,-4l-6,-6l0,-5l11,-2l3,-6l15,-4l3,-3l7,-3l12,-10l1,-2l-5,-5l1,-5l7,-1l1,-4l-6,-2l-2,-4l20,-2l10,-9l9,1l8,-2l5,-5l5,0l10,-7l10,2l10,-2l1,2l5,0l1,6l4,4l3,0l5,7l13,-1l3,3l-2,4l2,6l-2,4l9,6l11,0l7,-2l1,-1l-2,-6l5,2l7,5l-7,0l3,8l6,4l0,3l3,4l11,6l1,-3l8,-5l2,0l2,3l10,1l23,-1l10,-4l0,-2l2,0l0,-4l3,1l2,-3l2,1l0,-5l2,3l5,0l-1,-2l4,1l-1,1l4,2l-1,3l-4,1l0,3l2,1l1,5l4,5l1,-4l2,0l1,-2l2,1l0,-2l6,2l1,6l17,1l6,-1l2,-2l2,3l7,2l12,-4l4,2l-1,-2l2,0l3,2l1,3l-4,4l-1,-2l-3,0l-8,6l0,2l3,-1l-5,7l1,2l-2,1l0,3l3,0l2,7l3,2l-4,4l-3,0l2,3l-1,2l-11,0l-2,4l0,9l-3,4l4,2l8,-3l4,1l-4,4l-1,5l2,2l-2,3l0,6l-4,5l-4,0l1,-4l-7,0l-1,1l3,5l2,0l-7,3l-3,-1l-1,3l-5,3l-1,-2l-1,2l-14,-3l-6,1l2,-4l-1,-5l-3,2l-5,-1l3,-8l-2,-1l-3,2l-1,3l-3,0l-4,7l-3,-14l-4,0l-3,3l-25,10l-1,6l-17,7l3,11l-6,-2l0,-4l-6,0l2,5l-5,1l2,-3l-4,0l-2,-4l-3,0l2,-3l10,-6l-6,1l-6,6l0,2l-11,5l-1,2l2,0l1,2l-2,3l-3,0l-2,-3l-7,2l-8,6l-2,-1l-4,3l-4,0l-11,7l-6,6l-10,-1l-4,-3l1,-3l-6,-2l-4,2l4,2l1,4l3,2l1,-1l8,4l-4,6l0,3l2,2l-3,5l-5,0l2,4l2,0l-6,5l1,2l-3,2l-3,-6l1,-3l-3,-2l1,-4l-2,-1l-9,1l1,3l-2,2l-2,-1l-5,7l1,3l5,5l-1,3l-10,0l0,7l3,0l1,3l-1,3l3,16l2,0l-3,3l-10,0l-2,3l-3,0l-1,-2l-1,2l-2,-1l0,3l-9,0l-7,6l-5,0l1,-1l-4,3l-6,-3l-4,2l6,-14l5,-7l-1,-3l-5,-6l-3,2l0,3l2,1l-1,2l-3,1l-3,-1l0,-2l-5,1l-1,-3l-4,1l-5,5l0,5l-2,2l-3,0l2,4l4,1l4,5l8,1l-1,5l-5,5l2,0l6,-5l1,2l-3,4l1,1l2,-3l1,1l2,-3l2,0l0,7l-6,1l-7,8l-1,4l-4,0l3,-7l3,-1l-1,-1l-6,6l-2,0l0,-2l0,2l-2,0l-3,4l-3,0l-2,2l-4,7l2,7l-5,11l-4,0l1,-3l-3,-1l1,-2l-5,-2l-1,1l-1,3l4,1l0,3l-5,6l2,6l-7,5l-3,-3l-2,1l0,-4l-2,1l-3,3l1,6l-2,1l-1,-2l-1,2l-2,-2l-1,-5l-4,0l-7,5l-6,22l-3,2l-2,5l0,3l2,1l-2,3l-4,2l-1,3l2,0l-2,1l0,4l-3,-4l-2,0l-10,10l-3,14l2,0l0,2l-2,0l-1,2l4,2l1,3l-2,0l-5,5l1,1l-3,0l-1,-2l-6,1l-2,-6l-6,-1l-3,3l-2,-1l-8,2l-4,7l-14,0l-7,2l-5,-1l-6,3l0,13l-7,11l-1,5l-4,0l2,3l-1,5l-5,0l0,4l-3,1l3,4l3,-1l3,3l-6,5l-4,0l-2,2l-5,-3l-2,2l-4,-2l-1,-3l-5,2l-3,-1l-2,3l-7,3l-1,2l2,6l-4,-1l-2,6l2,13l-3,4l-2,7l-3,3l-12,-1l-1,3l-8,0l0,4l-4,0l0,-2l-1,2l-1,-1l1,-11l-6,-5l1,-2l3,-1l3,-6l-14,-4l5,-7l-3,-3l1,-2l-10,-2l-1,2l-1,-2l-2,0l0,-2l-4,-1l-3,2l-4,-1l0,4l-15,-1l1,21l-15,-5l0,3l-3,5l-4,2l-2,-1l-2,5l-3,0l-1,-2l-10,1l0,-2l-3,-1l-5,-6l0,-2l-3,-1l0,-4l-5,-3l-5,3l1,1l-5,1l1,1l-2,3l-2,0l1,4l-2,1l1,3l-3,0l0,5l-2,-1l-8,3l-4,-14l2,-5l-6,-14l-3,1l-3,-3l0,-3l2,-2l-7,-11l-5,0l-4,-5l0,-3l3,0l-1,-5l-5,0l1,-3l5,-1l-7,0l0,-4l-8,-5l-5,0l-1,-7l0,7l-1,-7l-2,-1l1,6l-2,4l-13,-4l-6,0l-2,3l-7,2l-8,0l-3,2l-3,-1l-6,8l-1,15l-4,1l-1,5l4,1l-2,7l-2,2l2,2l-7,6l-5,-1l-1,4l-4,5l-4,-4l-9,4l-5,-9l-9,2l-4,-4l-2,1l0,4l-2,1l-16,3l-1,-1l-2,2l-8,-5l-6,0l-1,-2l-1,5l-4,2l-6,-3l-8,1l-6,-2l-7,-9l0,-3l-2,-2l-1,-10l2,-1l-3,-10l-2,0l-2,-4l-10,-4l-6,0l-2,2l-2,-1l1,-9l-6,-1l2,-7l-8,0l-4,-7l-7,0l-5,5l-3,-3l-8,0l-3,3l-2,-3l-4,-2l1,-3l-2,0l-1,3l-4,-1l3,-4l-3,-1l0,-5l4,-1l3,-3l0,-2l-6,-6l3,-5l9,-2l0,-9l6,-2l-2,-2l7,-7l3,-9l5,0l2,-6l1,2l2,0l0,-2l0,3l2,-4l13,0l9,-9l7,-2l-2,-9l2,-1l0,-2l1,1l2,-3l1,1l3,-5l0,-3l9,-14l6,-3l7,0l14,-4l0,-5l2,0l0,-3l1,1l1,-3l1,1l0,-3l3,0l2,-3l6,1l6,-2l0,-2l1,2l1,-1z" class="leaflet-clickable" fill-opacity="0.2" fill="transparent" stroke="#333" fill-rule="evenodd" stroke-linecap="round" stroke-linejoin="round"/>
  </g>
  <g id="svg_3">
   <path id="svg_4" d="m223,-938l-2,-1l2,-2l4,3l-4,0z" class="leaflet-clickable" fill-opacity="0.2" fill="transparent" stroke="#333" fill-rule="evenodd" stroke-linecap="round" stroke-linejoin="round"/>
  </g>
  <g id="svg_5">
   <path id="svg_6" d="m232,-818l0,1l0,-1z" class="leaflet-clickable" fill-opacity="0.2" fill="transparent" stroke="#333" fill-rule="evenodd" stroke-linecap="round" stroke-linejoin="round"/>
  </g>
  <g id="svg_7">
   <path id="svg_8" d="m136,-947l-1,-1l3,-1l-2,2z" class="leaflet-clickable" fill-opacity="0.2" fill="transparent" stroke="#333" fill-rule="evenodd" stroke-linecap="round" stroke-linejoin="round"/>
  </g>
  <g id="svg_9">
   <path id="svg_10" d="m35,-1011l1,-2l2,1l2,5l-1,5l-2,-3l-3,-1l2,-1l-2,-4l1,0z" class="leaflet-clickable" fill-opacity="0.2" fill="transparent" stroke="#333" fill-rule="evenodd" stroke-linecap="round" stroke-linejoin="round"/>
  </g>
  <g id="svg_11">
   <path id="svg_12" d="m31,-1017l-1,-2l4,1l2,4l-5,-2l0,-1z" class="leaflet-clickable" fill-opacity="0.2" fill="transparent" stroke="#333" fill-rule="evenodd" stroke-linecap="round" stroke-linejoin="round"/>
  </g>
  <g id="svg_13">
   <path id="svg_14" d="m26,-1017l0,3l-2,0l2,-3z" class="leaflet-clickable" fill-opacity="0.2" fill="transparent" stroke="#333" fill-rule="evenodd" stroke-linecap="round" stroke-linejoin="round"/>
  </g>
  <g id="svg_15">
   <path id="svg_16" d="m133,-815l2,0l-2,0z" class="leaflet-clickable" fill-opacity="0.2" fill="transparent" stroke="#333" fill-rule="evenodd" stroke-linecap="round" stroke-linejoin="round"/>
  </g>
  <g id="svg_17">
   <path id="svg_18" d="m0,-982l-2,-3l3,0l-1,3z" class="leaflet-clickable" fill-opacity="0.2" fill="transparent" stroke="#333" fill-rule="evenodd" stroke-linecap="round" stroke-linejoin="round"/>
  </g>
  <g id="svg_19">
   <path id="svg_20" d="m17,-713l1,1l-2,0l1,-1z" class="leaflet-clickable" fill-opacity="0.2" fill="transparent" stroke="#333" fill-rule="evenodd" stroke-linecap="round" stroke-linejoin="round"/>
  </g>
  <g id="svg_21">
   <path id="svg_22" d="m69,-764l-5,0l3,-2l2,2z" class="leaflet-clickable" fill-opacity="0.2" fill="transparent" stroke="#333" fill-rule="evenodd" stroke-linecap="round" stroke-linejoin="round"/>
  </g>
  <g id="svg_23">
   <path id="svg_24" d="m71,-776l-2,0l2,0z" class="leaflet-clickable" fill-opacity="0.2" fill="transparent" stroke="#333" fill-rule="evenodd" stroke-linecap="round" stroke-linejoin="round"/>
  </g>
  <g id="svg_25">
   <path id="svg_26" d="m54,-681l2,0l-2,1l0,-1z" class="leaflet-clickable" fill-opacity="0.2" fill="transparent" stroke="#333" fill-rule="evenodd" stroke-linecap="round" stroke-linejoin="round"/>
  </g>
  <g id="svg_27">
   <path id="svg_28" d="m29,-1008l0,-2l2,-1l-1,2l-1,1z" class="leaflet-clickable" fill-opacity="0.2" fill="transparent" stroke="#333" fill-rule="evenodd" stroke-linecap="round" stroke-linejoin="round"/>
  </g>
  <g id="svg_29">
   <path id="svg_30" d="m-93,-633l1,-1l0,2l-1,-1z" class="leaflet-clickable" fill-opacity="0.2" fill="transparent" stroke="#333" fill-rule="evenodd" stroke-linecap="round" stroke-linejoin="round"/>
  </g>
  <g id="svg_31">
   <path id="svg_32" d="m38,-1045l-2,-1l1,-7l2,4l4,3l-4,0l-1,1z" class="leaflet-clickable" fill-opacity="0.2" fill="transparent" stroke="#333" fill-rule="evenodd" stroke-linecap="round" stroke-linejoin="round"/>
  </g>
  <g id="svg_33">
   <path id="svg_34" d="m60,-1076l-2,-1l-1,-4l2,0l0,3l1,2z" class="leaflet-clickable" fill-opacity="0.2" fill="transparent" stroke="#333" fill-rule="evenodd" stroke-linecap="round" stroke-linejoin="round"/>
  </g>
  <g id="svg_35">
   <path id="svg_36" d="m-38,-660l2,-4l2,5l-2,3l-3,-2l1,-2z" class="leaflet-clickable" fill-opacity="0.2" fill="transparent" stroke="#333" fill-rule="evenodd" stroke-linecap="round" stroke-linejoin="round"/>
  </g>
  <g id="svg_37">
   <path id="svg_38" d="m50,-1075l0,-3l2,2l-2,1z" class="leaflet-clickable" fill-opacity="0.2" fill="transparent" stroke="#333" fill-rule="evenodd" stroke-linecap="round" stroke-linejoin="round"/>
  </g>
  <g id="svg_39">
   <path id="svg_40" d="m58,-1082l-1,-1l2,-3l2,2l-1,1l-2,1z" class="leaflet-clickable" fill-opacity="0.2" fill="transparent" stroke="#333" fill-rule="evenodd" stroke-linecap="round" stroke-linejoin="round"/>
  </g>
  <g id="svg_41">
   <path id="svg_42" d="m22,-1011l-4,-4l5,-2l0,5l-1,1z" class="leaflet-clickable" fill-opacity="0.2" fill="transparent" stroke="#333" fill-rule="evenodd" stroke-linecap="round" stroke-linejoin="round"/>
  </g>
  <g id="svg_43">
   <path id="svg_44" d="m45,-1066l-1,-1l3,-5l4,1l-5,4l-1,1z" class="leaflet-clickable" fill-opacity="0.2" fill="transparent" stroke="#333" fill-rule="evenodd" stroke-linecap="round" stroke-linejoin="round"/>
  </g>
  <g id="svg_45">
   <path id="svg_46" d="m150,-812l1,-2l-1,2z" class="leaflet-clickable" fill-opacity="0.2" fill="transparent" stroke="#333" fill-rule="evenodd" stroke-linecap="round" stroke-linejoin="round"/>
  </g>
  <g id="svg_47">
   <path id="svg_48" d="m63,-1023l-2,-3l3,2l-1,1z" class="leaflet-clickable" fill-opacity="0.2" fill="transparent" stroke="#333" fill-rule="evenodd" stroke-linecap="round" stroke-linejoin="round"/>
  </g>
  <g id="svg_49">
   <path id="svg_50" d="m41,-735l1,2l-2,-1l1,-1z" class="leaflet-clickable" fill-opacity="0.2" fill="transparent" stroke="#333" fill-rule="evenodd" stroke-linecap="round" stroke-linejoin="round"/>
  </g>
  <g id="svg_51">
   <path id="svg_52" d="m-82,-908l1,-1l-1,1z" class="leaflet-clickable" fill-opacity="0.2" fill="transparent" stroke="#333" fill-rule="evenodd" stroke-linecap="round" stroke-linejoin="round"/>
  </g>
  <g id="svg_53">
   <path id="svg_54" d="m120,-740l1,0l-1,0z" class="leaflet-clickable" fill-opacity="0.2" fill="transparent" stroke="#333" fill-rule="evenodd" stroke-linecap="round" stroke-linejoin="round"/>
  </g>
  <g id="svg_55">
   <path id="svg_56" d="m261,-930l1,0l-1,0z" class="leaflet-clickable" fill-opacity="0.2" fill="transparent" stroke="#333" fill-rule="evenodd" stroke-linecap="round" stroke-linejoin="round"/>
  </g>
  <g id="svg_57">
   <path id="svg_58" d="m25,-1042l-1,-1l2,0l-1,1z" class="leaflet-clickable" fill-opacity="0.2" fill="transparent" stroke="#333" fill-rule="evenodd" stroke-linecap="round" stroke-linejoin="round"/>
  </g>
  <g id="svg_59">
   <path id="svg_60" d="m54,-1024l0,0z" class="leaflet-clickable" fill-opacity="0.2" fill="transparent" stroke="#333" fill-rule="evenodd" stroke-linecap="round" stroke-linejoin="round"/>
  </g>
  <g id="svg_61">
   <path id="svg_62" d="m25,-1029l0,-1l0,1z" class="leaflet-clickable" fill-opacity="0.2" fill="transparent" stroke="#333" fill-rule="evenodd" stroke-linecap="round" stroke-linejoin="round"/>
  </g>
  <g id="svg_63">
   <path id="svg_64" d="m-638,-681l1,-1l1,2l-3,1l1,-2z" class="leaflet-clickable" fill-opacity="0.2" fill="transparent" stroke="#333" fill-rule="evenodd" stroke-linecap="round" stroke-linejoin="round"/>
  </g>
  <g id="svg_65">
   <path id="svg_66" stroke-dasharray="1,6" d="m-352,-809l-3,5l0,2l2,0l0,7l-3,1l3,1l0,3l-2,1l9,10l-4,1l3,1l0,8l4,2l6,-1l-1,4l3,1l4,6l0,3l1,-2l1,1l-1,3l1,-2l5,2l-3,4l2,7l6,1l-2,10l-5,0l-2,5l3,12l2,-1l1,2l-3,6l2,2l1,7l-2,0l-3,-4l-3,0l-3,2l-9,-1l-2,1l0,2l-3,1l0,-5l-2,-2l-2,1l-5,-4l-4,1l-7,-5l-4,1l-5,-6l-11,4l2,-5l-2,-1l1,-4l3,0l1,-2l-6,-5l2,-2l-1,-2l-3,-1l-2,2l-2,-2l0,-2l3,-1l0,-4l-3,0l-2,-8l1,-2l-5,-10l0,-12l-5,0l-3,-2l-1,4l-10,10l-2,5l-5,2l-1,2l-6,-2l-2,8l-6,3l0,2l-3,0l0,2l-4,2l-2,-3l-3,0l-1,-2l-5,3l-4,-8l-6,1l-5,-2l-11,6l-5,-4l-5,1l-4,6l-1,-2l-2,1l0,2l-4,-1l-7,6l7,8l-2,3l3,0l-1,2l2,-1l4,4l-3,2l0,3l-2,2l-8,1l-5,4l0,-4l-3,0l-3,-4l-3,1l-8,8l-4,-3l1,-9l-6,-10l3,-5l4,-3l0,-3l6,-8l13,-4l2,-3l5,0l2,-6l4,-2l2,-4l9,-3l-1,-7l-2,-1l1,-3l3,0l0,-2l-2,-1l3,-5l2,1l2,-6l4,-2l0,-3l8,-4l1,-3l2,-1l0,-5l3,-3l11,-6l-3,-5l0,-4l3,-1l0,-4l6,2l0,-4l2,1l2,-9l-1,-3l-5,-3l2,0l0,-4l-4,-1l-4,-6l2,0l2,-3l6,-3l-3,-2l0,-8l15,-3l0,-2l2,-1l0,-9l-3,0l0,-2l-2,-1l3,-6l-2,-1l1,-2l-4,-3l-2,-6l3,-6l-2,-3l3,-4l-1,-3l2,-3l9,0l0,-5l3,-2l10,0l5,-8l4,0l2,4l3,0l1,4l-4,1l3,3l-2,1l8,0l2,3l-1,5l7,6l-1,7l4,11l-2,2l1,1l-3,0l-1,2l5,9l2,10l-12,6l-3,-1l0,5l-3,2l0,2l6,4l2,6l2,1l11,-1l0,-2l4,0l1,2l2,-3l2,0l2,5l-4,2l5,3l2,5l-1,5l4,5l9,6l2,5l6,1l0,4l-3,3l0,1z" class="leaflet-clickable" fill-opacity="0.2" fill="transparent" stroke="#999" fill-rule="evenodd" stroke-linecap="round" stroke-linejoin="round"/>
  </g>
  <g id="svg_67">
   <path id="svg_68" d="m51,-795l4,1l1,4l3,2l1,-1l8,4l-4,6l0,3l2,2l-3,5l-5,0l2,4l2,0l-6,5l1,2l-3,2l-3,-6l1,-3l-3,-2l1,-4l-2,-1l-9,1l1,3l-2,2l-2,-1l-5,7l1,3l5,5l0,2l-10,0l-1,8l3,0l1,3l-1,3l3,16l2,0l-1,2l-5,0l-3,2l-4,-1l-2,3l-3,0l-1,-2l-1,2l-2,-1l0,3l-9,0l-7,6l-5,0l1,-1l-4,3l-6,-3l-4,2l6,-14l5,-7l-1,-3l-5,-6l-3,2l0,3l2,1l-1,2l-3,1l-3,-1l0,-2l-5,1l-1,-3l-4,1l-5,5l0,5l-2,2l-3,0l2,4l4,1l4,5l8,1l-1,5l-5,5l2,0l6,-5l1,2l-3,4l1,1l2,-3l1,1l2,-3l2,0l0,7l-6,1l-7,8l-1,4l-4,0l3,-7l3,-1l-1,-1l-6,6l-2,0l0,-2l0,2l-2,0l-3,4l-3,0l-2,2l-4,7l2,7l-5,11l-4,0l1,-3l-3,-1l1,-2l-5,-2l-1,1l-1,3l4,1l0,3l-5,6l2,6l-7,5l-3,-3l-2,1l0,-4l-5,4l1,6l-2,1l-1,-2l-1,2l-2,-2l-1,-5l-4,0l-7,5l-6,-3l-1,2l-2,-1l-2,2l-5,0l0,-3l-3,-2l2,-9l-2,-8l1,-1l10,4l2,-2l1,1l1,-1l-5,-5l0,-4l2,0l1,-6l4,-5l4,0l1,-3l4,2l3,-2l-3,-10l-2,1l-3,-14l4,-3l1,-3l-5,-3l-6,0l0,-4l3,-2l-1,-4l3,-8l7,0l3,3l6,-2l2,1l2,-2l0,-5l-2,-4l1,-4l6,-8l4,-1l2,-11l4,0l-2,-5l3,-5l1,1l7,-2l0,-9l-2,1l-6,-3l-2,4l-2,-4l-12,-3l-10,-5l-3,2l1,-3l-14,-10l-3,-8l-7,-6l-2,-8l1,-4l3,0l5,-9l0,-10l-2,-5l4,-11l8,4l5,-2l2,3l5,-1l0,-2l4,-1l2,2l14,1l5,-3l1,1l1,-2l7,4l2,-4l14,1l2,-3l4,-1l4,-14l3,2l3,-3l3,0l-1,2l5,2l1,5l2,-1l1,-4l4,2l2,-1l-1,-2l7,0l4,-2l3,-4l4,6l-2,10l2,2l5,-3l2,2l1,7l-2,2l-2,-2l-2,8l1,4l6,3l1,3l-6,2l0,3l2,1l-1,1l3,2l-1,5l-5,0l-3,6l1,3l5,2l0,6l4,1l0,2l2,1l-1,2l2,-1l2,3l0,3l-2,0l-1,5l1,4l8,-4l-1,-1l2,-1l0,-2l5,1l5,4l8,-3z" class="leaflet-clickable" fill-opacity="0.2" fill="transparent" stroke-dasharray="1,6" stroke="#999" fill-rule="evenodd" stroke-linecap="round" stroke-linejoin="round"/>
  </g>
  <g id="svg_69">
   <path id="svg_70" d="m17,-713l1,1l-2,0l1,-1z" class="leaflet-clickable" fill-opacity="0.2" fill="transparent" stroke-dasharray="1,6" stroke="#999" fill-rule="evenodd" stroke-linecap="round" stroke-linejoin="round"/>
  </g>
  <g id="svg_71">
   <path id="svg_72" d="m69,-764l-5,0l3,-2l2,2z" class="leaflet-clickable" fill-opacity="0.2" fill="transparent" stroke-dasharray="1,6" stroke="#999" fill-rule="evenodd" stroke-linecap="round" stroke-linejoin="round"/>
  </g>
  <g id="svg_73">
   <path id="svg_74" d="m71,-776l-2,0l2,0z" class="leaflet-clickable" fill-opacity="0.2" fill="transparent" stroke-dasharray="1,6" stroke="#999" fill-rule="evenodd" stroke-linecap="round" stroke-linejoin="round"/>
  </g>
  <g id="svg_75">
   <path id="svg_76" d="m54,-681l2,0l-2,1l0,-1z" class="leaflet-clickable" fill-opacity="0.2" fill="transparent" stroke-dasharray="1,6" stroke="#999" fill-rule="evenodd" stroke-linecap="round" stroke-linejoin="round"/>
  </g>
  <g id="svg_77">
   <path id="svg_78" d="m-93,-633l1,-1l0,2l-1,-1z" class="leaflet-clickable" fill-opacity="0.2" fill="transparent" stroke-dasharray="1,6" stroke="#999" fill-rule="evenodd" stroke-linecap="round" stroke-linejoin="round"/>
  </g>
  <g id="svg_79">
   <path id="svg_80" d="m-38,-660l2,-4l2,5l-2,3l-3,-2l1,-2z" class="leaflet-clickable" fill-opacity="0.2" fill="transparent" stroke-dasharray="1,6" stroke="#999" fill-rule="evenodd" stroke-linecap="round" stroke-linejoin="round"/>
  </g>
  <g id="svg_81">
   <path id="svg_82" d="m41,-735l1,2l-2,-1l1,-1z" class="leaflet-clickable" fill-opacity="0.2" fill="transparent" stroke-dasharray="1,6" stroke="#999" fill-rule="evenodd" stroke-linecap="round" stroke-linejoin="round"/>
  </g>
  <g id="svg_83">
   <path id="svg_84" d="m-352,-809l7,0l7,-11l1,2l2,0l0,-2l-5,-5l2,-10l6,0l5,-2l3,-5l3,-1l0,-2l-3,1l0,-3l-3,-3l-1,-5l-5,0l0,-7l-4,-1l1,-5l-13,0l-16,-4l-6,0l-1,-3l2,-1l-3,-2l-1,-3l5,-3l1,-6l4,-5l0,-3l4,-4l5,3l8,2l2,0l8,-6l5,1l2,2l6,-3l1,2l2,-1l4,2l1,3l-2,1l0,4l3,1l2,-1l0,-2l3,3l4,0l0,6l-2,1l0,4l2,3l-4,3l2,3l7,-3l2,2l1,4l2,0l0,3l-2,0l-1,3l4,7l4,1l0,2l4,0l3,-3l0,-3l3,-1l3,2l0,4l4,-1l0,2l2,1l1,-3l5,0l0,4l14,2l-3,6l1,4l-2,3l2,0l-3,2l-1,-2l0,3l-2,0l0,5l-11,7l-7,-2l0,4l-3,1l2,4l-3,0l-1,-2l-3,1l-1,2l2,1l-2,2l3,1l-3,0l-1,2l0,2l2,1l-2,-1l0,3l-2,1l2,3l-5,5l0,5l6,5l-2,0l0,6l3,4l-1,8l3,1l-2,3l5,8l4,1l-2,1l4,4l-1,8l1,1l4,-3l2,3l3,1l-2,6l2,5l2,1l1,6l5,-2l5,1l-1,10l2,1l1,-2l2,2l0,6l-6,-1l-1,2l3,3l2,6l-6,2l-6,-6l-3,0l-5,5l-12,5l-8,-7l2,-1l-4,-6l-9,-2l-6,6l-3,1l-2,6l-4,0l0,-4l-3,0l-2,2l-2,-4l0,-2l2,0l-1,-7l-2,-2l3,-6l-4,-3l-2,-10l1,-5l6,0l2,-9l-6,-2l-2,-7l3,-4l-3,-2l-2,0l-1,2l1,-3l-1,-1l-1,2l0,-3l-4,-6l-3,-1l1,-4l-5,1l-5,-2l0,-8l-3,-1l4,-1l-6,-6l0,-2l-3,-1l2,-5l-3,-1l3,-1l0,-7l-2,0l2,-6l1,-1z" class="leaflet-clickable" fill-opacity="0.2" fill="transparent" stroke-dasharray="1,6" stroke="#999" fill-rule="evenodd" stroke-linecap="round" stroke-linejoin="round"/>
  </g>
  <g id="svg_85">
   <path id="svg_86" d="m-394,-473l2,-7l-4,0l-1,-5l-2,0l-6,-10l-9,-2l0,-3l-2,0l-5,-6l-3,1l4,-6l-2,-2l-3,0l-4,-5l-2,-12l-8,2l-1,-2l-6,0l-3,-2l-3,-4l2,-5l-1,-2l-6,-4l0,-2l-3,0l2,-1l-1,-3l-5,-3l-5,-11l3,-1l2,2l6,-4l1,2l7,1l9,-7l10,0l2,-2l10,-2l3,-3l6,0l-1,-4l4,-2l2,1l0,2l1,-6l6,0l5,2l6,12l10,5l0,3l3,3l3,-1l2,2l4,7l11,9l0,4l5,1l-2,2l0,8l-4,6l4,7l2,0l1,3l7,4l-1,3l-3,2l3,5l4,1l0,12l-3,6l-2,-1l1,21l-15,-5l0,3l-3,5l-4,2l-2,-1l-2,5l-3,0l-1,-2l-10,1l0,-2l-3,-1l-5,-6l0,-2l-3,-1l0,-4l-1,-1z" class="leaflet-clickable" fill-opacity="0.2" fill="transparent" stroke-dasharray="1,6" stroke="#999" fill-rule="evenodd" stroke-linecap="round" stroke-linejoin="round"/>
  </g>
  <g id="svg_87">
   <path id="svg_88" d="m-284,-1044l11,4l9,0l4,3l3,-4l6,2l4,9l2,1l6,-4l1,-8l3,-2l19,-3l17,3l8,8l4,16l14,12l3,15l4,2l6,-4l4,-6l3,-1l3,2l2,4l1,7l-6,23l-4,2l-11,-1l-16,2l-5,4l-2,4l-4,11l0,5l5,19l3,-1l1,2l-4,2l1,3l3,5l4,1l-34,4l-12,8l-3,7l-3,3l1,2l1,-1l0,2l3,1l-1,9l-7,4l-7,0l0,4l-2,0l0,2l6,1l0,3l-2,0l1,1l-4,-1l0,10l-10,-3l-4,3l-7,-2l0,-3l-5,-1l-1,3l-2,-1l0,-2l-4,1l-1,-5l5,-5l2,-6l-1,-2l2,-3l-1,-4l5,-5l0,-5l-4,-7l3,-7l-7,-5l0,-8l-4,0l1,-1l-3,0l-2,-3l-1,2l-3,0l-1,-3l-7,4l-1,-3l-3,-1l4,-1l-2,-8l-4,0l2,-11l6,-8l-5,0l0,-2l-2,-1l4,-5l1,-6l5,-4l5,2l6,-1l4,-8l0,-3l2,0l1,-3l2,0l-2,-4l1,-3l2,0l-2,-4l1,-1l-2,0l1,-2l-2,0l1,-1l-2,-4l-2,1l-1,-2l-6,4l-3,-6l1,-2l-2,-9l-2,-1l2,0l0,-7l24,-4l1,-5l-25,3l0,-7l3,-4l-3,-2l1,-2l2,-3z" class="leaflet-clickable" fill-opacity="0.2" fill="transparent" stroke-dasharray="1,6" stroke="#999" fill-rule="evenodd" stroke-linecap="round" stroke-linejoin="round"/>
  </g>
  <g id="svg_89">
   <path id="svg_90" d="m-263,-1029l0,5l-24,4l0,-6l24,-3z" class="leaflet-clickable" fill-opacity="0.2" fill="transparent" stroke-dasharray="1,6" stroke="#999" fill-rule="evenodd" stroke-linecap="round" stroke-linejoin="round"/>
  </g>
  <g id="svg_91">
   <path id="svg_92" d="m-113,-878l13,-5l3,5l6,-2l5,-8l3,-1l3,-5l4,-1l3,-3l-4,-1l5,-1l0,-2l-2,-1l1,-4l-6,-6l0,-5l11,-2l3,-6l15,-4l3,-3l7,-3l12,-10l1,-2l-5,-5l1,-5l7,-1l1,-4l-6,-2l-2,-4l20,-2l10,-9l9,1l8,-2l5,-5l5,0l10,-7l10,2l10,-2l1,2l5,0l1,6l4,4l3,0l5,7l13,-1l3,3l-2,4l2,6l-2,4l9,6l11,0l7,-2l1,-1l-2,-6l5,2l7,5l-7,0l3,8l6,4l0,3l3,4l11,6l1,-3l8,-5l2,0l2,3l10,1l23,-1l1,3l-4,10l-4,4l0,5l-7,6l-2,-1l-3,9l-4,1l3,8l-2,3l2,1l-4,7l-5,0l0,-2l-2,-1l1,2l-3,3l-4,-4l-3,2l-3,-3l-1,6l-11,0l-6,-3l-3,4l-4,0l-6,-4l2,-1l-1,-1l-4,2l-2,-3l-3,1l-6,7l-6,4l0,7l-2,4l4,3l2,-1l1,5l4,5l5,1l1,3l7,-3l0,3l3,4l-4,2l1,4l6,8l5,0l4,3l-11,5l-1,2l2,0l1,2l-2,3l-3,0l-2,-3l-7,2l-8,6l-2,-1l-4,3l-4,0l-11,7l-6,6l-10,-1l-4,-3l1,-3l-6,-2l-12,6l-3,-3l-1,1l-1,-2l-5,-1l0,2l-2,1l1,1l-8,4l0,-9l2,0l-1,-6l-3,1l-1,-5l-4,-1l0,-5l-3,-1l-3,-5l3,-5l5,-1l1,-4l-3,-2l1,-2l-2,-4l6,-2l0,-3l-7,-3l-1,-4l2,-8l2,2l2,-2l0,-4l-1,-3l-2,-1l-5,2l-2,-2l2,-10l-4,-6l-7,6l-6,0l-1,3l-5,-2l-1,4l-2,1l-1,-5l-5,-2l1,-2l-3,0l-3,3l-3,-2l-4,14l-4,1l-2,3l-14,-1l-2,4l-7,-4l-1,2l-1,-1l-5,3l-14,-1l-2,-2l-4,1l0,2l-3,1l-2,0l-2,-3l-5,2l-2,-2l-6,-2l-1,1l1,-3l-7,-4l2,-5l-1,-2l1,-4z" class="leaflet-clickable" fill-opacity="0.2" fill="#099" stroke="#099" fill-rule="evenodd" stroke-linecap="round" stroke-linejoin="round"/>
  </g>
  <g id="svg_93">
   <path id="svg_94" d="m136,-947l-1,-1l3,-1l-2,2z" class="leaflet-clickable" fill-opacity="0.2" fill="#099" stroke="#099" fill-rule="evenodd" stroke-linecap="round" stroke-linejoin="round"/>
  </g>
  <g id="svg_95">
   <path id="svg_96" d="m35,-1011l1,-2l2,1l2,5l-1,5l-2,-3l-3,-1l2,-1l-2,-4l1,0z" class="leaflet-clickable" fill-opacity="0.2" fill="#099" stroke="#099" fill-rule="evenodd" stroke-linecap="round" stroke-linejoin="round"/>
  </g>
  <g id="svg_97">
   <path id="svg_98" d="m31,-1017l-1,-2l4,1l2,4l-5,-2l0,-1z" class="leaflet-clickable" fill-opacity="0.2" fill="#099" stroke="#099" fill-rule="evenodd" stroke-linecap="round" stroke-linejoin="round"/>
  </g>
  <g id="svg_99">
   <path id="svg_100" d="m26,-1017l0,3l-2,0l2,-3z" class="leaflet-clickable" fill-opacity="0.2" fill="#099" stroke="#099" fill-rule="evenodd" stroke-linecap="round" stroke-linejoin="round"/>
  </g>
  <g id="svg_101">
   <path id="svg_102" d="m0,-982l-2,-3l3,0l-1,3z" class="leaflet-clickable" fill-opacity="0.2" fill="#099" stroke="#099" fill-rule="evenodd" stroke-linecap="round" stroke-linejoin="round"/>
  </g>
  <g id="svg_103">
   <path id="svg_104" d="m29,-1008l0,-2l2,-1l-1,2l-1,1z" class="leaflet-clickable" fill-opacity="0.2" fill="#099" stroke="#099" fill-rule="evenodd" stroke-linecap="round" stroke-linejoin="round"/>
  </g>
  <g id="svg_105">
   <path id="svg_106" d="m38,-1045l-2,-1l1,-7l2,4l4,3l-4,0l-1,1z" class="leaflet-clickable" fill-opacity="0.2" fill="#099" stroke="#099" fill-rule="evenodd" stroke-linecap="round" stroke-linejoin="round"/>
  </g>
  <g id="svg_107">
   <path id="svg_108" d="m60,-1076l-2,-1l-1,-4l2,0l0,3l1,2z" class="leaflet-clickable" fill-opacity="0.2" fill="#099" stroke="#099" fill-rule="evenodd" stroke-linecap="round" stroke-linejoin="round"/>
  </g>
  <g id="svg_109">
   <path id="svg_110" d="m50,-1075l0,-3l2,2l-2,1z" class="leaflet-clickable" fill-opacity="0.2" fill="#099" stroke="#099" fill-rule="evenodd" stroke-linecap="round" stroke-linejoin="round"/>
  </g>
  <g id="svg_111">
   <path id="svg_112" d="m22,-1011l-4,-4l5,-2l0,5l-1,1z" class="leaflet-clickable" fill-opacity="0.2" fill="#099" stroke="#099" fill-rule="evenodd" stroke-linecap="round" stroke-linejoin="round"/>
  </g>
  <g id="svg_113">
   <path id="svg_114" d="m58,-1082l-1,-1l2,-3l2,2l-1,1l-2,1z" class="leaflet-clickable" fill-opacity="0.2" fill="#099" stroke="#099" fill-rule="evenodd" stroke-linecap="round" stroke-linejoin="round"/>
  </g>
  <g id="svg_115">
   <path id="svg_116" d="m45,-1066l-1,-1l3,-5l4,1l-5,4l-1,1z" class="leaflet-clickable" fill-opacity="0.2" fill="#099" stroke="#099" fill-rule="evenodd" stroke-linecap="round" stroke-linejoin="round"/>
  </g>
  <g id="svg_117">
   <path id="svg_118" d="m63,-1023l-2,-3l3,2l-1,1z" class="leaflet-clickable" fill-opacity="0.2" fill="#099" stroke="#099" fill-rule="evenodd" stroke-linecap="round" stroke-linejoin="round"/>
  </g>
  <g id="svg_119">
   <path id="svg_120" d="m-82,-908l1,-1l-1,1z" class="leaflet-clickable" fill-opacity="0.2" fill="#099" stroke="#099" fill-rule="evenodd" stroke-linecap="round" stroke-linejoin="round"/>
  </g>
  <g id="svg_121">
   <path id="svg_122" d="m120,-740l1,0l-1,0z" class="leaflet-clickable" fill-opacity="0.2" fill="#099" stroke="#099" fill-rule="evenodd" stroke-linecap="round" stroke-linejoin="round"/>
  </g>
  <g id="svg_123">
   <path id="svg_124" d="m25,-1042l-1,-1l2,0l-1,1z" class="leaflet-clickable" fill-opacity="0.2" fill="#099" stroke="#099" fill-rule="evenodd" stroke-linecap="round" stroke-linejoin="round"/>
  </g>
  <g id="svg_125">
   <path id="svg_126" d="m54,-1024l0,0z" class="leaflet-clickable" fill-opacity="0.2" fill="#099" stroke="#099" fill-rule="evenodd" stroke-linecap="round" stroke-linejoin="round"/>
  </g>
  <g id="svg_127">
   <path id="svg_128" d="m25,-1029l0,-1l0,1z" class="leaflet-clickable" fill-opacity="0.2" fill="#099" stroke="#099" fill-rule="evenodd" stroke-linecap="round" stroke-linejoin="round"/>
  </g>
  <g id="svg_129">
   <path id="svg_130" d="m-256,-849l1,-2l8,3l3,-1l-1,-9l5,0l0,-3l-6,-1l0,-2l2,0l0,-4l9,0l5,-3l1,-10l-3,-1l0,-2l-2,0l6,-11l12,-8l34,-4l3,10l3,1l0,-3l5,0l2,-5l4,1l-4,0l-2,7l1,1l9,-8l1,1l-3,2l2,1l-2,9l2,1l0,-5l4,0l3,3l5,0l-1,7l5,8l3,-2l18,-1l0,-2l-2,-1l1,-1l1,4l2,1l9,0l0,6l-2,5l7,4l-4,13l2,5l0,10l-4,9l-4,0l-1,4l2,8l7,6l3,8l14,10l-1,3l3,-2l10,5l12,2l1,5l3,-4l3,0l3,3l2,-1l0,9l-7,2l-1,-1l-3,5l2,5l-5,1l-1,10l-4,1l-4,5l-3,7l3,9l-3,2l-2,-1l-6,2l-3,-3l-6,0l-4,7l1,4l-3,3l0,4l5,0l6,3l-1,3l-4,3l3,14l2,-1l3,9l-3,3l-4,-2l-1,3l-4,0l-2,2l-3,5l0,4l-2,0l0,4l5,5l-1,1l-1,-1l-2,2l-9,-3l-5,-5l-1,-2l2,-1l-4,-5l-5,1l-7,5l0,-10l-2,-2l2,-2l-4,-6l-4,1l-2,-1l0,-2l-2,0l-8,5l-4,0l-2,-3l-2,2l-3,-2l6,-4l0,-7l-6,-1l-7,2l-2,-1l0,-2l-6,0l0,-6l1,-2l3,0l-1,-4l3,-4l-6,-4l-4,2l-4,-2l-2,-3l-3,2l1,1l-2,2l-4,1l-2,-3l0,-9l-3,-7l-9,0l-3,2l1,1l-3,5l1,1l-2,1l-1,-2l-4,0l-1,-3l-1,1l-2,-2l-4,0l-7,5l0,3l-8,4l3,0l-4,6l-2,-1l1,-9l-3,-2l-7,2l-1,-1l0,-5l-2,-1l-2,-5l2,-6l-3,-1l-2,-3l-4,3l-1,-1l1,-8l-4,-4l2,-1l-4,-1l-5,-8l2,-2l-3,-1l1,-9l-3,-4l0,-6l2,0l-4,-3l-2,-7l5,-5l-2,-3l2,-1l0,-3l2,1l-2,-3l1,-2l3,0l-3,-1l2,-2l-2,-1l1,-2l3,-1l1,2l2,0l-1,-4l3,-1l0,-4l7,2l5,-4l4,-1l2,-2l0,-5l2,0l0,-3l4,1l-2,-1l4,-13l-4,-1z" class="leaflet-clickable" fill-opacity="0.2" fill="transparent" stroke-dasharray="1,6" stroke="#999" fill-rule="evenodd" stroke-linecap="round" stroke-linejoin="round"/>
  </g>
  <g id="svg_131">
   <path id="svg_132" d="m-567,-695l2,2l-2,4l1,2l2,-1l2,6l5,2l2,-1l1,2l1,-3l3,0l5,4l0,-3l2,1l-1,5l6,9l4,0l-1,4l7,-4l10,1l4,-3l1,-4l6,0l1,-2l2,1l3,-9l4,0l4,-6l5,0l2,2l-2,5l-6,5l5,6l4,2l0,3l-3,6l-6,0l0,8l9,-3l7,4l3,-1l2,3l3,1l1,-4l7,4l8,-5l3,0l-1,-5l4,-3l2,-7l8,1l2,2l4,-2l1,2l4,1l-1,2l6,-2l11,2l6,-5l4,1l0,2l3,2l7,-1l3,5l5,2l2,4l5,0l-2,1l1,3l9,8l0,10l-2,2l-10,1l-1,1l1,2l2,0l0,2l-3,2l-3,-2l-4,8l-2,1l4,3l2,6l-1,4l-3,3l1,5l4,2l-2,4l-6,2l-2,-4l-5,-3l-6,0l-1,6l0,-2l-2,-1l-4,2l1,4l-6,0l-3,3l-10,2l-2,2l-10,0l-9,7l-6,-1l-2,-2l-6,4l-2,-2l-3,1l5,11l2,2l3,0l1,4l-2,1l3,0l0,2l6,4l1,2l-2,5l3,4l2,2l7,0l3,2l6,-2l2,12l4,5l3,0l2,2l-4,6l3,-1l5,6l2,0l0,3l4,0l1,2l6,2l1,4l5,4l1,5l4,0l-2,7l-4,-2l-5,3l1,1l-5,1l1,1l-2,3l-2,0l0,8l-3,0l0,5l-2,-1l-8,3l-4,-14l2,-5l-6,-14l-3,1l-3,-3l0,-3l2,-2l-7,-11l-5,0l-4,-5l0,-3l3,0l-1,-5l-5,0l1,-3l5,-1l-7,0l0,-4l-8,-5l-5,0l-1,-7l0,7l-1,-7l-2,-1l1,6l-2,4l-13,-4l-6,0l-2,3l-7,2l-8,0l-3,2l-3,-1l-6,8l-14,-4l-11,-6l-3,-4l-4,-1l0,-2l2,-1l-8,-9l0,-3l1,-2l3,0l1,-9l4,0l3,-5l2,-5l-1,-3l7,0l2,-8l-2,-4l-6,2l-1,-5l-2,-2l-1,-6l4,-3l-2,-16l-2,-1l0,-2l-2,2l1,3l-3,0l0,-4l-4,0l-2,-15l0,-2l2,-1l-2,-5l3,-3l-2,-6l-13,-13l-14,-9l-2,1l-3,-4l2,-10l-2,-4l5,-1l0,-5l18,-2l0,-2z" class="leaflet-clickable" fill-opacity="0.2" fill="transparent" stroke-dasharray="1,6" stroke="#999" fill-rule="evenodd" stroke-linecap="round" stroke-linejoin="round"/>
  </g>
  <g id="svg_133">
   <path id="svg_134" d="m-368,-639l-9,-8l-1,-3l2,-1l-5,0l-2,-4l-5,-2l-3,-5l-7,1l-3,-4l-4,-1l-6,5l-11,-2l-6,2l0,-3l-3,0l-1,-2l-4,2l-2,-2l-8,-1l-2,7l-4,3l1,4l-11,6l-4,-3l-1,1l-1,-2l-2,4l-3,0l-2,-4l-3,1l-7,-4l-8,3l-2,-1l1,-6l3,-2l3,1l3,-6l0,-3l-9,-7l1,-3l5,-3l2,-5l-2,-2l-5,0l-4,6l-4,0l-3,9l-8,2l-1,-1l-1,4l-4,3l-10,-1l-6,4l0,-4l-4,-1l-4,-4l-2,-4l1,-5l-2,-1l0,3l-1,-2l-6,-2l-2,3l-1,-2l-2,1l-5,-2l-2,-6l-2,1l-1,-2l2,-3l-2,-5l4,-7l-1,-3l2,-2l1,-6l4,-4l5,-2l0,-3l6,-1l2,0l6,10l-1,9l3,3l12,-9l3,4l3,0l0,4l5,-4l8,-1l2,-2l0,-3l3,-1l-2,-4l-4,0l1,-2l-3,0l2,-2l-7,-9l6,-6l5,1l0,-2l2,-1l1,2l4,-6l3,-1l7,4l13,-6l3,2l6,-1l4,8l5,-3l6,5l12,-9l3,-8l6,2l1,-2l4,-1l4,-8l4,-2l1,-3l4,-3l1,-4l8,2l0,12l5,9l-1,3l2,8l3,0l0,4l-3,1l0,2l2,2l2,-2l3,1l-1,4l6,5l-1,2l-3,0l-1,4l2,1l-2,4l11,-3l5,6l4,-1l7,5l4,-1l5,4l2,-1l2,2l0,5l3,-1l0,-2l2,-1l9,1l6,-2l3,4l1,6l6,-2l-1,2l2,4l-5,10l-10,-2l-7,9l2,2l0,3l-2,1l1,8l-7,1l-4,4l-6,-3l-5,3l-4,0l-4,5l-1,4l0,3z" class="leaflet-clickable" fill-opacity="0.2" fill="transparent" stroke-dasharray="1,6" stroke="#999" fill-rule="evenodd" stroke-linecap="round" stroke-linejoin="round"/>
  </g>
  <g id="svg_135">
   <path id="svg_136" stroke-dasharray="1,6" d="m189,-934l10,-4l0,-2l2,0l0,-4l3,1l2,-3l2,1l0,-5l2,3l5,0l-1,-2l4,1l-1,1l4,2l-1,3l-4,1l0,3l2,1l1,5l4,5l1,-4l2,0l1,-2l2,1l0,-2l6,2l1,6l6,1l11,0l6,-1l2,-2l2,3l7,2l12,-4l4,2l-1,-2l2,0l3,2l1,3l-4,4l-1,-2l-3,0l-8,6l0,2l3,-1l-5,7l1,2l-2,1l0,3l3,0l2,7l3,2l-1,2l-6,2l2,3l-1,2l-11,0l-2,4l0,9l-3,4l4,2l8,-3l4,1l-5,7l2,4l-2,3l0,6l-6,6l-2,-1l1,-4l-7,0l-1,1l3,5l2,0l-7,3l-3,-1l-1,3l-5,3l-1,-2l-1,2l-14,-3l-6,1l2,-4l-1,-5l-3,2l-5,-1l3,-8l-2,-1l-3,2l-1,3l-3,0l-2,2l-2,5l-3,-14l-4,0l-3,3l-25,10l-1,6l-17,7l3,11l-6,-2l0,-4l-6,0l2,5l-5,1l2,-3l-4,0l-2,-4l-3,0l2,-3l10,-6l-6,1l-6,6l0,2l-4,-3l-7,-1l-5,-9l0,-2l4,-2l-3,-3l0,-4l-7,3l-1,-3l-4,-1l-5,-5l-1,-5l-2,1l-4,-3l2,-3l0,-8l6,-4l6,-7l3,-1l2,3l2,0l1,-2l2,1l-2,1l6,4l4,0l3,-4l6,3l10,0l2,-2l0,-4l3,3l3,-2l2,3l4,-1l0,-3l2,1l0,2l5,0l4,-7l-3,-12l4,-1l3,-9l2,1l7,-6l0,-5l4,-4l4,-10l-1,-3z" class="leaflet-clickable" fill-opacity="0.2" fill="transparent" stroke="#999" fill-rule="evenodd" stroke-linecap="round" stroke-linejoin="round"/>
  </g>
  <g id="svg_137">
   <path id="svg_138" stroke-dasharray="1,6" d="m223,-938l-2,-1l2,-2l4,3l-4,0z" class="leaflet-clickable" fill-opacity="0.2" fill="transparent" stroke="#999" fill-rule="evenodd" stroke-linecap="round" stroke-linejoin="round"/>
  </g>
  <g id="svg_139">
   <path id="svg_140" stroke-dasharray="1,6" d="m232,-818l0,1l0,-1z" class="leaflet-clickable" fill-opacity="0.2" fill="transparent" stroke="#999" fill-rule="evenodd" stroke-linecap="round" stroke-linejoin="round"/>
  </g>
  <g id="svg_141">
   <path id="svg_142" stroke-dasharray="1,6" d="m133,-815l2,0l-2,0z" class="leaflet-clickable" fill-opacity="0.2" fill="transparent" stroke="#999" fill-rule="evenodd" stroke-linecap="round" stroke-linejoin="round"/>
  </g>
  <g id="svg_143">
   <path id="svg_144" stroke-dasharray="1,6" d="m150,-812l1,-2l-1,2z" class="leaflet-clickable" fill-opacity="0.2" fill="transparent" stroke="#999" fill-rule="evenodd" stroke-linecap="round" stroke-linejoin="round"/>
  </g>
  <g id="svg_145">
   <path id="svg_146" stroke-dasharray="1,6" d="m261,-930l1,0l-1,0z" class="leaflet-clickable" fill-opacity="0.2" fill="transparent" stroke="#999" fill-rule="evenodd" stroke-linecap="round" stroke-linejoin="round"/>
  </g>
  <g id="svg_147">
   <path id="svg_148" d="m-102,-632l-6,22l-3,2l-2,5l0,3l2,1l-2,3l-4,2l-1,3l2,0l-2,1l0,4l-3,-4l-2,0l-10,10l-3,14l2,0l0,2l-2,0l-1,2l4,2l1,3l-2,0l-5,5l1,1l-3,0l-1,-2l-6,1l-2,-6l-4,-1l-2,0l-3,3l-4,-5l-3,-1l1,-3l-5,-5l5,-3l2,-7l-1,-5l-3,-1l-2,-3l1,-2l-7,0l-3,-6l-9,-4l-2,1l0,5l-3,3l-4,0l-8,-5l1,-4l-2,0l-2,3l-9,-1l-1,2l-4,1l-5,-3l-9,2l-4,-8l5,-1l-1,-4l3,-2l6,1l5,-5l-5,-4l0,-3l5,-6l0,-9l7,-9l2,-6l-1,-2l-6,1l-6,-2l-1,-8l4,-9l3,-1l0,-4l3,-6l4,-1l1,-4l10,-3l1,-2l-3,-2l2,-3l11,-1l3,-4l3,2l-1,8l6,0l0,2l2,1l13,-2l0,7l-6,5l3,2l1,-2l3,3l4,0l8,-5l2,0l0,2l2,1l4,-1l4,6l-2,2l2,2l-1,10l8,-5l7,0l2,4l-2,1l5,6l-1,5l2,4l-2,8l3,3l0,3l5,0l5,-3l5,3l1,0z" class="leaflet-clickable" fill-opacity="0.2" fill="transparent" stroke-dasharray="1,6" stroke="#999" fill-rule="evenodd" stroke-linecap="round" stroke-linejoin="round"/>
  </g>
  <g id="svg_149">
   <path id="svg_150" d="m-161,-557l-8,2l-4,7l-14,0l-7,2l-5,-1l-6,3l0,13l-7,11l-1,5l-4,0l2,3l-1,5l-5,0l0,4l-3,1l3,4l3,-1l3,3l-6,5l-4,0l-2,2l-5,-3l-2,2l-4,-2l-1,-3l-5,2l-3,-1l-2,3l-7,3l-1,2l2,6l-4,-1l-2,6l2,13l-3,4l-2,7l-3,3l-12,-1l-1,3l-8,0l0,4l-4,0l0,-2l-1,2l0,-12l-6,-5l1,-2l3,-1l3,-6l-14,-4l5,-7l-3,-3l1,-2l-10,-2l-1,2l-1,-2l-2,0l0,-2l-4,-1l-3,2l-4,-1l0,4l-13,0l3,-10l0,-8l-4,-1l-3,-5l3,-2l1,-3l-7,-4l-7,-10l4,-6l0,-8l2,-2l-5,-1l0,-4l-11,-9l-5,-8l-3,0l-4,-3l0,-3l-10,-5l-1,-4l-2,-1l-1,-2l6,-2l2,-4l-5,-5l4,-9l-2,-6l-4,-3l2,-1l4,-8l3,2l2,-2l1,-2l-2,0l0,-3l10,-1l2,-2l-1,-8l2,-9l3,-5l5,0l5,-3l6,3l4,-4l7,-1l-1,-8l2,-1l0,-3l-2,-1l2,-4l5,-6l10,2l5,-9l-1,-3l4,0l2,-6l3,-1l2,-4l4,-2l9,2l4,6l-2,1l8,7l7,-4l1,1l9,-7l3,0l6,6l6,-2l-2,-6l-3,-3l1,-2l4,2l2,-1l-2,-8l3,-3l-3,-1l1,-2l6,-2l1,-3l7,-5l6,2l1,-1l3,4l1,-1l2,2l2,-1l-1,-3l3,-3l-1,-1l3,-2l9,0l1,5l2,2l0,9l2,2l4,0l2,-2l-1,-1l3,-1l6,4l4,-1l6,2l-3,5l1,4l-2,1l-4,-3l-3,4l-11,1l-2,3l3,2l-1,2l-10,3l-1,4l-4,1l0,3l-3,3l0,4l-3,1l-4,9l1,7l2,2l11,1l-2,7l-7,9l0,9l-5,6l0,3l5,4l-5,5l-5,-1l-4,2l0,3l2,1l-6,1l1,4l3,3l9,-1l5,3l4,-1l1,-2l9,1l4,-3l-1,4l7,3l1,2l4,0l3,-3l0,-5l2,-1l10,5l2,5l7,-1l-1,2l3,5l2,0l1,5l-2,7l-5,3l5,5l-1,3l4,2l1,3z" class="leaflet-clickable" fill-opacity="0.2" fill="transparent" stroke-dasharray="1,6" stroke="#999" fill-rule="evenodd" stroke-linecap="round" stroke-linejoin="round"/>
  </g>
  <g id="svg_151">
   <path id="svg_152" d="m-503,-763l-1,-3l-4,0l0,-3l-6,0l0,-5l-8,-7l2,-19l-1,-10l-3,-4l3,-5l-1,-5l-3,-1l4,-3l-1,-1l2,-6l2,-1l-2,-5l2,-2l3,0l-1,-4l3,-2l-1,-2l-2,1l-3,-4l-6,2l-4,-3l-1,2l-2,0l-2,-3l-7,-3l0,-3l-2,-1l-2,4l2,0l-3,3l1,2l-5,3l-2,7l-6,4l-26,0l-5,-4l-1,2l-2,0l0,-2l-3,-1l0,2l-5,-1l-2,2l-2,-4l4,-7l-2,-3l2,-3l2,0l0,-3l8,-9l2,-7l-1,-4l4,-5l-1,-1l2,-6l5,0l2,-2l-1,-5l3,-8l-2,0l2,-1l-2,-2l5,-1l-1,-1l3,-2l3,1l1,-2l6,0l8,-3l2,3l7,1l6,-7l-3,-3l1,-1l-5,1l2,-4l-3,-5l2,0l1,-2l4,4l0,-2l2,-1l-1,-3l2,-1l-2,0l-1,-3l2,1l-1,-2l2,-6l1,1l4,-2l-2,-1l7,4l-1,4l8,10l2,-5l5,-3l12,-15l7,-6l0,-4l4,-2l2,-7l6,-2l0,-4l2,2l2,-3l-1,-4l5,-5l1,-3l6,2l10,-2l11,2l9,-2l24,1l11,-4l8,4l4,-2l9,-15l4,-11l3,2l1,7l-1,2l-5,2l2,3l0,4l4,1l1,4l3,2l-2,4l-3,2l-2,6l-4,3l4,3l-1,2l2,1l-2,1l-1,4l-4,0l-3,5l-4,-2l-3,1l-2,-3l-5,5l-2,-1l0,-8l-1,4l-4,3l0,10l-4,4l-2,7l-4,0l-5,8l-12,1l-1,6l-10,1l0,5l-3,4l2,3l-3,3l0,3l2,6l4,3l-1,1l2,2l-3,6l2,1l0,2l3,0l0,9l-2,1l0,2l-15,3l0,8l3,2l-6,3l-2,3l-2,0l3,6l5,1l0,4l-2,0l5,3l0,12l-2,-1l-1,3l-7,1l1,2l-3,1l0,4l3,5l-11,6l-3,3l0,5l-2,1l-1,3l-8,4l0,3l-4,2l-2,6l-2,-1l-3,4l2,4l-3,0l-1,2l2,2l1,7l-3,2l-6,1z" class="leaflet-clickable" fill-opacity="0.2" fill="transparent" stroke-dasharray="1,6" stroke="#999" fill-rule="evenodd" stroke-linecap="round" stroke-linejoin="round"/>
  </g>
  <g id="svg_153">
   <path id="svg_154" d="m-603,-845l1,3l2,-2l5,1l0,-2l5,3l1,-2l5,4l11,1l6,-2l6,2l9,-5l2,-7l4,-1l1,-2l-1,-1l3,-4l-2,0l2,-4l2,1l0,3l7,2l2,4l2,0l1,-2l4,3l6,-2l3,4l2,-1l1,2l-3,2l-1,3l2,1l-3,0l-2,2l2,5l-3,3l0,5l-4,3l3,1l1,5l-3,5l3,4l1,10l-2,19l6,4l2,3l0,5l6,0l0,3l4,0l1,3l-2,4l-4,2l-2,6l-5,0l-2,3l-13,4l-6,8l0,3l-4,3l-3,5l-8,0l0,4l-5,2l-4,4l-5,1l-5,7l-13,6l-3,-1l-5,4l-5,-2l-3,1l-4,6l-8,1l-7,7l-5,-1l-12,6l0,-3l-3,0l0,4l-4,2l-7,10l-5,4l-4,-2l2,-10l-2,-1l3,-1l1,-4l0,-4l-2,-3l2,-5l10,-6l0,-7l2,-2l-1,-1l3,-4l1,-5l0,-13l-3,-11l-2,1l-3,-3l0,-5l-1,-1l-6,3l-1,-1l2,-3l-3,-4l0,-4l-1,-2l-6,-3l3,-6l-3,-2l-1,1l1,-3l-2,0l-1,-3l2,0l1,-2l-1,-3l2,0l3,-3l1,-6l2,-1l-1,-3l2,-3l1,1l6,-9l5,-4l3,-9l4,-2l2,1l2,-3l6,1l13,-6l0,-4l3,-7l4,-4l3,0l1,-2z" class="leaflet-clickable" fill-opacity="0.2" fill="transparent" stroke-dasharray="1,6" stroke="#999" fill-rule="evenodd" stroke-linecap="round" stroke-linejoin="round"/>
  </g>
  <g id="svg_155">
   <path id="svg_156" d="m-638,-681l1,-1l1,2l-3,1l1,-2z" class="leaflet-clickable" fill-opacity="0.2" fill="transparent" stroke-dasharray="1,6" stroke="#999" fill-rule="evenodd" stroke-linecap="round" stroke-linejoin="round"/>
  </g>
  <g id="svg_157">
   <path id="svg_158" d="m-410,-944l2,-7l4,-4l0,-10l4,-3l1,-4l1,9l4,-2l2,-3l2,3l2,-1l5,2l1,-3l6,-2l3,-5l-2,-1l0,-4l-3,-1l4,-2l1,-5l6,-7l-3,-3l0,-3l-5,-2l0,-4l-2,-3l5,-2l1,-2l-1,-7l-2,-2l1,-7l3,-3l16,0l3,-3l0,-3l6,-5l-1,-3l4,-1l-1,-3l4,-9l10,-10l-1,2l16,14l4,-2l8,1l9,4l5,6l4,0l-3,5l3,2l-3,4l1,15l-2,1l1,4l-2,0l2,3l2,7l-1,2l2,4l0,-2l1,3l6,-3l1,2l2,-1l2,4l-1,1l2,0l-1,2l2,0l-1,1l2,4l-2,0l-1,5l2,2l-2,0l-1,3l-2,0l0,3l-4,8l-5,1l-6,-2l-3,2l-3,5l0,3l-4,5l1,3l6,0l-5,6l-3,13l3,0l3,4l0,3l-4,2l3,1l1,3l7,-4l1,3l3,0l0,-2l3,3l6,1l0,8l7,5l0,3l-3,4l5,9l-1,3l-5,4l1,5l-2,3l1,2l-2,6l-5,4l-5,1l0,3l-2,0l-1,3l-4,0l0,-2l-4,-1l-1,-3l-2,-1l-1,-3l1,-3l2,0l0,-3l-2,0l-1,-4l-2,-2l-7,3l-2,-3l4,-3l-2,-3l0,-4l2,-1l-1,-1l2,-2l-1,-3l-4,0l0,-2l-3,-1l0,2l-4,0l0,-8l-4,-2l-2,2l-1,-3l-6,3l-2,-2l-5,-1l-8,6l-2,0l-8,-2l-5,-3l-2,1l-2,6l-4,5l-1,5l-2,3l-3,1l1,3l3,2l-2,1l1,3l22,4l13,0l-1,5l4,1l0,7l5,0l0,3l4,5l0,3l1,-2l2,1l0,2l-3,1l0,2l-3,3l-3,0l-2,2l-6,0l-2,10l5,5l0,2l-2,1l-1,-3l-7,11l-6,0l-1,-1l3,-3l0,-4l-6,-1l-2,-5l-9,-6l-4,-5l1,-5l-2,-5l-5,-3l4,-2l-2,-5l-2,0l-2,3l-1,-2l-4,0l0,2l-10,1l-3,-1l-2,-6l-6,-4l0,-2l3,-2l0,-5l3,1l10,-4l2,-4l-1,-6l-6,-10l1,-3l3,0l0,-3l1,1l0,-4l-4,-8l1,-7l-7,-6l1,-5l-2,-3l-8,0l2,-1l-3,-2l4,-2l0,-2l-1,-2l-3,0l-1,-3l-1,-1z" class="leaflet-clickable" fill-opacity="0.2" fill="transparent" stroke-dasharray="1,6" stroke="#999" fill-rule="evenodd" stroke-linecap="round" stroke-linejoin="round"/>
  </g>
  <g id="svg_159">
   <path id="svg_160" d="m-263,-1024l0,-5l1,5l-1,0z" class="leaflet-clickable" fill-opacity="0.2" fill="transparent" stroke-dasharray="1,6" stroke="#999" fill-rule="evenodd" stroke-linecap="round" stroke-linejoin="round"/>
  </g>
  <g id="svg_161">
   <path id="svg_162" d="m-589,-676l-1,5l2,4l3,-1l14,9l13,13l2,6l-3,3l2,4l-2,2l2,17l4,0l0,4l3,0l-1,-3l2,-2l0,2l2,0l2,17l-4,3l1,6l2,2l1,5l6,-2l2,4l-2,8l-4,-2l-1,2l-2,0l0,6l-4,7l-4,0l-1,8l-3,1l-1,5l8,8l-2,4l4,1l3,4l11,6l14,4l-1,15l-4,1l-1,5l4,1l-2,7l-2,2l2,2l-7,6l-5,-1l-1,4l-4,5l-4,-4l-9,4l-5,-9l-9,2l-4,-4l-2,1l0,4l-2,1l-16,3l-1,-1l-2,2l-8,-5l-6,0l-1,-2l-1,5l-2,2l-8,-3l-8,1l-6,-2l-7,-9l0,-3l-2,-2l-1,-10l2,-1l-3,-10l-2,0l-2,-4l-10,-4l-6,0l-2,2l-2,-1l1,-9l-6,-1l2,-7l-8,0l-4,-7l-7,0l-5,5l-3,-3l-8,0l-3,3l-2,-3l-4,-2l1,-3l-2,0l-1,3l-4,-1l3,-4l-3,-1l0,-5l4,-1l3,-3l0,-2l-6,-6l3,-5l9,-2l0,-9l6,-2l-2,-2l7,-7l3,-9l5,0l2,-6l1,2l2,0l0,-2l0,3l2,-4l13,0l9,-9l7,-2l-2,-9l2,-1l0,-2l1,1l2,-3l1,1l3,-5l0,-3l9,-14l6,-3l7,0l14,-4l0,-5l2,0l0,-3l1,1l1,-3l1,1l0,-3l3,0l2,-3l6,1l6,-2l0,-2l1,2l1,-1z" class="leaflet-clickable" fill-opacity="0.2" fill="transparent" stroke-dasharray="1,6" stroke="#999" fill-rule="evenodd" stroke-linecap="round" stroke-linejoin="round"/>
  </g>
  <g stroke="null" id="svg_328">
   <g stroke="null" transform="matrix(0.02105477672027101,0,0,0.021092263900498207,163.32545720429977,256.8443693290006) " id="svg_166">
    <path stroke="#46673D" id="svg_167" d="m-7556.263685,-11536.388439l1,-7l-2,0l0,-2l5,-1l0,-5l18,-2l0,-4l4,-7l-1,-3l2,-2l1,-6l-5,1l-5,7l-13,6l-3,-1l-5,4l-5,-2l-3,1l-4,6l-8,1l-7,7l-5,-1l-12,6l0,-3l-3,0l0,4l-4,2l-7,10l-5,4l-4,-2l2,-10l-2,-1l3,-1l1,-4l0,-4l-2,-3l2,-5l10,-6l0,-7l2,-2l-1,-1l3,-4l1,-5l0,-13l-2,-9l-1,-2l-2,1l-3,-3l-1,-6l-6,3l-1,-1l2,-3l-3,-4l0,-4l-1,-2l-6,-3l3,-6l-3,-2l-1,1l1,-3l-3,-1l0,-2l2,0l1,-2l-1,-3l2,0l3,-3l1,-6l2,-1l-1,-3l14,-15l3,-9l4,-2l2,1l2,-3l6,1l13,-6l0,-4l3,-7l4,-4l2,1l2,-3l-1,-3l3,-2l1,-3l-2,-3l2,-3l2,0l0,-3l8,-9l2,-7l-1,-4l4,-5l-1,-1l2,-6l5,0l2,-2l-1,-5l3,-8l-2,0l2,-1l-2,-2l5,-1l-1,-1l3,-2l3,1l1,-2l6,0l8,-3l2,3l7,1l6,-7l-3,-3l1,-1l-5,1l2,-4l-3,-5l2,0l1,-2l4,4l0,-2l2,-1l-1,-3l2,-1l-2,0l-1,-3l2,1l-1,-2l2,-6l1,1l4,-2l-2,-1l2,0l4,3l0,5l8,10l2,-5l5,-3l12,-15l7,-6l0,-4l4,-2l2,-7l6,-2l0,-4l2,2l2,-3l-1,-4l5,-5l1,-3l6,2l10,-2l14,2l6,-2l24,1l11,-4l8,4l4,-2l9,-15l6,-18l3,-3l16,0l3,-3l0,-3l6,-5l-1,-3l4,-1l-1,-3l4,-9l10,-10l-1,2l16,14l4,-2l8,1l9,4l5,6l4,0l11,4l9,0l4,3l3,-4l6,2l4,9l2,1l6,-4l1,-8l3,-2l19,-3l17,3l8,8l4,16l14,12l3,15l4,2l6,-4l4,-6l3,-1l3,2l3,11l-6,23l-4,2l-11,-1l-16,2l-5,4l-2,4l-4,11l0,5l5,19l3,-1l1,2l-4,2l1,3l3,5l5,2l2,9l3,1l0,-3l5,0l1,-4l3,-1l2,1l-4,0l-2,7l1,1l9,-8l1,1l-3,2l2,1l-2,9l2,1l0,-5l4,0l3,3l5,0l-1,7l5,8l3,-2l18,-1l0,-2l-2,-1l1,-1l1,4l2,1l9,0l13,-5l3,5l6,-2l5,-8l3,-1l3,-5l4,-1l3,-3l-4,-1l5,-1l0,-2l-2,-1l1,-4l-6,-6l0,-5l11,-2l3,-6l15,-4l3,-3l7,-3l12,-10l1,-2l-5,-5l1,-5l7,-1l1,-4l-6,-2l-2,-4l20,-2l10,-9l9,1l8,-2l5,-5l5,0l10,-7l10,2l10,-2l1,2l5,0l1,6l4,4l3,0l5,7l13,-1l3,3l-2,4l2,6l-2,4l9,6l11,0l7,-2l1,-1l-2,-6l5,2l7,5l-7,0l3,8l6,4l0,3l3,4l11,6l1,-3l8,-5l2,0l2,3l10,1l23,-1l10,-4l0,-2l2,0l0,-4l3,1l2,-3l2,1l0,-5l2,3l5,0l-1,-2l4,1l-1,1l4,2l-1,3l-4,1l0,3l2,1l1,5l4,5l1,-4l2,0l1,-2l2,1l0,-2l6,2l1,6l17,1l6,-1l2,-2l2,3l7,2l12,-4l4,2l-1,-2l2,0l3,2l1,3l-4,4l-1,-2l-3,0l-8,6l0,2l3,-1l-5,7l1,2l-2,1l0,3l3,0l2,7l3,2l-4,4l-3,0l2,3l-1,2l-11,0l-2,4l0,9l-3,4l4,2l8,-3l4,1l-4,4l-1,5l2,2l-2,3l0,6l-4,5l-4,0l1,-4l-7,0l-1,1l3,5l2,0l-7,3l-3,-1l-1,3l-5,3l-1,-2l-1,2l-14,-3l-6,1l2,-4l-1,-5l-3,2l-5,-1l3,-8l-2,-1l-3,2l-1,3l-3,0l-4,7l-3,-14l-4,0l-3,3l-25,10l-1,6l-17,7l3,11l-6,-2l0,-4l-6,0l2,5l-5,1l2,-3l-4,0l-2,-4l-3,0l2,-3l10,-6l-6,1l-6,6l0,2l-11,5l-1,2l2,0l1,2l-2,3l-3,0l-2,-3l-7,2l-8,6l-2,-1l-4,3l-4,0l-11,7l-6,6l-10,-1l-4,-3l1,-3l-6,-2l-4,2l4,2l1,4l3,2l1,-1l8,4l-4,6l0,3l2,2l-3,5l-5,0l2,4l2,0l-6,5l1,2l-3,2l-3,-6l1,-3l-3,-2l1,-4l-2,-1l-9,1l1,3l-2,2l-2,-1l-5,7l1,3l5,5l-1,3l-10,0l0,7l3,0l1,3l-1,3l3,16l2,0l-3,3l-10,0l-2,3l-3,0l-1,-2l-1,2l-2,-1l0,3l-9,0l-7,6l-5,0l1,-1l-4,3l-6,-3l-4,2l6,-14l5,-7l-1,-3l-5,-6l-3,2l0,3l2,1l-1,2l-3,1l-3,-1l0,-2l-5,1l-1,-3l-4,1l-5,5l0,5l-2,2l-3,0l2,4l4,1l4,5l8,1l-1,5l-5,5l2,0l6,-5l1,2l-3,4l1,1l2,-3l1,1l2,-3l2,0l0,7l-6,1l-7,8l-1,4l-4,0l3,-7l3,-1l-1,-1l-6,6l-2,0l0,-2l0,2l-2,0l-3,4l-3,0l-2,2l-4,7l2,7l-5,11l-4,0l1,-3l-3,-1l1,-2l-5,-2l-1,1l-1,3l4,1l0,3l-5,6l2,6l-7,5l-3,-3l-2,1l0,-4l-2,1l-3,3l1,6l-2,1l-1,-2l-1,2l-2,-2l-1,-5l-4,0l-7,5l-6,22l-3,2l-2,5l0,3l2,1l-2,3l-4,2l-1,3l2,0l-2,1l0,4l-3,-4l-2,0l-10,10l-3,14l2,0l0,2l-2,0l-1,2l4,2l1,3l-2,0l-5,5l1,1l-3,0l-1,-2l-6,1l-2,-6l-6,-1l-3,3l-2,-1l-8,2l-4,7l-14,0l-7,2l-5,-1l-6,3l0,13l-7,11l-1,5l-4,0l2,3l-1,5l-5,0l0,4l-3,1l3,4l3,-1l3,3l-6,5l-4,0l-2,2l-5,-3l-2,2l-4,-2l-1,-3l-5,2l-3,-1l-2,3l-7,3l-1,2l2,6l-4,-1l-2,6l2,13l-3,4l-2,7l-3,3l-12,-1l-1,3l-8,0l0,4l-4,0l0,-2l-1,2l-1,-1l1,-11l-6,-5l1,-2l3,-1l3,-6l-14,-4l5,-7l-3,-3l1,-2l-10,-2l-1,2l-1,-2l-2,0l0,-2l-4,-1l-3,2l-4,-1l0,4l-15,-1l1,21l-15,-5l0,3l-3,5l-4,2l-2,-1l-2,5l-3,0l-1,-2l-10,1l0,-2l-3,-1l-5,-6l0,-2l-3,-1l0,-4l-5,-3l-5,3l1,1l-5,1l1,1l-2,3l-2,0l1,4l-2,1l1,3l-3,0l0,5l-2,-1l-8,3l-4,-14l2,-5l-6,-14l-3,1l-3,-3l0,-3l2,-2l-7,-11l-5,0l-4,-5l0,-3l3,0l-1,-5l-5,0l1,-3l5,-1l-7,0l0,-4l-8,-5l-5,0l-1,-7l0,7l-1,-7l-2,-1l1,6l-2,4l-13,-4l-6,0l-2,3l-7,2l-8,0l-3,2l-3,-1l-6,8l-1,15l-4,1l-1,5l4,1l-2,7l-2,2l2,2l-7,6l-5,-1l-1,4l-4,5l-4,-4l-9,4l-5,-9l-9,2l-4,-4l-2,1l0,4l-2,1l-16,3l-1,-1l-2,2l-8,-5l-6,0l-1,-2l-1,5l-4,2l-6,-3l-8,1l-6,-2l-7,-9l0,-3l-2,-2l-1,-10l2,-1l-3,-10l-2,0l-2,-4l-10,-4l-6,0l-2,2l-2,-1l1,-9l-6,-1l2,-7l-8,0l-4,-7l-7,0l-5,5l-3,-3l-8,0l-3,3l-2,-3l-4,-2l1,-3l-2,0l-1,3l-4,-1l3,-4l-3,-1l0,-5l4,-1l3,-3l0,-2l-6,-6l3,-5l9,-2l0,-9l6,-2l-2,-2l7,-7l3,-9l5,0l2,-6l1,2l2,0l0,-2l0,3l2,-4l13,0l9,-9l7,-2l-2,-9l2,-1l0,-2l1,1l2,-3l1,1l3,-5l0,-3l9,-14l6,-3l7,0l14,-4l0,-5l2,0l0,-3l1,1l1,-3l1,1l0,-3l3,0l2,-3l6,1l6,-2l0,-2l1,2l1,-1z" class="leaflet-clickable" fill-opacity="0.2" fill="#ffffff" stroke-width="5" fill-rule="evenodd" stroke-linecap="round" stroke-linejoin="round"/>
   </g>
   <g stroke="null" transform="matrix(0.02105477672027101,0,0,0.021092263900498207,163.32545720429977,256.8443693290006) " id="svg_168">
    <path stroke="#46673D" id="svg_169" d="m-6744.263685,-11798.388439l-2,-1l2,-2l4,3l-4,0z" class="leaflet-clickable" fill-opacity="0.2" fill="#ffffff" stroke-width="5" fill-rule="evenodd" stroke-linecap="round" stroke-linejoin="round"/>
   </g>
   <g stroke="null" transform="matrix(0.02105477672027101,0,0,0.021092263900498207,163.32545720429977,256.8443693290006) " id="svg_170">
    <path stroke="#46673D" id="svg_171" d="m-6735.263685,-11678.388439l0,1l0,-1z" class="leaflet-clickable" fill-opacity="0.2" fill="#ffffff" stroke-width="5" fill-rule="evenodd" stroke-linecap="round" stroke-linejoin="round"/>
   </g>
   <g stroke="null" transform="matrix(0.02105477672027101,0,0,0.021092263900498207,163.32545720429977,256.8443693290006) " id="svg_172">
    <path stroke="#46673D" id="svg_173" d="m-6831.263685,-11807.388439l-1,-1l3,-1l-2,2z" class="leaflet-clickable" fill-opacity="0.2" fill="#ffffff" stroke-width="5" fill-rule="evenodd" stroke-linecap="round" stroke-linejoin="round"/>
   </g>
   <g stroke="null" transform="matrix(0.02105477672027101,0,0,0.021092263900498207,163.32545720429977,256.8443693290006) " id="svg_174">
    <path stroke="#46673D" id="svg_175" d="m-6932.263685,-11871.388439l1,-2l2,1l2,5l-1,5l-2,-3l-3,-1l2,-1l-2,-4l1,0z" class="leaflet-clickable" fill-opacity="0.2" fill="#ffffff" stroke-width="5" fill-rule="evenodd" stroke-linecap="round" stroke-linejoin="round"/>
   </g>
   <g stroke="null" transform="matrix(0.02105477672027101,0,0,0.021092263900498207,163.32545720429977,256.8443693290006) " id="svg_176">
    <path stroke="#46673D" id="svg_177" d="m-6936.263685,-11877.388439l-1,-2l4,1l2,4l-5,-2l0,-1z" class="leaflet-clickable" fill-opacity="0.2" fill="#ffffff" stroke-width="5" fill-rule="evenodd" stroke-linecap="round" stroke-linejoin="round"/>
   </g>
   <g stroke="null" transform="matrix(0.02105477672027101,0,0,0.021092263900498207,163.32545720429977,256.8443693290006) " id="svg_178">
    <path stroke="#46673D" id="svg_179" d="m-6941.263685,-11877.388439l0,3l-2,0l2,-3z" class="leaflet-clickable" fill-opacity="0.2" fill="#ffffff" stroke-width="5" fill-rule="evenodd" stroke-linecap="round" stroke-linejoin="round"/>
   </g>
   <g stroke="null" transform="matrix(0.02105477672027101,0,0,0.021092263900498207,163.32545720429977,256.8443693290006) " id="svg_180">
    <path stroke="#46673D" id="svg_181" d="m-6834.263685,-11675.388439l2,0l-2,0z" class="leaflet-clickable" fill-opacity="0.2" fill="#ffffff" stroke-width="5" fill-rule="evenodd" stroke-linecap="round" stroke-linejoin="round"/>
   </g>
   <g stroke="null" transform="matrix(0.02105477672027101,0,0,0.021092263900498207,163.32545720429977,256.8443693290006) " id="svg_182">
    <path stroke="#46673D" id="svg_183" d="m-6967.263685,-11842.388439l-2,-3l3,0l-1,3z" class="leaflet-clickable" fill-opacity="0.2" fill="#ffffff" stroke-width="5" fill-rule="evenodd" stroke-linecap="round" stroke-linejoin="round"/>
   </g>
   <g stroke="null" transform="matrix(0.02105477672027101,0,0,0.021092263900498207,163.32545720429977,256.8443693290006) " id="svg_184">
    <path stroke="#46673D" id="svg_185" d="m-6950.263685,-11573.388439l1,1l-2,0l1,-1z" class="leaflet-clickable" fill-opacity="0.2" fill="#ffffff" stroke-width="5" fill-rule="evenodd" stroke-linecap="round" stroke-linejoin="round"/>
   </g>
   <g stroke="null" transform="matrix(0.02105477672027101,0,0,0.021092263900498207,163.32545720429977,256.8443693290006) " id="svg_186">
    <path stroke="#46673D" id="svg_187" d="m-6898.263685,-11624.388439l-5,0l3,-2l2,2z" class="leaflet-clickable" fill-opacity="0.2" fill="#ffffff" stroke-width="5" fill-rule="evenodd" stroke-linecap="round" stroke-linejoin="round"/>
   </g>
   <g stroke="null" transform="matrix(0.02105477672027101,0,0,0.021092263900498207,163.32545720429977,256.8443693290006) " id="svg_188">
    <path stroke="#46673D" id="svg_189" d="m-6896.263685,-11636.388439l-2,0l2,0z" class="leaflet-clickable" fill-opacity="0.2" fill="#ffffff" stroke-width="5" fill-rule="evenodd" stroke-linecap="round" stroke-linejoin="round"/>
   </g>
   <g stroke="null" transform="matrix(0.02105477672027101,0,0,0.021092263900498207,163.32545720429977,256.8443693290006) " id="svg_190">
    <path stroke="#46673D" id="svg_191" d="m-6913.263685,-11541.388439l2,0l-2,1l0,-1z" class="leaflet-clickable" fill-opacity="0.2" fill="#ffffff" stroke-width="5" fill-rule="evenodd" stroke-linecap="round" stroke-linejoin="round"/>
   </g>
   <g stroke="null" transform="matrix(0.02105477672027101,0,0,0.021092263900498207,163.32545720429977,256.8443693290006) " id="svg_192">
    <path stroke="#46673D" id="svg_193" d="m-6938.263685,-11868.388439l0,-2l2,-1l-1,2l-1,1z" class="leaflet-clickable" fill-opacity="0.2" fill="#ffffff" stroke-width="5" fill-rule="evenodd" stroke-linecap="round" stroke-linejoin="round"/>
   </g>
   <g stroke="null" transform="matrix(0.02105477672027101,0,0,0.021092263900498207,163.32545720429977,256.8443693290006) " id="svg_194">
    <path stroke="#46673D" id="svg_195" d="m-7060.263685,-11493.388439l1,-1l0,2l-1,-1z" class="leaflet-clickable" fill-opacity="0.2" fill="#ffffff" stroke-width="5" fill-rule="evenodd" stroke-linecap="round" stroke-linejoin="round"/>
   </g>
   <g stroke="null" transform="matrix(0.02105477672027101,0,0,0.021092263900498207,163.32545720429977,256.8443693290006) " id="svg_196">
    <path stroke="#46673D" id="svg_197" d="m-6929.263685,-11905.388439l-2,-1l1,-7l2,4l4,3l-4,0l-1,1z" class="leaflet-clickable" fill-opacity="0.2" fill="#ffffff" stroke-width="5" fill-rule="evenodd" stroke-linecap="round" stroke-linejoin="round"/>
   </g>
   <g stroke="null" transform="matrix(0.02105477672027101,0,0,0.021092263900498207,163.32545720429977,256.8443693290006) " id="svg_198">
    <path stroke="#46673D" id="svg_199" d="m-6907.263685,-11936.388439l-2,-1l-1,-4l2,0l0,3l1,2z" class="leaflet-clickable" fill-opacity="0.2" fill="#ffffff" stroke-width="5" fill-rule="evenodd" stroke-linecap="round" stroke-linejoin="round"/>
   </g>
   <g stroke="null" transform="matrix(0.02105477672027101,0,0,0.021092263900498207,163.32545720429977,256.8443693290006) " id="svg_200">
    <path stroke="#46673D" id="svg_201" d="m-7005.263685,-11520.388439l2,-4l2,5l-2,3l-3,-2l1,-2z" class="leaflet-clickable" fill-opacity="0.2" fill="#ffffff" stroke-width="5" fill-rule="evenodd" stroke-linecap="round" stroke-linejoin="round"/>
   </g>
   <g stroke="null" transform="matrix(0.02105477672027101,0,0,0.021092263900498207,163.32545720429977,256.8443693290006) " id="svg_202">
    <path stroke="#46673D" id="svg_203" d="m-6917.263685,-11935.388439l0,-3l2,2l-2,1z" class="leaflet-clickable" fill-opacity="0.2" fill="#ffffff" stroke-width="5" fill-rule="evenodd" stroke-linecap="round" stroke-linejoin="round"/>
   </g>
   <g stroke="null" transform="matrix(0.02105477672027101,0,0,0.021092263900498207,163.32545720429977,256.8443693290006) " id="svg_204">
    <path stroke="#46673D" id="svg_205" d="m-6909.263685,-11942.388439l-1,-1l2,-3l2,2l-1,1l-2,1z" class="leaflet-clickable" fill-opacity="0.2" fill="#ffffff" stroke-width="5" fill-rule="evenodd" stroke-linecap="round" stroke-linejoin="round"/>
   </g>
   <g stroke="null" transform="matrix(0.02105477672027101,0,0,0.021092263900498207,163.32545720429977,256.8443693290006) " id="svg_206">
    <path stroke="#46673D" id="svg_207" d="m-6945.263685,-11871.388439l-4,-4l5,-2l0,5l-1,1z" class="leaflet-clickable" fill-opacity="0.2" fill="#ffffff" stroke-width="5" fill-rule="evenodd" stroke-linecap="round" stroke-linejoin="round"/>
   </g>
   <g stroke="null" transform="matrix(0.02105477672027101,0,0,0.021092263900498207,163.32545720429977,256.8443693290006) " id="svg_208">
    <path stroke="#46673D" id="svg_209" d="m-6922.263685,-11926.388439l-1,-1l3,-5l4,1l-5,4l-1,1z" class="leaflet-clickable" fill-opacity="0.2" fill="#ffffff" stroke-width="5" fill-rule="evenodd" stroke-linecap="round" stroke-linejoin="round"/>
   </g>
   <g stroke="null" transform="matrix(0.02105477672027101,0,0,0.021092263900498207,163.32545720429977,256.8443693290006) " id="svg_210">
    <path stroke="#46673D" id="svg_211" d="m-6817.263685,-11672.388439l1,-2l-1,2z" class="leaflet-clickable" fill-opacity="0.2" fill="#ffffff" stroke-width="5" fill-rule="evenodd" stroke-linecap="round" stroke-linejoin="round"/>
   </g>
   <g stroke="null" transform="matrix(0.02105477672027101,0,0,0.021092263900498207,163.32545720429977,256.8443693290006) " id="svg_212">
    <path stroke="#46673D" id="svg_213" d="m-6904.263685,-11883.388439l-2,-3l3,2l-1,1z" class="leaflet-clickable" fill-opacity="0.2" fill="#ffffff" stroke-width="5" fill-rule="evenodd" stroke-linecap="round" stroke-linejoin="round"/>
   </g>
   <g stroke="null" transform="matrix(0.02105477672027101,0,0,0.021092263900498207,163.32545720429977,256.8443693290006) " id="svg_214">
    <path stroke="#46673D" id="svg_215" d="m-6926.263685,-11595.388439l1,2l-2,-1l1,-1z" class="leaflet-clickable" fill-opacity="0.2" fill="#ffffff" stroke-width="5" fill-rule="evenodd" stroke-linecap="round" stroke-linejoin="round"/>
   </g>
   <g stroke="null" transform="matrix(0.02105477672027101,0,0,0.021092263900498207,163.32545720429977,256.8443693290006) " id="svg_216">
    <path stroke="#46673D" id="svg_217" d="m-7049.263685,-11768.388439l1,-1l-1,1z" class="leaflet-clickable" fill-opacity="0.2" fill="#ffffff" stroke-width="5" fill-rule="evenodd" stroke-linecap="round" stroke-linejoin="round"/>
   </g>
   <g stroke="null" transform="matrix(0.02105477672027101,0,0,0.021092263900498207,163.32545720429977,256.8443693290006) " id="svg_218">
    <path stroke="#46673D" id="svg_219" d="m-6847.263685,-11600.388439l1,0l-1,0z" class="leaflet-clickable" fill-opacity="0.2" fill="#ffffff" stroke-width="5" fill-rule="evenodd" stroke-linecap="round" stroke-linejoin="round"/>
   </g>
   <g stroke="null" transform="matrix(0.02105477672027101,0,0,0.021092263900498207,163.32545720429977,256.8443693290006) " id="svg_220">
    <path stroke="#46673D" id="svg_221" d="m-6706.263685,-11790.388439l1,0l-1,0z" class="leaflet-clickable" fill-opacity="0.2" fill="#ffffff" stroke-width="5" fill-rule="evenodd" stroke-linecap="round" stroke-linejoin="round"/>
   </g>
   <g stroke="null" transform="matrix(0.02105477672027101,0,0,0.021092263900498207,163.32545720429977,256.8443693290006) " id="svg_222">
    <path stroke="#46673D" id="svg_223" d="m-6942.263685,-11902.388439l-1,-1l2,0l-1,1z" class="leaflet-clickable" fill-opacity="0.2" fill="#ffffff" stroke-width="5" fill-rule="evenodd" stroke-linecap="round" stroke-linejoin="round"/>
   </g>
   <g stroke="null" transform="matrix(0.02105477672027101,0,0,0.021092263900498207,163.32545720429977,256.8443693290006) " id="svg_224">
    <path stroke="#46673D" id="svg_225" d="m-6913.263685,-11884.388439l0,0z" class="leaflet-clickable" fill-opacity="0.2" fill="#ffffff" stroke-width="5" fill-rule="evenodd" stroke-linecap="round" stroke-linejoin="round"/>
   </g>
   <g stroke="null" transform="matrix(0.02105477672027101,0,0,0.021092263900498207,163.32545720429977,256.8443693290006) " id="svg_226">
    <path stroke="#46673D" id="svg_227" d="m-6942.263685,-11889.388439l0,-1l0,1z" class="leaflet-clickable" fill-opacity="0.2" fill="#ffffff" stroke-width="5" fill-rule="evenodd" stroke-linecap="round" stroke-linejoin="round"/>
   </g>
   <g stroke="null" transform="matrix(0.02105477672027101,0,0,0.021092263900498207,163.32545720429977,256.8443693290006) " id="svg_228">
    <path stroke="#46673D" id="svg_229" d="m-7605.263685,-11541.388439l1,-1l1,2l-3,1l1,-2z" class="leaflet-clickable" fill-opacity="0.2" fill="#ffffff" stroke-width="5" fill-rule="evenodd" stroke-linecap="round" stroke-linejoin="round"/>
   </g>
   <g stroke="null" transform="matrix(0.02105477672027101,0,0,0.021092263900498207,163.32545720429977,256.8443693290006) " id="svg_230">
    <path stroke="#46673D" id="svg_231" stroke-dasharray="1,6" d="m-7319.263685,-11669.388439l-3,5l0,2l2,0l0,7l-3,1l3,1l0,3l-2,1l9,10l-4,1l3,1l0,8l4,2l6,-1l-1,4l3,1l4,6l0,3l1,-2l1,1l-1,3l1,-2l5,2l-3,4l2,7l6,1l-2,10l-5,0l-2,5l3,12l2,-1l1,2l-3,6l2,2l1,7l-2,0l-3,-4l-3,0l-3,2l-9,-1l-2,1l0,2l-3,1l0,-5l-2,-2l-2,1l-5,-4l-4,1l-7,-5l-4,1l-5,-6l-11,4l2,-5l-2,-1l1,-4l3,0l1,-2l-6,-5l2,-2l-1,-2l-3,-1l-2,2l-2,-2l0,-2l3,-1l0,-4l-3,0l-2,-8l1,-2l-5,-10l0,-12l-5,0l-3,-2l-1,4l-10,10l-2,5l-5,2l-1,2l-6,-2l-2,8l-6,3l0,2l-3,0l0,2l-4,2l-2,-3l-3,0l-1,-2l-5,3l-4,-8l-6,1l-5,-2l-11,6l-5,-4l-5,1l-4,6l-1,-2l-2,1l0,2l-4,-1l-7,6l7,8l-2,3l3,0l-1,2l2,-1l4,4l-3,2l0,3l-2,2l-8,1l-5,4l0,-4l-3,0l-3,-4l-3,1l-8,8l-4,-3l1,-9l-6,-10l3,-5l4,-3l0,-3l6,-8l13,-4l2,-3l5,0l2,-6l4,-2l2,-4l9,-3l-1,-7l-2,-1l1,-3l3,0l0,-2l-2,-1l3,-5l2,1l2,-6l4,-2l0,-3l8,-4l1,-3l2,-1l0,-5l3,-3l11,-6l-3,-5l0,-4l3,-1l0,-4l6,2l0,-4l2,1l2,-9l-1,-3l-5,-3l2,0l0,-4l-4,-1l-4,-6l2,0l2,-3l6,-3l-3,-2l0,-8l15,-3l0,-2l2,-1l0,-9l-3,0l0,-2l-2,-1l3,-6l-2,-1l1,-2l-4,-3l-2,-6l3,-6l-2,-3l3,-4l-1,-3l2,-3l9,0l0,-5l3,-2l10,0l5,-8l4,0l2,4l3,0l1,4l-4,1l3,3l-2,1l8,0l2,3l-1,5l7,6l-1,7l4,11l-2,2l1,1l-3,0l-1,2l5,9l2,10l-12,6l-3,-1l0,5l-3,2l0,2l6,4l2,6l2,1l11,-1l0,-2l4,0l1,2l2,-3l2,0l2,5l-4,2l5,3l2,5l-1,5l4,5l9,6l2,5l6,1l0,4l-3,3l0,1z" class="leaflet-clickable" fill-opacity="0.2" fill="#ffffff" stroke-width="5" fill-rule="evenodd" stroke-linecap="round" stroke-linejoin="round"/>
   </g>
   <g stroke="null" transform="matrix(0.02105477672027101,0,0,0.021092263900498207,163.32545720429977,256.8443693290006) " id="svg_232">
    <path stroke="#46673D" id="svg_233" d="m-6916.263685,-11655.388439l4,1l1,4l3,2l1,-1l8,4l-4,6l0,3l2,2l-3,5l-5,0l2,4l2,0l-6,5l1,2l-3,2l-3,-6l1,-3l-3,-2l1,-4l-2,-1l-9,1l1,3l-2,2l-2,-1l-5,7l1,3l5,5l0,2l-10,0l-1,8l3,0l1,3l-1,3l3,16l2,0l-1,2l-5,0l-3,2l-4,-1l-2,3l-3,0l-1,-2l-1,2l-2,-1l0,3l-9,0l-7,6l-5,0l1,-1l-4,3l-6,-3l-4,2l6,-14l5,-7l-1,-3l-5,-6l-3,2l0,3l2,1l-1,2l-3,1l-3,-1l0,-2l-5,1l-1,-3l-4,1l-5,5l0,5l-2,2l-3,0l2,4l4,1l4,5l8,1l-1,5l-5,5l2,0l6,-5l1,2l-3,4l1,1l2,-3l1,1l2,-3l2,0l0,7l-6,1l-7,8l-1,4l-4,0l3,-7l3,-1l-1,-1l-6,6l-2,0l0,-2l0,2l-2,0l-3,4l-3,0l-2,2l-4,7l2,7l-5,11l-4,0l1,-3l-3,-1l1,-2l-5,-2l-1,1l-1,3l4,1l0,3l-5,6l2,6l-7,5l-3,-3l-2,1l0,-4l-5,4l1,6l-2,1l-1,-2l-1,2l-2,-2l-1,-5l-4,0l-7,5l-6,-3l-1,2l-2,-1l-2,2l-5,0l0,-3l-3,-2l2,-9l-2,-8l1,-1l10,4l2,-2l1,1l1,-1l-5,-5l0,-4l2,0l1,-6l4,-5l4,0l1,-3l4,2l3,-2l-3,-10l-2,1l-3,-14l4,-3l1,-3l-5,-3l-6,0l0,-4l3,-2l-1,-4l3,-8l7,0l3,3l6,-2l2,1l2,-2l0,-5l-2,-4l1,-4l6,-8l4,-1l2,-11l4,0l-2,-5l3,-5l1,1l7,-2l0,-9l-2,1l-6,-3l-2,4l-2,-4l-12,-3l-10,-5l-3,2l1,-3l-14,-10l-3,-8l-7,-6l-2,-8l1,-4l3,0l5,-9l0,-10l-2,-5l4,-11l8,4l5,-2l2,3l5,-1l0,-2l4,-1l2,2l14,1l5,-3l1,1l1,-2l7,4l2,-4l14,1l2,-3l4,-1l4,-14l3,2l3,-3l3,0l-1,2l5,2l1,5l2,-1l1,-4l4,2l2,-1l-1,-2l7,0l4,-2l3,-4l4,6l-2,10l2,2l5,-3l2,2l1,7l-2,2l-2,-2l-2,8l1,4l6,3l1,3l-6,2l0,3l2,1l-1,1l3,2l-1,5l-5,0l-3,6l1,3l5,2l0,6l4,1l0,2l2,1l-1,2l2,-1l2,3l0,3l-2,0l-1,5l1,4l8,-4l-1,-1l2,-1l0,-2l5,1l5,4l8,-3z" class="leaflet-clickable" fill-opacity="0.2" fill="#ffffff" stroke-dasharray="1,6" stroke-width="5" fill-rule="evenodd" stroke-linecap="round" stroke-linejoin="round"/>
   </g>
   <g stroke="null" transform="matrix(0.02105477672027101,0,0,0.021092263900498207,163.32545720429977,256.8443693290006) " id="svg_234">
    <path stroke="#46673D" id="svg_235" d="m-6950.263685,-11573.388439l1,1l-2,0l1,-1z" class="leaflet-clickable" fill-opacity="0.2" fill="#ffffff" stroke-dasharray="1,6" stroke-width="5" fill-rule="evenodd" stroke-linecap="round" stroke-linejoin="round"/>
   </g>
   <g stroke="null" transform="matrix(0.02105477672027101,0,0,0.021092263900498207,163.32545720429977,256.8443693290006) " id="svg_236">
    <path stroke="#46673D" id="svg_237" d="m-6898.263685,-11624.388439l-5,0l3,-2l2,2z" class="leaflet-clickable" fill-opacity="0.2" fill="#ffffff" stroke-dasharray="1,6" stroke-width="5" fill-rule="evenodd" stroke-linecap="round" stroke-linejoin="round"/>
   </g>
   <g stroke="null" transform="matrix(0.02105477672027101,0,0,0.021092263900498207,163.32545720429977,256.8443693290006) " id="svg_238">
    <path stroke="#46673D" id="svg_239" d="m-6896.263685,-11636.388439l-2,0l2,0z" class="leaflet-clickable" fill-opacity="0.2" fill="#ffffff" stroke-dasharray="1,6" stroke-width="5" fill-rule="evenodd" stroke-linecap="round" stroke-linejoin="round"/>
   </g>
   <g stroke="null" transform="matrix(0.02105477672027101,0,0,0.021092263900498207,163.32545720429977,256.8443693290006) " id="svg_240">
    <path stroke="#46673D" id="svg_241" d="m-6913.263685,-11541.388439l2,0l-2,1l0,-1z" class="leaflet-clickable" fill-opacity="0.2" fill="#ffffff" stroke-dasharray="1,6" stroke-width="5" fill-rule="evenodd" stroke-linecap="round" stroke-linejoin="round"/>
   </g>
   <g stroke="null" transform="matrix(0.02105477672027101,0,0,0.021092263900498207,163.32545720429977,256.8443693290006) " id="svg_242">
    <path stroke="#46673D" id="svg_243" d="m-7060.263685,-11493.388439l1,-1l0,2l-1,-1z" class="leaflet-clickable" fill-opacity="0.2" fill="#ffffff" stroke-dasharray="1,6" stroke-width="5" fill-rule="evenodd" stroke-linecap="round" stroke-linejoin="round"/>
   </g>
   <g stroke="null" transform="matrix(0.02105477672027101,0,0,0.021092263900498207,163.32545720429977,256.8443693290006) " id="svg_244">
    <path stroke="#46673D" id="svg_245" d="m-7005.263685,-11520.388439l2,-4l2,5l-2,3l-3,-2l1,-2z" class="leaflet-clickable" fill-opacity="0.2" fill="#ffffff" stroke-dasharray="1,6" stroke-width="5" fill-rule="evenodd" stroke-linecap="round" stroke-linejoin="round"/>
   </g>
   <g stroke="null" transform="matrix(0.02105477672027101,0,0,0.021092263900498207,163.32545720429977,256.8443693290006) " id="svg_246">
    <path stroke="#46673D" id="svg_247" d="m-6926.263685,-11595.388439l1,2l-2,-1l1,-1z" class="leaflet-clickable" fill-opacity="0.2" fill="#ffffff" stroke-dasharray="1,6" stroke-width="5" fill-rule="evenodd" stroke-linecap="round" stroke-linejoin="round"/>
   </g>
   <g stroke="null" transform="matrix(0.02105477672027101,0,0,0.021092263900498207,163.32545720429977,256.8443693290006) " id="svg_248">
    <path stroke="#46673D" id="svg_249" d="m-7319.263685,-11669.388439l7,0l7,-11l1,2l2,0l0,-2l-5,-5l2,-10l6,0l5,-2l3,-5l3,-1l0,-2l-3,1l0,-3l-3,-3l-1,-5l-5,0l0,-7l-4,-1l1,-5l-13,0l-16,-4l-6,0l-1,-3l2,-1l-3,-2l-1,-3l5,-3l1,-6l4,-5l0,-3l4,-4l5,3l8,2l2,0l8,-6l5,1l2,2l6,-3l1,2l2,-1l4,2l1,3l-2,1l0,4l3,1l2,-1l0,-2l3,3l4,0l0,6l-2,1l0,4l2,3l-4,3l2,3l7,-3l2,2l1,4l2,0l0,3l-2,0l-1,3l4,7l4,1l0,2l4,0l3,-3l0,-3l3,-1l3,2l0,4l4,-1l0,2l2,1l1,-3l5,0l0,4l14,2l-3,6l1,4l-2,3l2,0l-3,2l-1,-2l0,3l-2,0l0,5l-11,7l-7,-2l0,4l-3,1l2,4l-3,0l-1,-2l-3,1l-1,2l2,1l-2,2l3,1l-3,0l-1,2l0,2l2,1l-2,-1l0,3l-2,1l2,3l-5,5l0,5l6,5l-2,0l0,6l3,4l-1,8l3,1l-2,3l5,8l4,1l-2,1l4,4l-1,8l1,1l4,-3l2,3l3,1l-2,6l2,5l2,1l1,6l5,-2l5,1l-1,10l2,1l1,-2l2,2l0,6l-6,-1l-1,2l3,3l2,6l-6,2l-6,-6l-3,0l-5,5l-12,5l-8,-7l2,-1l-4,-6l-9,-2l-6,6l-3,1l-2,6l-4,0l0,-4l-3,0l-2,2l-2,-4l0,-2l2,0l-1,-7l-2,-2l3,-6l-4,-3l-2,-10l1,-5l6,0l2,-9l-6,-2l-2,-7l3,-4l-3,-2l-2,0l-1,2l1,-3l-1,-1l-1,2l0,-3l-4,-6l-3,-1l1,-4l-5,1l-5,-2l0,-8l-3,-1l4,-1l-6,-6l0,-2l-3,-1l2,-5l-3,-1l3,-1l0,-7l-2,0l2,-6l1,-1z" class="leaflet-clickable" fill-opacity="0.2" fill="#ffffff" stroke-dasharray="1,6" stroke-width="5" fill-rule="evenodd" stroke-linecap="round" stroke-linejoin="round"/>
   </g>
   <g stroke="null" transform="matrix(0.02105477672027101,0,0,0.021092263900498207,163.32545720429977,256.8443693290006) " id="svg_250">
    <path stroke="#46673D" id="svg_251" d="m-7361.263685,-11333.388439l2,-7l-4,0l-1,-5l-2,0l-6,-10l-9,-2l0,-3l-2,0l-5,-6l-3,1l4,-6l-2,-2l-3,0l-4,-5l-2,-12l-8,2l-1,-2l-6,0l-3,-2l-3,-4l2,-5l-1,-2l-6,-4l0,-2l-3,0l2,-1l-1,-3l-5,-3l-5,-11l3,-1l2,2l6,-4l1,2l7,1l9,-7l10,0l2,-2l10,-2l3,-3l6,0l-1,-4l4,-2l2,1l0,2l1,-6l6,0l5,2l6,12l10,5l0,3l3,3l3,-1l2,2l4,7l11,9l0,4l5,1l-2,2l0,8l-4,6l4,7l2,0l1,3l7,4l-1,3l-3,2l3,5l4,1l0,12l-3,6l-2,-1l1,21l-15,-5l0,3l-3,5l-4,2l-2,-1l-2,5l-3,0l-1,-2l-10,1l0,-2l-3,-1l-5,-6l0,-2l-3,-1l0,-4l-1,-1z" class="leaflet-clickable" fill-opacity="0.2" fill="#ffffff" stroke-dasharray="1,6" stroke-width="5" fill-rule="evenodd" stroke-linecap="round" stroke-linejoin="round"/>
   </g>
   <g stroke="null" transform="matrix(0.02105477672027101,0,0,0.021092263900498207,163.32545720429977,256.8443693290006) " id="svg_252">
    <path stroke="#46673D" id="svg_253" d="m-7251.263685,-11904.388439l11,4l9,0l4,3l3,-4l6,2l4,9l2,1l6,-4l1,-8l3,-2l19,-3l17,3l8,8l4,16l14,12l3,15l4,2l6,-4l4,-6l3,-1l3,2l2,4l1,7l-6,23l-4,2l-11,-1l-16,2l-5,4l-2,4l-4,11l0,5l5,19l3,-1l1,2l-4,2l1,3l3,5l4,1l-34,4l-12,8l-3,7l-3,3l1,2l1,-1l0,2l3,1l-1,9l-7,4l-7,0l0,4l-2,0l0,2l6,1l0,3l-2,0l1,1l-4,-1l0,10l-10,-3l-4,3l-7,-2l0,-3l-5,-1l-1,3l-2,-1l0,-2l-4,1l-1,-5l5,-5l2,-6l-1,-2l2,-3l-1,-4l5,-5l0,-5l-4,-7l3,-7l-7,-5l0,-8l-4,0l1,-1l-3,0l-2,-3l-1,2l-3,0l-1,-3l-7,4l-1,-3l-3,-1l4,-1l-2,-8l-4,0l2,-11l6,-8l-5,0l0,-2l-2,-1l4,-5l1,-6l5,-4l5,2l6,-1l4,-8l0,-3l2,0l1,-3l2,0l-2,-4l1,-3l2,0l-2,-4l1,-1l-2,0l1,-2l-2,0l1,-1l-2,-4l-2,1l-1,-2l-6,4l-3,-6l1,-2l-2,-9l-2,-1l2,0l0,-7l24,-4l1,-5l-25,3l0,-7l3,-4l-3,-2l1,-2l2,-3z" class="leaflet-clickable" fill-opacity="0.2" fill="#ffffff" stroke-dasharray="1,6" stroke-width="5" fill-rule="evenodd" stroke-linecap="round" stroke-linejoin="round"/>
   </g>
   <g stroke="null" transform="matrix(0.02105477672027101,0,0,0.021092263900498207,163.32545720429977,256.8443693290006) " id="svg_254">
    <path stroke="#46673D" id="svg_255" d="m-7230.263685,-11889.388439l0,5l-24,4l0,-6l24,-3z" class="leaflet-clickable" fill-opacity="0.2" fill="#ffffff" stroke-dasharray="1,6" stroke-width="5" fill-rule="evenodd" stroke-linecap="round" stroke-linejoin="round"/>
   </g>
   <g stroke="null" transform="matrix(0.02105477672027101,0,0,0.021092263900498207,163.32545720429977,256.8443693290006) " id="svg_256">
    <path stroke="#46673D" id="svg_257" d="m-7080.263685,-11738.388439l13,-5l3,5l6,-2l5,-8l3,-1l3,-5l4,-1l3,-3l-4,-1l5,-1l0,-2l-2,-1l1,-4l-6,-6l0,-5l11,-2l3,-6l15,-4l3,-3l7,-3l12,-10l1,-2l-5,-5l1,-5l7,-1l1,-4l-6,-2l-2,-4l20,-2l10,-9l9,1l8,-2l5,-5l5,0l10,-7l10,2l10,-2l1,2l5,0l1,6l4,4l3,0l5,7l13,-1l3,3l-2,4l2,6l-2,4l9,6l11,0l7,-2l1,-1l-2,-6l5,2l7,5l-7,0l3,8l6,4l0,3l3,4l11,6l1,-3l8,-5l2,0l2,3l10,1l23,-1l1,3l-4,10l-4,4l0,5l-7,6l-2,-1l-3,9l-4,1l3,8l-2,3l2,1l-4,7l-5,0l0,-2l-2,-1l1,2l-3,3l-4,-4l-3,2l-3,-3l-1,6l-11,0l-6,-3l-3,4l-4,0l-6,-4l2,-1l-1,-1l-4,2l-2,-3l-3,1l-6,7l-6,4l0,7l-2,4l4,3l2,-1l1,5l4,5l5,1l1,3l7,-3l0,3l3,4l-4,2l1,4l6,8l5,0l4,3l-11,5l-1,2l2,0l1,2l-2,3l-3,0l-2,-3l-7,2l-8,6l-2,-1l-4,3l-4,0l-11,7l-6,6l-10,-1l-4,-3l1,-3l-6,-2l-12,6l-3,-3l-1,1l-1,-2l-5,-1l0,2l-2,1l1,1l-8,4l0,-9l2,0l-1,-6l-3,1l-1,-5l-4,-1l0,-5l-3,-1l-3,-5l3,-5l5,-1l1,-4l-3,-2l1,-2l-2,-4l6,-2l0,-3l-7,-3l-1,-4l2,-8l2,2l2,-2l0,-4l-1,-3l-2,-1l-5,2l-2,-2l2,-10l-4,-6l-7,6l-6,0l-1,3l-5,-2l-1,4l-2,1l-1,-5l-5,-2l1,-2l-3,0l-3,3l-3,-2l-4,14l-4,1l-2,3l-14,-1l-2,4l-7,-4l-1,2l-1,-1l-5,3l-14,-1l-2,-2l-4,1l0,2l-3,1l-2,0l-2,-3l-5,2l-2,-2l-6,-2l-1,1l1,-3l-7,-4l2,-5l-1,-2l1,-4z" class="leaflet-clickable" fill-opacity="0.2" fill="#ffffff" stroke-width="5" fill-rule="evenodd" stroke-linecap="round" stroke-linejoin="round"/>
   </g>
   <g stroke="null" transform="matrix(0.02105477672027101,0,0,0.021092263900498207,163.32545720429977,256.8443693290006) " id="svg_258">
    <path stroke="#46673D" id="svg_259" d="m-6831.263685,-11807.388439l-1,-1l3,-1l-2,2z" class="leaflet-clickable" fill-opacity="0.2" fill="#ffffff" stroke-width="5" fill-rule="evenodd" stroke-linecap="round" stroke-linejoin="round"/>
   </g>
   <g stroke="null" transform="matrix(0.02105477672027101,0,0,0.021092263900498207,163.32545720429977,256.8443693290006) " id="svg_260">
    <path stroke="#46673D" id="svg_261" d="m-6932.263685,-11871.388439l1,-2l2,1l2,5l-1,5l-2,-3l-3,-1l2,-1l-2,-4l1,0z" class="leaflet-clickable" fill-opacity="0.2" fill="#ffffff" stroke-width="5" fill-rule="evenodd" stroke-linecap="round" stroke-linejoin="round"/>
   </g>
   <g stroke="null" transform="matrix(0.02105477672027101,0,0,0.021092263900498207,163.32545720429977,256.8443693290006) " id="svg_262">
    <path stroke="#46673D" id="svg_263" d="m-6936.263685,-11877.388439l-1,-2l4,1l2,4l-5,-2l0,-1z" class="leaflet-clickable" fill-opacity="0.2" fill="#ffffff" stroke-width="5" fill-rule="evenodd" stroke-linecap="round" stroke-linejoin="round"/>
   </g>
   <g stroke="null" transform="matrix(0.02105477672027101,0,0,0.021092263900498207,163.32545720429977,256.8443693290006) " id="svg_264">
    <path stroke="#46673D" id="svg_265" d="m-6941.263685,-11877.388439l0,3l-2,0l2,-3z" class="leaflet-clickable" fill-opacity="0.2" fill="#ffffff" stroke-width="5" fill-rule="evenodd" stroke-linecap="round" stroke-linejoin="round"/>
   </g>
   <g stroke="null" transform="matrix(0.02105477672027101,0,0,0.021092263900498207,163.32545720429977,256.8443693290006) " id="svg_266">
    <path stroke="#46673D" id="svg_267" d="m-6967.263685,-11842.388439l-2,-3l3,0l-1,3z" class="leaflet-clickable" fill-opacity="0.2" fill="#ffffff" stroke-width="5" fill-rule="evenodd" stroke-linecap="round" stroke-linejoin="round"/>
   </g>
   <g stroke="null" transform="matrix(0.02105477672027101,0,0,0.021092263900498207,163.32545720429977,256.8443693290006) " id="svg_268">
    <path stroke="#46673D" id="svg_269" d="m-6938.263685,-11868.388439l0,-2l2,-1l-1,2l-1,1z" class="leaflet-clickable" fill-opacity="0.2" fill="#ffffff" stroke-width="5" fill-rule="evenodd" stroke-linecap="round" stroke-linejoin="round"/>
   </g>
   <g stroke="null" transform="matrix(0.02105477672027101,0,0,0.021092263900498207,163.32545720429977,256.8443693290006) " id="svg_270">
    <path stroke="#46673D" id="svg_271" d="m-6929.263685,-11905.388439l-2,-1l1,-7l2,4l4,3l-4,0l-1,1z" class="leaflet-clickable" fill-opacity="0.2" fill="#ffffff" stroke-width="5" fill-rule="evenodd" stroke-linecap="round" stroke-linejoin="round"/>
   </g>
   <g stroke="null" transform="matrix(0.02105477672027101,0,0,0.021092263900498207,163.32545720429977,256.8443693290006) " id="svg_272">
    <path stroke="#46673D" id="svg_273" d="m-6907.263685,-11936.388439l-2,-1l-1,-4l2,0l0,3l1,2z" class="leaflet-clickable" fill-opacity="0.2" fill="#ffffff" stroke-width="5" fill-rule="evenodd" stroke-linecap="round" stroke-linejoin="round"/>
   </g>
   <g stroke="null" transform="matrix(0.02105477672027101,0,0,0.021092263900498207,163.32545720429977,256.8443693290006) " id="svg_274">
    <path stroke="#46673D" id="svg_275" d="m-6917.263685,-11935.388439l0,-3l2,2l-2,1z" class="leaflet-clickable" fill-opacity="0.2" fill="#ffffff" stroke-width="5" fill-rule="evenodd" stroke-linecap="round" stroke-linejoin="round"/>
   </g>
   <g stroke="null" transform="matrix(0.02105477672027101,0,0,0.021092263900498207,163.32545720429977,256.8443693290006) " id="svg_276">
    <path stroke="#46673D" id="svg_277" d="m-6945.263685,-11871.388439l-4,-4l5,-2l0,5l-1,1z" class="leaflet-clickable" fill-opacity="0.2" fill="#ffffff" stroke-width="5" fill-rule="evenodd" stroke-linecap="round" stroke-linejoin="round"/>
   </g>
   <g stroke="null" transform="matrix(0.02105477672027101,0,0,0.021092263900498207,163.32545720429977,256.8443693290006) " id="svg_278">
    <path stroke="#46673D" id="svg_279" d="m-6909.263685,-11942.388439l-1,-1l2,-3l2,2l-1,1l-2,1z" class="leaflet-clickable" fill-opacity="0.2" fill="#ffffff" stroke-width="5" fill-rule="evenodd" stroke-linecap="round" stroke-linejoin="round"/>
   </g>
   <g stroke="null" transform="matrix(0.02105477672027101,0,0,0.021092263900498207,163.32545720429977,256.8443693290006) " id="svg_280">
    <path stroke="#46673D" id="svg_281" d="m-6922.263685,-11926.388439l-1,-1l3,-5l4,1l-5,4l-1,1z" class="leaflet-clickable" fill-opacity="0.2" fill="#ffffff" stroke-width="5" fill-rule="evenodd" stroke-linecap="round" stroke-linejoin="round"/>
   </g>
   <g stroke="null" transform="matrix(0.02105477672027101,0,0,0.021092263900498207,163.32545720429977,256.8443693290006) " id="svg_282">
    <path stroke="#46673D" id="svg_283" d="m-6904.263685,-11883.388439l-2,-3l3,2l-1,1z" class="leaflet-clickable" fill-opacity="0.2" fill="#ffffff" stroke-width="5" fill-rule="evenodd" stroke-linecap="round" stroke-linejoin="round"/>
   </g>
   <g stroke="null" transform="matrix(0.02105477672027101,0,0,0.021092263900498207,163.32545720429977,256.8443693290006) " id="svg_284">
    <path stroke="#46673D" id="svg_285" d="m-7049.263685,-11768.388439l1,-1l-1,1z" class="leaflet-clickable" fill-opacity="0.2" fill="#ffffff" stroke-width="5" fill-rule="evenodd" stroke-linecap="round" stroke-linejoin="round"/>
   </g>
   <g stroke="null" transform="matrix(0.02105477672027101,0,0,0.021092263900498207,163.32545720429977,256.8443693290006) " id="svg_286">
    <path stroke="#46673D" id="svg_287" d="m-6847.263685,-11600.388439l1,0l-1,0z" class="leaflet-clickable" fill-opacity="0.2" fill="#ffffff" stroke-width="5" fill-rule="evenodd" stroke-linecap="round" stroke-linejoin="round"/>
   </g>
   <g stroke="null" transform="matrix(0.02105477672027101,0,0,0.021092263900498207,163.32545720429977,256.8443693290006) " id="svg_288">
    <path stroke="#46673D" id="svg_289" d="m-6942.263685,-11902.388439l-1,-1l2,0l-1,1z" class="leaflet-clickable" fill-opacity="0.2" fill="#ffffff" stroke-width="5" fill-rule="evenodd" stroke-linecap="round" stroke-linejoin="round"/>
   </g>
   <g stroke="null" transform="matrix(0.02105477672027101,0,0,0.021092263900498207,163.32545720429977,256.8443693290006) " id="svg_290">
    <path stroke="#46673D" id="svg_291" d="m-6913.263685,-11884.388439l0,0z" class="leaflet-clickable" fill-opacity="0.2" fill="#ffffff" stroke-width="5" fill-rule="evenodd" stroke-linecap="round" stroke-linejoin="round"/>
   </g>
   <g stroke="null" transform="matrix(0.02105477672027101,0,0,0.021092263900498207,163.32545720429977,256.8443693290006) " id="svg_292">
    <path stroke="#46673D" id="svg_293" d="m-6942.263685,-11889.388439l0,-1l0,1z" class="leaflet-clickable" fill-opacity="0.2" fill="#ffffff" stroke-width="5" fill-rule="evenodd" stroke-linecap="round" stroke-linejoin="round"/>
   </g>
   <g stroke="null" transform="matrix(0.02105477672027101,0,0,0.021092263900498207,163.32545720429977,256.8443693290006) " id="svg_294">
    <path stroke="#46673D" id="svg_295" d="m-7223.263685,-11709.388439l1,-2l8,3l3,-1l-1,-9l5,0l0,-3l-6,-1l0,-2l2,0l0,-4l9,0l5,-3l1,-10l-3,-1l0,-2l-2,0l6,-11l12,-8l34,-4l3,10l3,1l0,-3l5,0l2,-5l4,1l-4,0l-2,7l1,1l9,-8l1,1l-3,2l2,1l-2,9l2,1l0,-5l4,0l3,3l5,0l-1,7l5,8l3,-2l18,-1l0,-2l-2,-1l1,-1l1,4l2,1l9,0l0,6l-2,5l7,4l-4,13l2,5l0,10l-4,9l-4,0l-1,4l2,8l7,6l3,8l14,10l-1,3l3,-2l10,5l12,2l1,5l3,-4l3,0l3,3l2,-1l0,9l-7,2l-1,-1l-3,5l2,5l-5,1l-1,10l-4,1l-4,5l-3,7l3,9l-3,2l-2,-1l-6,2l-3,-3l-6,0l-4,7l1,4l-3,3l0,4l5,0l6,3l-1,3l-4,3l3,14l2,-1l3,9l-3,3l-4,-2l-1,3l-4,0l-2,2l-3,5l0,4l-2,0l0,4l5,5l-1,1l-1,-1l-2,2l-9,-3l-5,-5l-1,-2l2,-1l-4,-5l-5,1l-7,5l0,-10l-2,-2l2,-2l-4,-6l-4,1l-2,-1l0,-2l-2,0l-8,5l-4,0l-2,-3l-2,2l-3,-2l6,-4l0,-7l-6,-1l-7,2l-2,-1l0,-2l-6,0l0,-6l1,-2l3,0l-1,-4l3,-4l-6,-4l-4,2l-4,-2l-2,-3l-3,2l1,1l-2,2l-4,1l-2,-3l0,-9l-3,-7l-9,0l-3,2l1,1l-3,5l1,1l-2,1l-1,-2l-4,0l-1,-3l-1,1l-2,-2l-4,0l-7,5l0,3l-8,4l3,0l-4,6l-2,-1l1,-9l-3,-2l-7,2l-1,-1l0,-5l-2,-1l-2,-5l2,-6l-3,-1l-2,-3l-4,3l-1,-1l1,-8l-4,-4l2,-1l-4,-1l-5,-8l2,-2l-3,-1l1,-9l-3,-4l0,-6l2,0l-4,-3l-2,-7l5,-5l-2,-3l2,-1l0,-3l2,1l-2,-3l1,-2l3,0l-3,-1l2,-2l-2,-1l1,-2l3,-1l1,2l2,0l-1,-4l3,-1l0,-4l7,2l5,-4l4,-1l2,-2l0,-5l2,0l0,-3l4,1l-2,-1l4,-13l-4,-1z" class="leaflet-clickable" fill-opacity="0.2" fill="#ffffff" stroke-dasharray="1,6" stroke-width="5" fill-rule="evenodd" stroke-linecap="round" stroke-linejoin="round"/>
   </g>
   <g stroke="null" transform="matrix(0.02105477672027101,0,0,0.021092263900498207,163.32545720429977,256.8443693290006) " id="svg_296">
    <path stroke="#46673D" id="svg_297" d="m-7534.263685,-11555.388439l2,2l-2,4l1,2l2,-1l2,6l5,2l2,-1l1,2l1,-3l3,0l5,4l0,-3l2,1l-1,5l6,9l4,0l-1,4l7,-4l10,1l4,-3l1,-4l6,0l1,-2l2,1l3,-9l4,0l4,-6l5,0l2,2l-2,5l-6,5l5,6l4,2l0,3l-3,6l-6,0l0,8l9,-3l7,4l3,-1l2,3l3,1l1,-4l7,4l8,-5l3,0l-1,-5l4,-3l2,-7l8,1l2,2l4,-2l1,2l4,1l-1,2l6,-2l11,2l6,-5l4,1l0,2l3,2l7,-1l3,5l5,2l2,4l5,0l-2,1l1,3l9,8l0,10l-2,2l-10,1l-1,1l1,2l2,0l0,2l-3,2l-3,-2l-4,8l-2,1l4,3l2,6l-1,4l-3,3l1,5l4,2l-2,4l-6,2l-2,-4l-5,-3l-6,0l-1,6l0,-2l-2,-1l-4,2l1,4l-6,0l-3,3l-10,2l-2,2l-10,0l-9,7l-6,-1l-2,-2l-6,4l-2,-2l-3,1l5,11l2,2l3,0l1,4l-2,1l3,0l0,2l6,4l1,2l-2,5l3,4l2,2l7,0l3,2l6,-2l2,12l4,5l3,0l2,2l-4,6l3,-1l5,6l2,0l0,3l4,0l1,2l6,2l1,4l5,4l1,5l4,0l-2,7l-4,-2l-5,3l1,1l-5,1l1,1l-2,3l-2,0l0,8l-3,0l0,5l-2,-1l-8,3l-4,-14l2,-5l-6,-14l-3,1l-3,-3l0,-3l2,-2l-7,-11l-5,0l-4,-5l0,-3l3,0l-1,-5l-5,0l1,-3l5,-1l-7,0l0,-4l-8,-5l-5,0l-1,-7l0,7l-1,-7l-2,-1l1,6l-2,4l-13,-4l-6,0l-2,3l-7,2l-8,0l-3,2l-3,-1l-6,8l-14,-4l-11,-6l-3,-4l-4,-1l0,-2l2,-1l-8,-9l0,-3l1,-2l3,0l1,-9l4,0l3,-5l2,-5l-1,-3l7,0l2,-8l-2,-4l-6,2l-1,-5l-2,-2l-1,-6l4,-3l-2,-16l-2,-1l0,-2l-2,2l1,3l-3,0l0,-4l-4,0l-2,-15l0,-2l2,-1l-2,-5l3,-3l-2,-6l-13,-13l-14,-9l-2,1l-3,-4l2,-10l-2,-4l5,-1l0,-5l18,-2l0,-2z" class="leaflet-clickable" fill-opacity="0.2" fill="#ffffff" stroke-dasharray="1,6" stroke-width="5" fill-rule="evenodd" stroke-linecap="round" stroke-linejoin="round"/>
   </g>
   <g stroke="null" transform="matrix(0.02105477672027101,0,0,0.021092263900498207,163.32545720429977,256.8443693290006) " id="svg_298">
    <path stroke="#46673D" id="svg_299" d="m-7335.263685,-11499.388439l-9,-8l-1,-3l2,-1l-5,0l-2,-4l-5,-2l-3,-5l-7,1l-3,-4l-4,-1l-6,5l-11,-2l-6,2l0,-3l-3,0l-1,-2l-4,2l-2,-2l-8,-1l-2,7l-4,3l1,4l-11,6l-4,-3l-1,1l-1,-2l-2,4l-3,0l-2,-4l-3,1l-7,-4l-8,3l-2,-1l1,-6l3,-2l3,1l3,-6l0,-3l-9,-7l1,-3l5,-3l2,-5l-2,-2l-5,0l-4,6l-4,0l-3,9l-8,2l-1,-1l-1,4l-4,3l-10,-1l-6,4l0,-4l-4,-1l-4,-4l-2,-4l1,-5l-2,-1l0,3l-1,-2l-6,-2l-2,3l-1,-2l-2,1l-5,-2l-2,-6l-2,1l-1,-2l2,-3l-2,-5l4,-7l-1,-3l2,-2l1,-6l4,-4l5,-2l0,-3l6,-1l2,0l6,10l-1,9l3,3l12,-9l3,4l3,0l0,4l5,-4l8,-1l2,-2l0,-3l3,-1l-2,-4l-4,0l1,-2l-3,0l2,-2l-7,-9l6,-6l5,1l0,-2l2,-1l1,2l4,-6l3,-1l7,4l13,-6l3,2l6,-1l4,8l5,-3l6,5l12,-9l3,-8l6,2l1,-2l4,-1l4,-8l4,-2l1,-3l4,-3l1,-4l8,2l0,12l5,9l-1,3l2,8l3,0l0,4l-3,1l0,2l2,2l2,-2l3,1l-1,4l6,5l-1,2l-3,0l-1,4l2,1l-2,4l11,-3l5,6l4,-1l7,5l4,-1l5,4l2,-1l2,2l0,5l3,-1l0,-2l2,-1l9,1l6,-2l3,4l1,6l6,-2l-1,2l2,4l-5,10l-10,-2l-7,9l2,2l0,3l-2,1l1,8l-7,1l-4,4l-6,-3l-5,3l-4,0l-4,5l-1,4l0,3z" class="leaflet-clickable" fill-opacity="0.2" fill="#ffffff" stroke-dasharray="1,6" stroke-width="5" fill-rule="evenodd" stroke-linecap="round" stroke-linejoin="round"/>
   </g>
   <g stroke="null" transform="matrix(0.02105477672027101,0,0,0.021092263900498207,163.32545720429977,256.8443693290006) " id="svg_300">
    <path stroke="#46673D" id="svg_301" stroke-dasharray="1,6" d="m-6778.263685,-11794.388439l10,-4l0,-2l2,0l0,-4l3,1l2,-3l2,1l0,-5l2,3l5,0l-1,-2l4,1l-1,1l4,2l-1,3l-4,1l0,3l2,1l1,5l4,5l1,-4l2,0l1,-2l2,1l0,-2l6,2l1,6l6,1l11,0l6,-1l2,-2l2,3l7,2l12,-4l4,2l-1,-2l2,0l3,2l1,3l-4,4l-1,-2l-3,0l-8,6l0,2l3,-1l-5,7l1,2l-2,1l0,3l3,0l2,7l3,2l-1,2l-6,2l2,3l-1,2l-11,0l-2,4l0,9l-3,4l4,2l8,-3l4,1l-5,7l2,4l-2,3l0,6l-6,6l-2,-1l1,-4l-7,0l-1,1l3,5l2,0l-7,3l-3,-1l-1,3l-5,3l-1,-2l-1,2l-14,-3l-6,1l2,-4l-1,-5l-3,2l-5,-1l3,-8l-2,-1l-3,2l-1,3l-3,0l-2,2l-2,5l-3,-14l-4,0l-3,3l-25,10l-1,6l-17,7l3,11l-6,-2l0,-4l-6,0l2,5l-5,1l2,-3l-4,0l-2,-4l-3,0l2,-3l10,-6l-6,1l-6,6l0,2l-4,-3l-7,-1l-5,-9l0,-2l4,-2l-3,-3l0,-4l-7,3l-1,-3l-4,-1l-5,-5l-1,-5l-2,1l-4,-3l2,-3l0,-8l6,-4l6,-7l3,-1l2,3l2,0l1,-2l2,1l-2,1l6,4l4,0l3,-4l6,3l10,0l2,-2l0,-4l3,3l3,-2l2,3l4,-1l0,-3l2,1l0,2l5,0l4,-7l-3,-12l4,-1l3,-9l2,1l7,-6l0,-5l4,-4l4,-10l-1,-3z" class="leaflet-clickable" fill-opacity="0.2" fill="#ffffff" stroke-width="5" fill-rule="evenodd" stroke-linecap="round" stroke-linejoin="round"/>
   </g>
   <g stroke="null" transform="matrix(0.02105477672027101,0,0,0.021092263900498207,163.32545720429977,256.8443693290006) " id="svg_302">
    <path stroke="#46673D" id="svg_303" stroke-dasharray="1,6" d="m-6744.263685,-11798.388439l-2,-1l2,-2l4,3l-4,0z" class="leaflet-clickable" fill-opacity="0.2" fill="#ffffff" stroke-width="5" fill-rule="evenodd" stroke-linecap="round" stroke-linejoin="round"/>
   </g>
   <g stroke="null" transform="matrix(0.02105477672027101,0,0,0.021092263900498207,163.32545720429977,256.8443693290006) " id="svg_304">
    <path stroke="#46673D" id="svg_305" stroke-dasharray="1,6" d="m-6735.263685,-11678.388439l0,1l0,-1z" class="leaflet-clickable" fill-opacity="0.2" fill="#ffffff" stroke-width="5" fill-rule="evenodd" stroke-linecap="round" stroke-linejoin="round"/>
   </g>
   <g stroke="null" transform="matrix(0.02105477672027101,0,0,0.021092263900498207,163.32545720429977,256.8443693290006) " id="svg_306">
    <path stroke="#46673D" id="svg_307" stroke-dasharray="1,6" d="m-6834.263685,-11675.388439l2,0l-2,0z" class="leaflet-clickable" fill-opacity="0.2" fill="#ffffff" stroke-width="5" fill-rule="evenodd" stroke-linecap="round" stroke-linejoin="round"/>
   </g>
   <g stroke="null" transform="matrix(0.02105477672027101,0,0,0.021092263900498207,163.32545720429977,256.8443693290006) " id="svg_308">
    <path stroke="#46673D" id="svg_309" stroke-dasharray="1,6" d="m-6817.263685,-11672.388439l1,-2l-1,2z" class="leaflet-clickable" fill-opacity="0.2" fill="#ffffff" stroke-width="5" fill-rule="evenodd" stroke-linecap="round" stroke-linejoin="round"/>
   </g>
   <g stroke="null" transform="matrix(0.02105477672027101,0,0,0.021092263900498207,163.32545720429977,256.8443693290006) " id="svg_310">
    <path stroke="#46673D" id="svg_311" stroke-dasharray="1,6" d="m-6706.263685,-11790.388439l1,0l-1,0z" class="leaflet-clickable" fill-opacity="0.2" fill="#ffffff" stroke-width="5" fill-rule="evenodd" stroke-linecap="round" stroke-linejoin="round"/>
   </g>
   <g stroke="null" transform="matrix(0.02105477672027101,0,0,0.021092263900498207,163.32545720429977,256.8443693290006) " id="svg_312">
    <path stroke="#46673D" id="svg_313" d="m-7069.263685,-11492.388439l-6,22l-3,2l-2,5l0,3l2,1l-2,3l-4,2l-1,3l2,0l-2,1l0,4l-3,-4l-2,0l-10,10l-3,14l2,0l0,2l-2,0l-1,2l4,2l1,3l-2,0l-5,5l1,1l-3,0l-1,-2l-6,1l-2,-6l-4,-1l-2,0l-3,3l-4,-5l-3,-1l1,-3l-5,-5l5,-3l2,-7l-1,-5l-3,-1l-2,-3l1,-2l-7,0l-3,-6l-9,-4l-2,1l0,5l-3,3l-4,0l-8,-5l1,-4l-2,0l-2,3l-9,-1l-1,2l-4,1l-5,-3l-9,2l-4,-8l5,-1l-1,-4l3,-2l6,1l5,-5l-5,-4l0,-3l5,-6l0,-9l7,-9l2,-6l-1,-2l-6,1l-6,-2l-1,-8l4,-9l3,-1l0,-4l3,-6l4,-1l1,-4l10,-3l1,-2l-3,-2l2,-3l11,-1l3,-4l3,2l-1,8l6,0l0,2l2,1l13,-2l0,7l-6,5l3,2l1,-2l3,3l4,0l8,-5l2,0l0,2l2,1l4,-1l4,6l-2,2l2,2l-1,10l8,-5l7,0l2,4l-2,1l5,6l-1,5l2,4l-2,8l3,3l0,3l5,0l5,-3l5,3l1,0z" class="leaflet-clickable" fill-opacity="0.2" fill="#ffffff" stroke-dasharray="1,6" stroke-width="5" fill-rule="evenodd" stroke-linecap="round" stroke-linejoin="round"/>
   </g>
   <g stroke="null" transform="matrix(0.02105477672027101,0,0,0.021092263900498207,163.32545720429977,256.8443693290006) " id="svg_314">
    <path stroke="#46673D" id="svg_315" d="m-7128.263685,-11417.388439l-8,2l-4,7l-14,0l-7,2l-5,-1l-6,3l0,13l-7,11l-1,5l-4,0l2,3l-1,5l-5,0l0,4l-3,1l3,4l3,-1l3,3l-6,5l-4,0l-2,2l-5,-3l-2,2l-4,-2l-1,-3l-5,2l-3,-1l-2,3l-7,3l-1,2l2,6l-4,-1l-2,6l2,13l-3,4l-2,7l-3,3l-12,-1l-1,3l-8,0l0,4l-4,0l0,-2l-1,2l0,-12l-6,-5l1,-2l3,-1l3,-6l-14,-4l5,-7l-3,-3l1,-2l-10,-2l-1,2l-1,-2l-2,0l0,-2l-4,-1l-3,2l-4,-1l0,4l-13,0l3,-10l0,-8l-4,-1l-3,-5l3,-2l1,-3l-7,-4l-7,-10l4,-6l0,-8l2,-2l-5,-1l0,-4l-11,-9l-5,-8l-3,0l-4,-3l0,-3l-10,-5l-1,-4l-2,-1l-1,-2l6,-2l2,-4l-5,-5l4,-9l-2,-6l-4,-3l2,-1l4,-8l3,2l2,-2l1,-2l-2,0l0,-3l10,-1l2,-2l-1,-8l2,-9l3,-5l5,0l5,-3l6,3l4,-4l7,-1l-1,-8l2,-1l0,-3l-2,-1l2,-4l5,-6l10,2l5,-9l-1,-3l4,0l2,-6l3,-1l2,-4l4,-2l9,2l4,6l-2,1l8,7l7,-4l1,1l9,-7l3,0l6,6l6,-2l-2,-6l-3,-3l1,-2l4,2l2,-1l-2,-8l3,-3l-3,-1l1,-2l6,-2l1,-3l7,-5l6,2l1,-1l3,4l1,-1l2,2l2,-1l-1,-3l3,-3l-1,-1l3,-2l9,0l1,5l2,2l0,9l2,2l4,0l2,-2l-1,-1l3,-1l6,4l4,-1l6,2l-3,5l1,4l-2,1l-4,-3l-3,4l-11,1l-2,3l3,2l-1,2l-10,3l-1,4l-4,1l0,3l-3,3l0,4l-3,1l-4,9l1,7l2,2l11,1l-2,7l-7,9l0,9l-5,6l0,3l5,4l-5,5l-5,-1l-4,2l0,3l2,1l-6,1l1,4l3,3l9,-1l5,3l4,-1l1,-2l9,1l4,-3l-1,4l7,3l1,2l4,0l3,-3l0,-5l2,-1l10,5l2,5l7,-1l-1,2l3,5l2,0l1,5l-2,7l-5,3l5,5l-1,3l4,2l1,3z" class="leaflet-clickable" fill-opacity="0.2" fill="#ffffff" stroke-dasharray="1,6" stroke-width="5" fill-rule="evenodd" stroke-linecap="round" stroke-linejoin="round"/>
   </g>
   <g stroke="null" transform="matrix(0.02105477672027101,0,0,0.021092263900498207,163.32545720429977,256.8443693290006) " id="svg_316">
    <path stroke="#46673D" id="svg_317" d="m-7470.263685,-11623.388439l-1,-3l-4,0l0,-3l-6,0l0,-5l-8,-7l2,-19l-1,-10l-3,-4l3,-5l-1,-5l-3,-1l4,-3l-1,-1l2,-6l2,-1l-2,-5l2,-2l3,0l-1,-4l3,-2l-1,-2l-2,1l-3,-4l-6,2l-4,-3l-1,2l-2,0l-2,-3l-7,-3l0,-3l-2,-1l-2,4l2,0l-3,3l1,2l-5,3l-2,7l-6,4l-26,0l-5,-4l-1,2l-2,0l0,-2l-3,-1l0,2l-5,-1l-2,2l-2,-4l4,-7l-2,-3l2,-3l2,0l0,-3l8,-9l2,-7l-1,-4l4,-5l-1,-1l2,-6l5,0l2,-2l-1,-5l3,-8l-2,0l2,-1l-2,-2l5,-1l-1,-1l3,-2l3,1l1,-2l6,0l8,-3l2,3l7,1l6,-7l-3,-3l1,-1l-5,1l2,-4l-3,-5l2,0l1,-2l4,4l0,-2l2,-1l-1,-3l2,-1l-2,0l-1,-3l2,1l-1,-2l2,-6l1,1l4,-2l-2,-1l7,4l-1,4l8,10l2,-5l5,-3l12,-15l7,-6l0,-4l4,-2l2,-7l6,-2l0,-4l2,2l2,-3l-1,-4l5,-5l1,-3l6,2l10,-2l11,2l9,-2l24,1l11,-4l8,4l4,-2l9,-15l4,-11l3,2l1,7l-1,2l-5,2l2,3l0,4l4,1l1,4l3,2l-2,4l-3,2l-2,6l-4,3l4,3l-1,2l2,1l-2,1l-1,4l-4,0l-3,5l-4,-2l-3,1l-2,-3l-5,5l-2,-1l0,-8l-1,4l-4,3l0,10l-4,4l-2,7l-4,0l-5,8l-12,1l-1,6l-10,1l0,5l-3,4l2,3l-3,3l0,3l2,6l4,3l-1,1l2,2l-3,6l2,1l0,2l3,0l0,9l-2,1l0,2l-15,3l0,8l3,2l-6,3l-2,3l-2,0l3,6l5,1l0,4l-2,0l5,3l0,12l-2,-1l-1,3l-7,1l1,2l-3,1l0,4l3,5l-11,6l-3,3l0,5l-2,1l-1,3l-8,4l0,3l-4,2l-2,6l-2,-1l-3,4l2,4l-3,0l-1,2l2,2l1,7l-3,2l-6,1z" class="leaflet-clickable" fill-opacity="0.2" fill="#ffffff" stroke-dasharray="1,6" stroke-width="5" fill-rule="evenodd" stroke-linecap="round" stroke-linejoin="round"/>
   </g>
   <g stroke="null" transform="matrix(0.02105477672027101,0,0,0.021092263900498207,163.32545720429977,256.8443693290006) " id="svg_318">
    <path stroke="#46673D" id="svg_319" d="m-7570.263685,-11705.388439l1,3l2,-2l5,1l0,-2l5,3l1,-2l5,4l11,1l6,-2l6,2l9,-5l2,-7l4,-1l1,-2l-1,-1l3,-4l-2,0l2,-4l2,1l0,3l7,2l2,4l2,0l1,-2l4,3l6,-2l3,4l2,-1l1,2l-3,2l-1,3l2,1l-3,0l-2,2l2,5l-3,3l0,5l-4,3l3,1l1,5l-3,5l3,4l1,10l-2,19l6,4l2,3l0,5l6,0l0,3l4,0l1,3l-2,4l-4,2l-2,6l-5,0l-2,3l-13,4l-6,8l0,3l-4,3l-3,5l-8,0l0,4l-5,2l-4,4l-5,1l-5,7l-13,6l-3,-1l-5,4l-5,-2l-3,1l-4,6l-8,1l-7,7l-5,-1l-12,6l0,-3l-3,0l0,4l-4,2l-7,10l-5,4l-4,-2l2,-10l-2,-1l3,-1l1,-4l0,-4l-2,-3l2,-5l10,-6l0,-7l2,-2l-1,-1l3,-4l1,-5l0,-13l-3,-11l-2,1l-3,-3l0,-5l-1,-1l-6,3l-1,-1l2,-3l-3,-4l0,-4l-1,-2l-6,-3l3,-6l-3,-2l-1,1l1,-3l-2,0l-1,-3l2,0l1,-2l-1,-3l2,0l3,-3l1,-6l2,-1l-1,-3l2,-3l1,1l6,-9l5,-4l3,-9l4,-2l2,1l2,-3l6,1l13,-6l0,-4l3,-7l4,-4l3,0l1,-2z" class="leaflet-clickable" fill-opacity="0.2" fill="#ffffff" stroke-dasharray="1,6" stroke-width="5" fill-rule="evenodd" stroke-linecap="round" stroke-linejoin="round"/>
   </g>
   <g stroke="null" transform="matrix(0.02105477672027101,0,0,0.021092263900498207,163.32545720429977,256.8443693290006) " id="svg_320">
    <path stroke="#46673D" id="svg_321" d="m-7605.263685,-11541.388439l1,-1l1,2l-3,1l1,-2z" class="leaflet-clickable" fill-opacity="0.2" fill="#ffffff" stroke-dasharray="1,6" stroke-width="5" fill-rule="evenodd" stroke-linecap="round" stroke-linejoin="round"/>
   </g>
   <g stroke="null" transform="matrix(0.02105477672027101,0,0,0.021092263900498207,163.32545720429977,256.8443693290006) " id="svg_322">
    <path stroke="#46673D" id="svg_323" d="m-7377.263685,-11804.388439l2,-7l4,-4l0,-10l4,-3l1,-4l1,9l4,-2l2,-3l2,3l2,-1l5,2l1,-3l6,-2l3,-5l-2,-1l0,-4l-3,-1l4,-2l1,-5l6,-7l-3,-3l0,-3l-5,-2l0,-4l-2,-3l5,-2l1,-2l-1,-7l-2,-2l1,-7l3,-3l16,0l3,-3l0,-3l6,-5l-1,-3l4,-1l-1,-3l4,-9l10,-10l-1,2l16,14l4,-2l8,1l9,4l5,6l4,0l-3,5l3,2l-3,4l1,15l-2,1l1,4l-2,0l2,3l2,7l-1,2l2,4l0,-2l1,3l6,-3l1,2l2,-1l2,4l-1,1l2,0l-1,2l2,0l-1,1l2,4l-2,0l-1,5l2,2l-2,0l-1,3l-2,0l0,3l-4,8l-5,1l-6,-2l-3,2l-3,5l0,3l-4,5l1,3l6,0l-5,6l-3,13l3,0l3,4l0,3l-4,2l3,1l1,3l7,-4l1,3l3,0l0,-2l3,3l6,1l0,8l7,5l0,3l-3,4l5,9l-1,3l-5,4l1,5l-2,3l1,2l-2,6l-5,4l-5,1l0,3l-2,0l-1,3l-4,0l0,-2l-4,-1l-1,-3l-2,-1l-1,-3l1,-3l2,0l0,-3l-2,0l-1,-4l-2,-2l-7,3l-2,-3l4,-3l-2,-3l0,-4l2,-1l-1,-1l2,-2l-1,-3l-4,0l0,-2l-3,-1l0,2l-4,0l0,-8l-4,-2l-2,2l-1,-3l-6,3l-2,-2l-5,-1l-8,6l-2,0l-8,-2l-5,-3l-2,1l-2,6l-4,5l-1,5l-2,3l-3,1l1,3l3,2l-2,1l1,3l22,4l13,0l-1,5l4,1l0,7l5,0l0,3l4,5l0,3l1,-2l2,1l0,2l-3,1l0,2l-3,3l-3,0l-2,2l-6,0l-2,10l5,5l0,2l-2,1l-1,-3l-7,11l-6,0l-1,-1l3,-3l0,-4l-6,-1l-2,-5l-9,-6l-4,-5l1,-5l-2,-5l-5,-3l4,-2l-2,-5l-2,0l-2,3l-1,-2l-4,0l0,2l-10,1l-3,-1l-2,-6l-6,-4l0,-2l3,-2l0,-5l3,1l10,-4l2,-4l-1,-6l-6,-10l1,-3l3,0l0,-3l1,1l0,-4l-4,-8l1,-7l-7,-6l1,-5l-2,-3l-8,0l2,-1l-3,-2l4,-2l0,-2l-1,-2l-3,0l-1,-3l-1,-1z" class="leaflet-clickable" fill-opacity="0.2" fill="#ffffff" stroke-dasharray="1,6" stroke-width="5" fill-rule="evenodd" stroke-linecap="round" stroke-linejoin="round"/>
   </g>
   <g stroke="null" transform="matrix(0.02105477672027101,0,0,0.021092263900498207,163.32545720429977,256.8443693290006) " id="svg_324">
    <path stroke="#46673D" id="svg_325" d="m-7230.263685,-11884.388439l0,-5l1,5l-1,0z" class="leaflet-clickable" fill-opacity="0.2" fill="#ffffff" stroke-dasharray="1,6" stroke-width="5" fill-rule="evenodd" stroke-linecap="round" stroke-linejoin="round"/>
   </g>
   <g stroke="null" transform="matrix(0.02105477672027101,0,0,0.021092263900498207,163.32545720429977,256.8443693290006) " id="svg_326">
    <path stroke="#46673D" id="svg_327" d="m-7556.263685,-11536.388439l-1,5l2,4l3,-1l14,9l13,13l2,6l-3,3l2,4l-2,2l2,17l4,0l0,4l3,0l-1,-3l2,-2l0,2l2,0l2,17l-4,3l1,6l2,2l1,5l6,-2l2,4l-2,8l-4,-2l-1,2l-2,0l0,6l-4,7l-4,0l-1,8l-3,1l-1,5l8,8l-2,4l4,1l3,4l11,6l14,4l-1,15l-4,1l-1,5l4,1l-2,7l-2,2l2,2l-7,6l-5,-1l-1,4l-4,5l-4,-4l-9,4l-5,-9l-9,2l-4,-4l-2,1l0,4l-2,1l-16,3l-1,-1l-2,2l-8,-5l-6,0l-1,-2l-1,5l-2,2l-8,-3l-8,1l-6,-2l-7,-9l0,-3l-2,-2l-1,-10l2,-1l-3,-10l-2,0l-2,-4l-10,-4l-6,0l-2,2l-2,-1l1,-9l-6,-1l2,-7l-8,0l-4,-7l-7,0l-5,5l-3,-3l-8,0l-3,3l-2,-3l-4,-2l1,-3l-2,0l-1,3l-4,-1l3,-4l-3,-1l0,-5l4,-1l3,-3l0,-2l-6,-6l3,-5l9,-2l0,-9l6,-2l-2,-2l7,-7l3,-9l5,0l2,-6l1,2l2,0l0,-2l0,3l2,-4l13,0l9,-9l7,-2l-2,-9l2,-1l0,-2l1,1l2,-3l1,1l3,-5l0,-3l9,-14l6,-3l7,0l14,-4l0,-5l2,0l0,-3l1,1l1,-3l1,1l0,-3l3,0l2,-3l6,1l6,-2l0,-2l1,2l1,-1z" class="leaflet-clickable" fill-opacity="0.2" fill="#ffffff" stroke-dasharray="1,6" stroke-width="5" fill-rule="evenodd" stroke-linecap="round" stroke-linejoin="round"/>
   </g>
  </g>
 </g>
</svg>