<svg width="24" height="24" xmlns="http://www.w3.org/2000/svg">
 <!-- Created with Method Draw - http://github.com/duopixel/Method-Draw/ -->
 <g>
  <title>background</title>
  <rect fill="#fff" id="canvas_background" height="26" width="26" y="-1" x="-1"/>
  <g display="none" overflow="visible" y="0" x="0" height="100%" width="100%" id="canvasGrid">
   <rect fill="url(#gridpattern)" stroke-width="0" y="0" x="0" height="100%" width="100%"/>
  </g>
 </g>
 <g>
  <title>Layer 1</title>
  <rect stroke="#000" id="svg_1" height="14.678898" width="0.417013" y="2.946883" x="1.616347" stroke-width="0" fill="#000000"/>
  <rect stroke="#000" id="svg_2" height="0.333613" width="21.601334" y="17.208768" x="1.532945" stroke-width="0" fill="#000000"/>
  <rect id="svg_3" height="8.507089" width="1.501251" y="8.618276" x="5.53628" stroke-width="0" stroke="#000" fill="#619E73"/>
  <rect stroke="#000" id="svg_4" height="10.00834" width="1.417848" y="7.033622" x="9.372811" stroke-width="0" fill="#619E73"/>
  <rect id="svg_5" height="7.839866" width="1.751459" y="9.202096" x="13.125938" stroke-width="0" stroke="#000" fill="#619E73"/>
  <ellipse ry="0.667223" rx="0.792327" id="svg_8" cy="20.586581" cx="11.666389" stroke-opacity="null" stroke-width="0" stroke="#000" fill="#C97A86"/>
  <ellipse ry="0.667223" rx="0.792327" id="svg_9" cy="20.586581" cx="6.245205" stroke-opacity="null" stroke-width="0" stroke="#000" fill="#C97A86"/>
  <ellipse ry="0.667223" rx="0.792327" id="svg_10" cy="20.586583" cx="17.254379" stroke-opacity="null" stroke-width="0" stroke="#000" fill="#C97A86"/>
  <path stroke="#000" id="svg_11" d="m7.333024,20.434826l0.894657,-0.417016l0,0.208507l1.296592,0l0,-0.208507l0.894656,0.417016l-0.894656,0.417013l0,-0.208507l-1.296592,0l0,0.208507l-0.894657,-0.417013z" stroke-opacity="null" stroke-width="0" fill="#559E84"/>
  <path stroke="#000" id="svg_12" d="m13.087816,20.43483l0.89466,-0.41702l0,0.20851l1.29659,0l0,-0.20851l0.89466,0.41702l-0.89466,0.41701l0,-0.20851l-1.29659,0l0,0.20851l-0.89466,-0.41701z" stroke-opacity="null" stroke-width="0" fill="#559E84"/>
  <path id="svg_13" d="m18.9586,0.917179c-2.118882,0 -3.836531,1.698978 -3.836531,3.794829c0,2.095851 1.717649,3.794829 3.836531,3.794829c2.118882,0 3.836531,-1.698978 3.836531,-3.794829c0,-2.095851 -1.717649,-3.794829 -3.836531,-3.794829zm0,6.806097c-1.679109,0 -3.044623,-1.350932 -3.044623,-3.011268c0,-1.660597 1.365514,-3.011529 3.044623,-3.011529c1.679109,0 3.044359,1.350671 3.044359,3.011529c0,1.660858 -1.365777,3.011268 -3.044359,3.011268zm-0.000264,-5.850731c-0.145975,0 -0.263705,0.116973 -0.263705,0.2611l0,2.407604l-1.595959,0.690349c-0.133568,0.057964 -0.194281,0.212013 -0.13568,0.34413c0.043291,0.097913 0.139904,0.156399 0.241532,0.156399c0.035372,0 0.071536,-0.00705 0.105852,-0.022194l1.749061,-0.756668c0.00132,-0.000522 0.002376,-0.001044 0.003432,-0.001567l0.001056,-0.000522c0.00396,-0.001567 0.006071,-0.005222 0.009767,-0.006528c0.027453,-0.013577 0.053058,-0.029504 0.073647,-0.050915c0.008975,-0.008877 0.01399,-0.020366 0.020854,-0.030549c0.012671,-0.01671 0.026661,-0.03316 0.034316,-0.053264c0.006335,-0.015666 0.006863,-0.032638 0.010031,-0.049348c0.003432,-0.016972 0.010031,-0.031854 0.010031,-0.048826l0,-2.578364c0,-0.143866 -0.118258,-0.260839 -0.264233,-0.260839z" stroke-opacity="null" stroke-width="0" stroke="#000" fill="#559E84"/>
 </g>
</svg>