<svg width="24" height="24" xmlns="http://www.w3.org/2000/svg">
 <!-- Created with Method Draw - http://github.com/duopixel/Method-Draw/ -->
 <g>
  <title>background</title>
  <rect fill="#fff" id="canvas_background" height="26" width="26" y="-1" x="-1"/>
  <g display="none" overflow="visible" y="0" x="0" height="100%" width="100%" id="canvasGrid">
   <rect fill="url(#gridpattern)" stroke-width="0" y="0" x="0" height="100%" width="100%"/>
  </g>
 </g>
 <g>
  <title>Layer 1</title>
  <rect stroke="#000000" rx="2" id="svg_9" height="17.431193" width="17.339449" y="1.399368" x="1.678899" fill="none"/>
  <rect stroke="#000000" rx="2" id="svg_22" height="18.715596" width="17.06422" y="3.417716" x="5.165138" fill="#ffffff"/>
  <rect stroke="#ffffff" id="svg_23" height="9.999999" width="9.541284" y="13.417717" x="13.788991" stroke-width="null" fill="#ffffff"/>
  <path stroke="#ffffff" d="m19.660551,13.692945c0,0 -0.006983,-0.126851 -0.091743,-0.091743c-0.119867,0.04965 -0.183487,0.091743 -0.183487,0.275229c0,0.183486 -0.091743,0.183486 -0.091743,0.275229c0,0.183487 -0.113268,0.289197 -0.183485,0.458716c-0.049652,0.119868 -0.302101,0.393843 -0.366974,0.458715c-0.194616,0.194616 0.114666,0.409412 -0.183485,0.642201c-0.072313,0.05646 -0.130316,0.191359 -0.183487,0.366972c-0.095856,0.316591 -0.313656,0.313658 -0.458715,0.458715c-0.14506,0.145058 -0.091743,0.27523 -0.183487,0.366974c-0.091742,0.091742 -0.148376,0.190468 -0.183485,0.275229c-0.049652,0.119869 -0.200804,0.129843 -0.27523,0.183487c-0.235353,0.169634 -0.225576,0.338846 -0.275229,0.458715c-0.035109,0.084761 -0.118614,0.302099 -0.183487,0.366972c-0.064873,0.064873 -0.123505,0.156466 -0.275229,0.366972c-0.119949,0.166422 -0.359413,0.310724 -0.458715,0.550459c-0.070217,0.169519 -0.148378,0.282213 -0.183487,0.366974c-0.099302,0.239735 -0.275229,0.366972 -0.366972,0.6422l-0.091743,0.091743l0,0.091743" id="svg_24" stroke-width="null" fill="none"/>
  <path d="m20.211008,14.610377c0,0 -0.11231,0.082828 -0.183485,0.275229c-0.131239,0.35477 -0.098867,0.601652 -0.458715,1.100917c-0.303452,0.421018 -0.461975,0.871949 -0.733946,1.284404c-0.142845,0.216631 -0.458715,0.550459 -0.733944,0.825687c-0.366974,0.366974 -0.825689,1.009174 -0.917431,1.100918c-0.183485,0.183489 -0.550459,0.550459 -0.733946,0.825687l-0.091743,0.183487l-0.183485,0.091743l0,0.091743" id="svg_25" stroke-opacity="null" stroke-width="null" stroke="#ffffff" fill="none"/>
  <path d="m17.183487,15.986524c0,0 0.03857,0.007873 0.091742,0.183486c0.095856,0.316593 0.451149,0.739143 0.642202,1.009174c0.264942,0.374468 0.278488,0.688463 0.550459,1.100918c0.071423,0.108316 0.340746,0.478134 0.550459,0.733944c0.082256,0.100338 0.140198,0.194342 0.183487,0.27523c0.156082,0.291645 0.550457,0.550459 0.6422,0.733944l0.183487,0.183487" id="svg_26" stroke-opacity="null" stroke-width="null" stroke="#ffffff" fill="none"/>
  <path stroke="#ff0000" d="m21.220184,14.885605c-0.27523,0 -0.550461,0.564575 -0.825691,1.317338c-0.275225,0.752763 -0.982435,2.095129 -1.376146,2.822864c-0.427042,0.789341 -1.651376,1.129146 -2.477062,1.693722c-0.27523,0.188192 -0.550461,0.564571 -1.376146,1.317338l-0.27523,0.188188" id="svg_27" stroke-width="null" fill="#ffffff"/>
  <path d="m15.348623,15.436065c0,0 0.002454,-0.021078 0.091743,0c0.199656,0.047132 0.499053,0.406997 1.009174,1.009175c0.335453,0.39599 0.946569,0.790613 1.284403,1.100916c0.637424,0.58548 0.968628,0.649324 1.467892,1.009174c0.421017,0.303452 0.656988,0.802422 1.100916,1.100918c0.380667,0.255959 0.753365,0.524233 1.009174,0.733946c0.200674,0.164513 0.384039,0.247023 0.550459,0.366972c0.105255,0.075863 0.118614,0.118614 0.183487,0.183487c0.064873,0.064873 0.183485,0 0.275229,0.091742c0.091743,0.091743 0.183487,0.091743 0.183487,0.183487c0,0.091743 0,0.183487 0,0.275229l0.091743,0.091743l0.091742,0l0.091743,0.091743" id="svg_28" stroke-width="null" stroke="#ff0000" fill="none"/>
  <path d="m19.844036,16.628725c0,0 -0.156898,0.09568 -0.183485,0.183487c-0.095856,0.316591 -0.338766,0.384037 -0.458715,0.550459c-0.075863,0.105255 -0.141331,0.280136 -0.183487,0.458715c-0.047132,0.199656 -0.155281,0.292294 -0.27523,0.458715c-0.151726,0.210508 -0.257931,0.195837 -0.458715,0.458715c-0.176098,0.230556 -0.155279,0.384037 -0.275229,0.550459c-0.075863,0.105255 -0.183487,0.275229 -0.366972,0.458715c-0.091743,0.091743 -0.183487,0.275229 -0.27523,0.366972l-0.091743,0.091743l-0.091742,0.183487" id="svg_29" stroke-width="null" stroke="#ff0000" fill="none"/>
  <path d="m14.706422,21.858084c0,0 -0.064871,0.118614 0,0.183485c0.064873,0.064873 0.183486,0 0.275229,0l0.091743,0l0.091743,0" id="svg_30" stroke-width="null" stroke="#ff0000" fill="none"/>
  <path d="m20.577982,14.70212c0,0 -0.098726,-0.035109 -0.183487,0c-0.119869,0.049651 -0.133835,0.155361 -0.183487,0.275229c-0.070217,0.169518 -0.100723,0.442609 -0.275229,0.550459c-0.078041,0.048232 -0.183487,0.275229 -0.183487,0.366972c0,0.091743 -0.091742,0.275229 -0.091742,0.366973c0,0.091743 0,0.183487 0,0.275229c0,0.091743 0.064873,0.302101 0,0.366974c-0.064873,0.064873 -0.183487,0.091742 -0.183487,0.183485l0,0.091743l-0.091743,0.091743l-0.183485,0.275229" id="svg_31" stroke-width="null" stroke="#ff0000" fill="none"/>
  <path d="m15.073395,15.069093c0,0 -0.091743,0.091743 -0.091743,0.183486c0,0.183486 0.026871,0.210357 0.091743,0.275229c0.064872,0.064872 0.035493,0.175927 0.275229,0.275229c0.08476,0.035109 0.155361,0.133835 0.275229,0.183486c0.08476,0.03511 0.183487,0.091743 0.275229,0.091743l0.091743,0" id="svg_32" stroke-width="null" stroke="#ff0000" fill="none"/>
  <path d="m22.871559,21.582853c0,0 0,-0.091743 0,-0.183485l0,-0.091743l0,-0.091743" id="svg_33" stroke-width="null" stroke="#ff0000" fill="none"/>
  <path d="m20.944954,13.417716c0,0 -0.091743,0 -0.091743,0.091743c0,0.091743 0,0.275229 0,0.366973c0,0.183486 0,0.275229 0,0.366972c0,0.091743 -0.077047,0.18467 -0.091743,0.275229c-0.046471,0.286371 -0.091742,0.458715 -0.183485,0.550459l0,0.275229l-0.183487,0.183486l-0.091743,0.183486" id="svg_34" stroke-width="null" stroke="#ff0000" fill="none"/>
  <path d="m17.733944,20.573679c0,0 -0.056633,0.006983 -0.091742,0.091743c-0.099302,0.239737 -0.27523,0.27523 -0.366974,0.27523c-0.091742,0 -0.183485,0.091742 -0.275229,0.183485c-0.091743,0.091743 -0.282425,0.164209 -0.550459,0.27523c-0.189528,0.078505 -0.393843,0.118612 -0.458715,0.183485c-0.129745,0.129744 -0.275229,0.183487 -0.366973,0.183487l-0.183486,0l-0.183486,0.091743" id="svg_35" stroke-width="null" stroke="#ff0000" fill="none"/>
  <path d="m14.889908,14.518634c0,0 0.035494,0.175927 0.275229,0.275229c0.08476,0.035109 0.210357,0.026871 0.275229,0.091743c0.064872,0.064872 0.091743,0.091743 0.091743,0.275229l0.091743,0l0.183487,0.091743l0,0.091743" id="svg_36" stroke-width="null" stroke="#ff0000" fill="none"/>
  <path d="m23.238531,21.49111c-0.091742,0 -0.183485,0 -0.275229,0c-0.091743,0 -0.183487,0.091743 -0.27523,0.091743l-0.091742,0l-0.183487,0" id="svg_37" stroke-width="null" stroke="#ff0000" fill="none"/>
 </g>
</svg>